<mxfile host="app.diagrams.net" agent="Mozilla/5.0 (Macintosh; Intel Mac OS X 10_15_7) AppleWebKit/537.36 (KHTML, like Gecko) Chrome/128.0.0.0 Safari/537.36" version="24.7.14">
  <diagram name="Page-1" id="tGbrQQWwG-ZOFO_eNnRK">
    <mxGraphModel dx="3080" dy="1844" grid="0" gridSize="10" guides="1" tooltips="1" connect="1" arrows="1" fold="1" page="0" pageScale="1" pageWidth="827" pageHeight="1169" math="0" shadow="0">
      <root>
        <mxCell id="0" />
        <mxCell id="1" parent="0" />
        <mxCell id="PnPkqlYFe4MIE_lKeHhR-45" value="" style="rounded=0;whiteSpace=wrap;html=1;" vertex="1" parent="1">
          <mxGeometry x="-708" y="-10" width="1740" height="749" as="geometry" />
        </mxCell>
        <mxCell id="wLGBiTn9vYruEYs-nZDu-4" value="" style="rounded=0;whiteSpace=wrap;html=1;dashed=1;strokeWidth=2;strokeColor=#97D077;" parent="1" vertex="1">
          <mxGeometry x="-374" y="13" width="1394.6" height="706" as="geometry" />
        </mxCell>
        <mxCell id="wLGBiTn9vYruEYs-nZDu-7" value="" style="rounded=0;whiteSpace=wrap;html=1;dashed=1;strokeWidth=2;strokeColor=#B5739D;" parent="1" vertex="1">
          <mxGeometry x="43" y="92.5" width="960" height="463.5" as="geometry" />
        </mxCell>
        <mxCell id="wLGBiTn9vYruEYs-nZDu-9" value="" style="rounded=0;whiteSpace=wrap;html=1;strokeColor=#0000FF;dashed=1;strokeWidth=2;" parent="1" vertex="1">
          <mxGeometry x="451" y="185" width="378.5" height="125" as="geometry" />
        </mxCell>
        <mxCell id="PnPkqlYFe4MIE_lKeHhR-14" value="" style="rounded=0;whiteSpace=wrap;html=1;strokeColor=#0000FF;dashed=1;strokeWidth=2;" vertex="1" parent="1">
          <mxGeometry x="451" y="335" width="378.5" height="125" as="geometry" />
        </mxCell>
        <mxCell id="PnPkqlYFe4MIE_lKeHhR-16" value="" style="rounded=0;whiteSpace=wrap;html=1;fillColor=#000000;strokeColor=none;opacity=30;" vertex="1" parent="1">
          <mxGeometry x="501.5" y="223" width="127.5" height="272" as="geometry" />
        </mxCell>
        <mxCell id="wLGBiTn9vYruEYs-nZDu-6" value="AWS" style="shape=partialRectangle;whiteSpace=wrap;html=1;top=0;left=0;fillColor=none;strokeColor=#97D077;dashed=1;strokeWidth=2;" parent="1" vertex="1">
          <mxGeometry x="-374" y="13" width="82" height="33" as="geometry" />
        </mxCell>
        <mxCell id="wLGBiTn9vYruEYs-nZDu-8" value="VPC" style="shape=partialRectangle;whiteSpace=wrap;html=1;top=0;left=0;fillColor=none;dashed=1;strokeWidth=2;strokeColor=#B5739D;" parent="1" vertex="1">
          <mxGeometry x="43" y="92.5" width="78" height="31.5" as="geometry" />
        </mxCell>
        <mxCell id="wLGBiTn9vYruEYs-nZDu-10" value="Subnet:&amp;nbsp;&lt;span class=&quot;notion-enable-hover&quot; data-token-index=&quot;0&quot; style=&quot;font-weight:600&quot;&gt;12.0.0.0/16&lt;/span&gt;" style="shape=partialRectangle;whiteSpace=wrap;html=1;top=0;left=0;fillColor=none;strokeColor=#0000FF;dashed=1;strokeWidth=2;" parent="1" vertex="1">
          <mxGeometry x="451" y="185" width="144" height="34" as="geometry" />
        </mxCell>
        <mxCell id="PnPkqlYFe4MIE_lKeHhR-11" style="edgeStyle=orthogonalEdgeStyle;rounded=0;orthogonalLoop=1;jettySize=auto;html=1;entryX=0.5;entryY=1;entryDx=0;entryDy=0;strokeColor=#FF0000;strokeWidth=2;" edge="1" parent="1" source="wLGBiTn9vYruEYs-nZDu-11" target="PnPkqlYFe4MIE_lKeHhR-10">
          <mxGeometry relative="1" as="geometry" />
        </mxCell>
        <mxCell id="wLGBiTn9vYruEYs-nZDu-11" value="" style="shape=image;imageAspect=0;aspect=fixed;verticalLabelPosition=bottom;verticalAlign=top;image=data:image/jpeg,/9j/4QC8RXhpZgAASUkqAAgAAAAGABIBAwABAAAAAQAAABoBBQABAAAAVgAAABsBBQABAAAAXgAAACgBAwABAAAAAgAAABMCAwABAAAAAQAAAGmHBAABAAAAZgAAAAAAAABIAAAAAQAAAEgAAAABAAAABgAAkAcABAAAADAyMTABkQcABAAAAAECAwAAoAcABAAAADAxMDABoAMAAQAAAP//AAACoAQAAQAAAO4CAAADoAQAAQAAAKYBAAAAAAAA/9sAQwAGBgYGBwYHCAgHCgsKCwoPDgwMDg8WEBEQERAWIhUZFRUZFSIeJB4cHiQeNiomJio2PjQyND5MRERMX1pffHyn/9sAQwEGBgYGBwYHCAgHCgsKCwoPDgwMDg8WEBEQERAWIhUZFRUZFSIeJB4cHiQeNiomJio2PjQyND5MRERMX1pffHyn/8AAEQgBpgLuAwEiAAIRAQMRAf/EABwAAQACAwEBAQAAAAAAAAAAAAABBwIFBgQIA//EAEoQAQABAgMEBggDBQUFBwUAAAABAgMEBREGEiExNDVBcXKxBxMyUXOBwdEiYaEUQkRSkRUXI0PhFiQzYvAlNjdjgoPikqKys8L/xAAbAQEAAgMBAQAAAAAAAAAAAAAAAwUBAgQGB//EADARAQABAwIFAwMEAgIDAAAAAAABAgMEETIFEiExM0JxciJBUTQ1gcFhoRMjBkPh/9oADAMBAAIRAxEAPwD6pAAAAAAAAAAAAAAAAAAAAAAAAAAAAAAAAAAAAAAAAAAAAAAAAAAAAAAAAAAAAAAAAAAAAAAAAAAAAAAAAAAAAAAAAAAAAAAAAAAAAAAAAAAAAAAAAAAAAAAAAAAAAAAAAAAAAAAAAAAAAAAAAAAAAAAAAAAAAAAAAAAAAAAAAAAAAAAAAAAAAAAAAAAAAAAAAAAAAAAAAAAAAAAAAAAAAAAAAAAAAAAAAAAAAAAAAAABDGokQx1nUYZiNTVnWGUgAAAAAAAAAAAAAAAAAAAAAAAAAAAAAAAAAAAAAAAAAAAAAAAAAAAAAAAAAAAAAAAAAAAAAAAAAAAAAAAAAAAAAAAiQlhVMRE8exiZ/LGnXoTMQjjzhxWd7dZDlE10XMVF27TrE2rX4qtY9+nJ4cn27w+PtUXb2Hm1RXxp472nZx5OWvNsW6uWZdNvDyK6Zqpt6wsSJmZZPHhcVh8RRFdq5FVMxw0l7HRTVRVGtPVzzTVTOlUaSy1gYsm4AAAAAAAAAAAAAAAAAAAAAAAAAAAAAAAAAAAAAAAAAAAAAAAAAAAAAAAAAAAAAAAAAAAAAAAAAAAAAACJNZBLGWT855sT76MT7asolEyiZ0hjNU9x1juxM6x0ZsKqv+pTrKKo/CxMzGsx2ZjroqraP0m4LLb1/CYXC3L2It1aTvfhtxPPnGvJUGb7bbQ5rFdN7GzRbq/yrUbsTE+/Tno8W1PX+ZfHny7HPa/9fZ5nJzL1ddVOukQ9ViYWPTbpr0+pMzMzxlZmQ9VYbw/VWSzsh6qw3h+qpvzPJ1nquMemIqjSnVv8Ni8Thq9+zdqpq/Lt73Y5ftfcpmmjGUaxw/HT9YcP90xwRY+dlY0fRc1hvl8Oxcnda0n8ruweY4XGW4uWbtNUflL3xKhrN+7Yriu1cqpqjtiXZZdthdtbtGMo3qeH46effL0eHxy1cnlvRy1fn7PM5nAb1rWqzPPTH2+6yEzxhrsJmWFxdMVWbtNUcOGvGNXv3vzXlFyiuNaKtYUVVNVE6VU1RKWUcmMSyjk3+/Zrrr90gMsgAAAAAAAAAAAAAAAAAAAAAAAAAAAAAAAAAAAAAAAAAAAAAAAAAAAAAAAAAAAAAAAAAAAAAI1TrDE4tdZCZ0hG8idNEREams/hrrGvdlvQ/K5etWomquummPfM6ebU57jLuByvGYm1p6y3aqqp1jWOHv1fK+b7U57m+v7XjK6qZiP8On8FHziO2HFlZlGPMRMazLuw8K7lazExEQ+hM49IuzeXTXbjEVXr1Outu3TM/wBZ4cHEYH0kZlmWY1xbw9q1Ypp1imY3qp7OfDmpCd3hGuv1/r2Oo2W1/bb3wvqpL/Eb9WvLOkL/AB+FY9ExFUc0vovL9rMBe3aL8VWq+7WnXvdVRftXbcVUVxVE9sSoif8AqYe3B5ji8HXTNm7MRw/DPLRpjcdriOS9TrH5gyv/AB+jXnsVaT+JVZtTr/b2Y/Hlz7a53fqxGaYu7VGlU3J105fJqdXNXVFdU1RPd22qZt0U0z3hPuWbkPVWG7vqrJZuQ9VYbu+rmv6cjqsa8+sS3Xv7w94r/SsOuvc0RxjlwSampMRM9mdq7ds1xXbuVUVR2x9XW5ZtZiLU00Yqnfp/mj2ocfqiXVYzL+PMTRc/hx5GBjZNMxcp6/nourA5xgMbH+FdiZ908J/VtYrp05qCorroriqiqaao9zp8u2pxuHimm/HrKI4f83B6LF49bq0puxpLzeXwC7b1qszzR+PutfWDVpMvzvAY6P8ACu6VdtM8JhuIn3TC+t3rd2nmoq1hQV2rluqaa6JpmPy/TU1hjqJOqOJZiKe1JEsgDIAAAAAAAAAAAAAAAAAAAAAAAAAAAAAAAAAAAAAAAAAAAAAAAAAAAAAAAAAAAAAxmeIwyGEzLCbkR8+WjGrOrPV+Vy5u+75yV1zETMdkPlvabbPaLF47GYacfct2aLlVEUW/waxHDjMaauTKyqceiJmNZl04mJXk1zFNURp+V551t1s/lMV03cR627T/AJVvjV8+TS5R6Qqcwpm7Xg/V2pqmKZpq3quE9uuj5siZmrj2zM/P7rD2amZyynX+erX8+Pao8ji2REa06aL/AB+D42vLXrMyuvaLMcLjNnMxqsXIq/wp1jtfKE/ZbGZXK7eAxW5VNOtE66Km11/pDjuZtWVEVTHWHZZ4fGHNVMVaxJLqdlum3vhfVyzqNltP2298P6oLk60TMuq39NcaO/lH3SiVZp26rTpyzMQqfMun4jxy8L3Zn0/E+OXhWlE/TCqr3SLOyDScqwunOInzVisjZzqu331foiyJ+hNjx9bfoDtV0dtHf6kgMkhqBppOrHfpIGhoT31ZidOyKappqiYq0mOUw6bL9qMdhpii9MXaI/q5qf0Ro6LGVfsVa0VaObIxMfIp0u26ZXBl+e4LG6RRXu1z+7U3lM/nHJQlM7sxNPCY4xMOgwG0uZYTSmq5623/AC1PQ4nHaZ+i9HX8vM5nAKqI5serWn8Lep7UuXy7aXA4rSKqtyuf3Z9/5OjpuRVGsTr3L+zkWrsa0V6qC7ZvWatK7dVL9xhEyzjknRagAyAAAAAAAAAAAAAAAAAAAAAAAAAAAAAAAAAAAAAAAAAAAAAAAAAAAAAAAAAAPzqqiJZtTm925ZwGLu0TMVU2appmOyYa1zFNMz+CmJmqI/Lz5ttBlOV2JuYzE0247KdfxVd0R71SY70o4jG4+xhsss+qs1VxE3K4/FV8o14KdxeLxOLvzdxV6u7XMzxrnen9dX65TP8A2ng9I1/xI+rzuRxK7M100dHpMbhVqnkquTrr9n0dg9rqpjcxVHHdmN+Pq+cM2rprzPG10zrE3q5/qtSqNY/rr/oqTGaftV/3b9Sqpzb2RE03PstZ4fj49UV2vu80cJiVi7MxP9mU/Eqj9VdLF2Zq1y2PiVIr8/8AX0dFnyNjmnQMR4FUfZa+adAxHgVR/ojxtkpcrdCXTbMVaY+uPfR5cXMxzdJsx1h/6JS3Z0tzKC1GtxYaJO0+6uj0rP8A9cqnzPp+J8cvC92ZdPxPjnyeFZ07YVde6RZGznVdvvqVusjZzqu331eSHJ2R7psbe3x2p7fkjtcEd3d6pSAySADAAAAezPvGojT5pDWJ6T3NZ+0aQjSf+vo3mX7QY7AxFMV+soj92r6c2kRKWzkXbE60VVIL2NZyI5blFMwuHJ85t5lbqmmiqmqnTWJ5e90EK72L4/tPfCxIe84feqvYtFVXd8/z7FFnKuUU9oSA7nIAAAAAAAAAAAAAAAAAAAAAAAAAAAAAAAAAAAAAAAAAAAAAAAAAAAAAAAAAANPnvVOP+BV5Nw0+e9U4/wCBV5I7vjr+La35KPk+MJ9qe9sMo6xwfxWvn2p72wyjrHB/E+jxk+r5PcUbY/hak8p7pVFi+k3vHPmtyeU90qjxfSr3jlw426p25O2HnjnCwNluhV+NX8c4WBsv0Krxpb/jlFY3w22adBxHgVStbNOgYjwKpa4m2pvlbyOcOj2Z6xjwS5yOcOj2Z6xjwSmu+OUNryLER90o+6tj0rL0SqfMun4nxz5PC92ZdPxPjnyeFZ07YVle6RZGznVdvvq8lbrI2c6rt99Xkhydke6bG3t/2/JHant+SO1wR3d3qlIDJIAMAAAACEoYbJhE8vklE8vkT3Yns7/YnlivksOFebEfxffCw4e84R+gsez5/wAY/cL/AL/0ALRWgAAAAAAAAAAAAAAAAAAAAAAAAAAAAAAAAAAAAAAAAAAAAAAAAAAAAAAAAAHa0+e9U4/4FXk3Ha0+e9U4/wCBV5I7vjr+Mtrfko+T4wn2p72wyjrHB/Fa+fanvbDKOscH8V4ye1Xyl7ijbH8LTnlPdKo8X0q945W5PKe6VR4vpV7xy4cbdU7cnbDzxzhYGy/Qa/Gr+OcLA2X6DX40uR45R2N8NtmnQMR4FUfZa+adAxHgVR9muJtqbZe9lHOO90WzPWMeCXOxzjvdFsz1jHglNd8cobXkWIj7pR91bHpWXolU+ZdPxPjnyeF7sy6fifHPk8Kzp2wrK90iyNnOq7ffV5K3WRs51Xb76vJDk7I902Nvb/t+SO1Pb8kdrgju7vVKQGSQAYAAAACAglmCUT9Eyifo1ndBPZ3+xH8X3wsNXmxH8X3wsN7zg/6Cz7f2+f8AF/3C98gBaq0AAAAAAAAAAAAAAAAAAAAAAAAAAAAAAAAAAAAAAAAAAAAAAAAAAAAAAAAAA7Wnz3qnH/Aq8m47Wnz3qnH/AAKvJHd8dfxltb8lHyfGE+1Pe2GUdY4P4rXz7U97YZR1jg/ivGT2q+UvcUbY/hac8p7pVHi+lXvHK3J5T3SqPF9KveOXDjbqnbk7YeeOcLA2X6DX41fxzhYGy/Qa/GlyPHKOxvhts06BiPAqj7LXzToGI8CqPs1xNtTbL3so5x3ui2Z6xjwS52Ocd7otmesY8EprvjlDa8ixEfdKPurY9Ky9EqnzLp+J8c+TwvdmXT8T458nhWdO2FZXukWRs51Xb76vJW6yNnOq7ffV5IcnZHumxt7f9vyR2p7fkjtcEd3d6pSAySADAAAAAQEEswSifomUT9Gs7oJ7O/2I/i++Fhq82I/i++FhvecH/QWfb+3z/i/7he+QAtVaAAAAAAAAAAAAAAAAAAAAAAAAAAAAAAAAAAAAAAAAAAAAAAAAAAAAAAAAAAdrT571Tj/gVeTcdrT571Tj/gVeSO746/jLa35KPk+MJ9qe9sMo6xwfxWvn2p72wyjrHB/FeMntV8pe4o2x/C055T3SqPF9KveOVuTynulUeL6Ve8cuHG3VO3J2w88c4WBsv0Gvxq/jnCwNl+g1+NLkeOUdjfDbZp0DEeBVH2WvmnQMR4FUfZribam2XvZRzjvdFsz1jHglzsc473RbM9Yx4JTXfHKG15FiI+6UfdWx6Vl6JVPmXT8T458nhe7Mun4nxz5PCs6dsKyvdIsjZzqu331eSt1kbOdV2++ryQ5OyPdNjb2/7fkjtT2/JHa4I7u71SkBkkAGAAAAAgIJZglE/RMon6NZ3QT2d/sR/F98LDV5sR/F98LDe84P+gs+39vn/F/3C98gBaq0AAAAAAAAAAAAAAAAAAAAAAAAAAAAAAAAAAAAAAAAAAAAAAAAAAAAAAAAAA7Wnz3qnH/Aq8m47Wnz3qnH/Aq8kd3x1/GW1vyUfJ8YT7U97YZR1jg/itfPtT3thlHWOD+K8ZPar5S9xRtj+FpzynulUeL6Ve8crcnlPdKo8X0q945cONuqduTth545wsDZfoNfjV/HOFgbL9Br8aXI8co7G+G2zToGI8CqPstfNOgYjwKo+zXE21NsveyjnHe6LZnrGPBLnY5x3ui2Z6xjwSmu+OUNryLER90o+6tj0rL0SqfMun4nxz5PC92ZdPxPjnyeFZ07YVle6RZGznVdvvq8lbrI2c6rt99Xkhydke6bG3t/2/JHant+SO1wR3d3qlIDJIAMAAAABAQSzBKJ+iZRP0azugns7/Yj+L74WGrzYj+L74WG95wf9BZ9v7fP+L/uF75AC1VoAAAAAAAAAAAAAAAAAAAAAAAAAAAAAAAAAAAAAAAAAAAAAAAAAAAAAAAAAB2tPnvVOP8AgVeTcdrT571Tj/gVeSO746/jLa35KPk+MJ9qe9sMo6xwfxWvn2p72wyjrHB/FeMntV8pe4o2x/C055T3SqPF9KveOVuTynulUeL6Ve8cuHG3VO3J2w88c4WBsv0Gvxq/jnCwNl+g1+NLkeOUdjfDbZp0DEeBVH2WvmnQMR4FUfZribam2XvZRzjvdFsz1jHglzsc473RbM9Yx4JTXfHKG15FiI+6UfdWx6Vl6JVPmXT8T458nhe7Mun4nxz5PCs6dsKyvdIsjZzqu331eSt1kbOdV2++ryQ5OyPdNjb2/wC35I7U9vyR2uCO7u9UpAZJABgAAAAICCWYJRP0TKJ+jWd0E9nf7EfxffCw1ebEfxffCw3vOD/oLPt/b5/xf9wvfIAWqtAAAAAAAAAAAAAAAAAAAAAAAAAAAAAAAAAAAAAAAAAAAAAAAAAAAAAAAAAAO1p896px/wACrybjtafPeqcf8CryR3fHX8ZbW/JR8nxhPtT3thlHWOD+K18+1Pe2GUdY4P4rxk9qvlL3FG2P4WnPKe6VR4vpV7xytyeU90qjxfSr3jlw426p25O2HnjnCwNl+g1+NX8c4WBsv0Gvxpcjxyjsb4bbNOgYjwKo+y1806BiPAqj7NcTbU2y97KOcd7otmesY8EudjnHe6LZnrGPBKa745Q2vIsRH3Sj7q2PSsvRKp8y6fifHPk8L3Zl0/E+OfJ4VnTthWV7pFkbOdV2++ryVusjZzqu331eSHJ2R7psbe3/AG/JHant+SO1wR3d3qlIDJIAMAAAABAQSzBKJ+iZRP0azugns7/Yj+L74WGrzYj+L74WG95wf9BZ9v7fP+L/ALhe+QAtVaAAAAAAAAAAAAAAAAAAAAAAAAAAAAAAAAAAAAAAAAAAAAAAAAAAAAAAAAAAdrT571Tj/gVeTcdrT571Tj/gVeSO746/jLa35KPk+MJ9qe9sMo6xwfxWvn2p72wyjrHB/FeMntV8pe4o2x/C055T3SqPF9KveOVuTynulUeL6Ve8cuHG3VO3J2w88c4WBsv0Gvxq/jnCwNl+g1+NLkeOUdjfDbZp0DEeBVH2WvmnQMR4FUfZribam2XvZRzjvdFsz1jHglzsc473RbM9Yx4JTXfHKG15FiI+6UfdWx6Vl6JVPmXT8T458nhe7Mun4nxz5PCs6dsKyvdIsjZzqu331eSt1kbOdV2++ryQ5OyPdNjb2/7fkjtT2/JHa4I7u71SkBkkAGAAAAAgIJZglE/RMon6NZ3QT2d/sR/F98LDV5sR/F98LDe84P8AoLPt/b5/xf8AcL3yAFqrQAAAAAAAAAAAAAAAAAAAAAAAAAAAAAAAAAAAAAAAAAAAAAAAAAAAAAAAAABp896px/wKvJuGnz3qrHfAr8kd3x1/Ftb8lHyfGE+1Pe2GUdY4P4rX1e1PilsMo6xwfxPo8ZPq+UvcUbY/hac8p7pVHi+lXvHK3KuU90qjxfSr3jlw426Xbk7IeeOcLA2X6DX41fxzWBsv0Krxpcjxyisb4bbNOgYjwKo+y1806BiPhqo+zXE21N8veyjnHe6LZnrGPBLnY5x3ui2Z6xjwSmu+OUNryLER90o+6tj0rL0SqfMun4nxz5PC92ZdPxPjnyeFZ07YVle6RZGznVdvvq8lbrI2c6rt99Xkhydke6bG3t/2/JHant+SO1wR3d3qlIDJIAMAAAABAQSzBKJ+iZYzyYndBPZYGxH8V3wsJXuxH8V3x5LCe84R+gs+39vn/F/3C98v6SAtFaAAAAAAAAAAAAAAAAAAAAAAAAAAAAAAAAAAAAAAAAAAAAAAAAAAAAAAAAAAhqM96qx3wKm4abPZ0yrHfAqRXfHX7Nrfko+UPjKqONXfL35R1lg4/wDMeCqPxVeKXvynrPCfFh4yvSJrjX8vb2+blomY6LTnl8pVHi+k3vHK3Z5fKVRYvpN7xy48aIiqZ11h3ZOsURVp0eeOcd6wNl+GBufEmFfxr2c1hbMU6ZfNWuutyf04Jb+vJKKx5IbTNI/3DEeCVUf6LYzToGI8Mqo93dDTF2S3yt5HOO90ezPWMeCXORzh0ezPWP8A6JTXPGhteRYiPulH3VselZeiVT5l0/E+OfJ4XuzLp+J8c+TwrOnbCsr3SLI2c6rt99XkrdZGznVdvvq8kOTsj3TY29v+35I7U9vyhHa4I7u71SkBkkAGAAAAAACUJRPInTTv1Z6zpo7/AGJ/i++PJYcK72JmIjF98LD7Hu+EfoLMT9ofP+Lzrn3/AJJAWitAAAAAAAAAAAAAAAAAAAAAAAAAAAAAAAAAAAAAAAAAAAAAAAAAAAAAAAAAAHhx2GpxWHvWKqpim5RNMzHZq9wxMRMaSRMxOsPmzO/Rbm+Fmu7ga/2m1vTO77NcflEcnCYLCYjDZthbeIs12q6bkaxMTTp3+99mTTGnJrcblWX43cnE4W1dqonWiqqmJmmfy1VN/hVFes0TpMrbH4tdo0puRzUwpnD4LE4maqbNqqrWJ4qcx9FVvG4mirnTcqifk+zIw1izamm3apoiKZ4Uxo+O84j/ALWzD8sRX59ipv8ADYxLcaTrK3xeJ1Zt6YmNKY+zW0+1Cw9meq6fHV5q8jWJ/VYmzXVlPjr81dfif+PVZ2Jj/liGxzToGI8CqPd3LXzToGI8Eqp93dCPFmOSdEmT1r9iOcOj2Z6w/wDbnzc393U7LxE467w/y/qmudaJhDan69Xfo+6YR91bHpWnolU+ZdPxPjnyeF7sy6fifHPk8Kzp2wq690iyNnOq7ffV5K2WTs51Xb76kWTsj3S406Vt/wDaEdqUK+I6arCdyQGWJABgAGYiZ7AgIiTln8JGPFlFMzVpETVOvKP9GaYqmdIhrVVFPWrpCExGs6RGvHlDpMBsxmGKiKq4i1Rw4zxn5O3y7Z7AYLSfVxXX/NVx4/lqtcXg9+/MTVHLHfqp8vjeNYiaaKuaf8NRshhL1m1iK7lE001aaa9rvIjg/KmmimPw0w/WHsMWxFizTbiddHjci9N+9Vcn1JAdKEAAAAAAAAAAAAAAAAAAAAAAAAAAAAAAAAAAAAAAAAAAAAAAAAAAAAAAAAAAAAmNUTTCQH5buscfe4XaLYLI843rnqvU35jhdt8OMdsxyd7xYzTOqG5apuU8tUaw3t3K7dXNROkvlLPtg89yaqa/UTfsaz/i2o1/PjE8dWw2Yoqqy2mmmmZn1lcaRHHXXt0fTVVGtOkx2Tw7Gvs5TgLFyq5Zwtu3VVOs7tMU/Ph2qnI4PTXMclWkfdc4/G7lERz06zHb/wCqjzDZ3G/2PjMRepm3RTamYiecqK4cO6H19tbGmz+ZaRMz6ieH2fIWk+/shX5eFbxtIo7ff3WGFn3crnm7y683Rj93VbLdNvfC+rldJdVst0278KPNX19YmIWVEfVGrvkT9TnOnafdWxMc0R91pPSidVT5n0/E+OXhe7MunYnxy8Kzo7Qqqt0oWXs9Ru5Vame3Wf68FarOyHqrC+GfNHfjWhLY3twmER9Eq6Nqw+4AawwAasghOqaKLldUxTTNVXZEQzTTNU6RGssTVRTGtc6Qx4/kyppqqndpiZmZ5RDpcu2Wx+J0rvRNqidOfOXd4DIcFgopmi3vVR+9Vxn5arbE4NkXtKqtaY/ypszjeNY1ptzzVf4cHl2zGOxO7Xdj1VudOM+18nfZdkOAwVMbluKquH4qo1luYoiIjgy04PS4nC8fH66c1X5l5jK4plZM/VXpT+IY7sR/ROkJ0lKx0nTSOiu7z1g0ZI0SRr92QBsAAAAAAAAAAAAAAAAAAAAAAAAAAAAAAAAAAAAAAAAAAAAAAAAAAAAAAAAAAAAAAAAIljLKdUafmwxP4ee7RTcpmmqmJieE0zGsSrzPvRtkmZRVdsROFvTzqt+zVPuqidf0WUIrlmi5TpVGqS3duW51pq0fJuebD7QZPNVVWG9dZieFy1x/rE6y8uy/Tb3wo1j3fi7X1xcppqpmKqYmJjjE9rmLmyWSV42cZ+yU0XZj8W5+GmflGinyeExVr/xTpMrnG4zVR5adYhW2EwOKxlcUWLVVf58oj58HbZdsfbp3a8ZXvTrrFEcvno7OxhbFiiKbduKYj3R9n7aTw72cbhFmzTE3KeeqKf4aZXG8i/rTbnko/wBy+PdpqKLeeZhRTGlMX5iI+TQug2p/7wZl8eXPqi7FMXKojtzL6xNU2bcz35YFm5D1Thu76qy9yzch6qw3d9XJf8brsb257fmHb8xXxGtKw+/RKDhPCWdu3Xdr3aKZqmeyI18maaa6quWmNf8ADFVdNNPNVOn+fswllRbuV17lumaqp7IdXluyeLxExXiZ9XRw4fvS7rL8nwOBpiLVuNdfamNZ/Vb4nBsi9MTXHJT/ALUmZxyxZ1po/wCyr/ThMu2UxWImmvET6uj3dv6O5wOTYLBUxFq1x/mq4y3MRERwZRyemx+HY1iI0p1q/Ly+VxHKyZnmq0p/EdmNMaRocdYTxI5u/SO0dFf1+/VmA2bAAAAAAAAAAAAAAAAAAAAAAAAAAAAAAAAAAAAAAAAAAAAAAAAAAAAAAAAAAAAAAAAAAAAAACNPzSAjT8zRIMaI3WM0QzBnSH56MauTNExq1ntox99Xyztrs3nOEzTGYu5hK6rFy5NUXKI1piPz010cFETPLjHvjk+3q7NFdE01UU1RMcpjWP11V7n/AKN8mzT1l6zT+y4iqJ/FR7Mz/wA0cf0UuTwyqqZqonqvMTisU000XY6R93zEs3IeqcN79OXzaTPdiM+yiud+xVesxPC7bjWO+YjXR0Ozlm7ey3DUW7dVVW7yiNe3tUOTYu0RyTR1egxr9mueeLlPLH+Wz468v1fpas3btcUW6JqqmeUcf66Ovy3ZDE3tK8XO5Tw/DE8Z83c4LK8JgqIps2qYj36cf1T4nBL9f1XZ5aUGbx6xbjls/VV/pwmXbJ3727Viqtyj+WOcu5wGUYHBURFm1ET/ADTxn9Wz3Y05MuUPR43DsfHjWmmmZeXyuIZORM89yrl/H2RFMTLLdgpZO+Ozi6I0ToBoyjQ0/NIyAAAAAAAAAAAAAAAAAAAAAAAAAAAAAAAAAAAAAAAAAAAAAAAAAAAAAAAAAAAAAAAAAAAAAAAAAAAABIAwTwZDDGjDiiY/N+gyTGrz1W6a40qjeiY4xPa8tjAYXD702sPbomee7GjYp0aTRRPeNW0VVxGkVPypiITq/Q0hmIiOzWY1YRyNGYzoRDGlkBEdGQBkAAAAAAAAAAAAAAAAAAAAAAAAAAAAAAAAAAAAAAAAAAAAAAAAAAAAAAAAAAAAAAAAAAAAEa8UsKp01B58Zi7WDwt/E3aopt2qJrqmeyI4qw2X9LOV7Q5xRltGCuYeuuKtyuuuKoqqj93SNOMvw9MedV4LZmcDZrqpvY65Fv8ADz9Xyr5d/BVm1Ozl3Y/B7G5vhqfVYi3NNGImmf8AMjjrrHOZiZB9Za8kb3HR4svxtrHYLD4q1xt3rdNdE/lVxhyW1O22E2ezPKcDew1d2rG1VRFUTuxRFOnGefvB3W8aypbOfTNk+Cxl+xgMBdx9NmZpuXqKt2iKo4cJ0nV0mzfpJ2ezvL8Ti67/AOyzhqd6/buzpuxPbGumsAsXWWUTrCicd6cMsw+ImLOU4i7homP94mrcjSeGukxPyWts7tHluf5bax2BuTVRVMxVTVGlVFUdlUeQOgngiatIc1tNtXk+zeDoxGYXppiurdoopjWqqefCFYXfTLXFFV6nZfGzh4nhemvSJiO2fwgvPe8jelx2yW2eUbUYSu9gqpprt6RctVe1Gv0anbXb/D7K4rCWbmAu4mb9uquN2rdiN2dNOU8ZBY+sm93KCr9OuDop35yHERHDj6zhxnT+VcGz2c2c8yfB5naomi3iKZqiiqdZ4TMfl7gb3eN75qy2q9J+SbP4urBUUXMXjI9qzbn2fyqnjpLm7Xpqwtu9bpzHIcXg7VWmt2at7TXhrpuxwkF4zOnbEd6Irn3NVlebZfm+As43A34u2blOtNcf049zirXpKyWM3zvAYqmcPTl2sV3rlXtzHHSmJ04gszVMcYULf9OOX03pmxkuJuYeJ/4017uke+adJW5s/tDlufZbZx2BrmbdevCY0mJieMTAN+/K9c9XauV/y0zP9I1fq82M6LiPhV+QKQr9OmXRdu0UZJiq9ydJmLlMecH9+eC4aZBjO3/Mp7Pdwcv6FbVm7nOexdooq4RpFcRVy92r6NpweCnT/dbM/wDt08P0B5chzqM5ynCZhRhrlqm/RFUUV+1TE8ePJo9qdvcj2Zp3cXeiu/VRvUWKPbmP10114N3nGPs5RlGLxulMUWLVVUREaR7o007NXz56MMh/2qzrMdoc5p9fuXdaKa/xUzcr48Ndfw08ogHSR6bb0zNz/ZfGeoif+Jvxpp36LH2U25ybai1VOCrmm9RTrds18KqI5a9msfnDqYwOFijc/Z7W7ppu7lOndyavB7NZRgMzv5jg8HbsX7tv1dz1cRTFca73GI7eAOR2p9KGTZBjKsDRZu4zF06b1m12b3GOPFyVn04WbWIot5jkOKw1NUxG9VVHDXt005Qt61s9k1jHYnG0YCxGJxG7N25NMTM7sadurkPSZleW4jY/M671i1FVqmmq3XuxFVNWsRpEx7+QO7y3M8LmmDsYzCXIuWLtOtNcdvZ+jZKN9Bd29XsxjKa7lU004vSimZ4UxuROkLyjlAAAAAAAAAAAAAAAAAAAAAAAAAAAAAAAAAAAAAAAAAAAAAAAAAAAAAAAAAAAAAD864fo0O0Wb2cmyjHZhe9mxYqq0mdN6Y7I7wUZndcbV+lfA5fRE14bLaom7E8taJ/H9Fn+kXIas52Tx9i3RNV21TF2zER+9Rw4fKVD7EbA5ntVhsZnH9r14WbmIrp34iZqrnnM8NODuZ9DmazExO1d7TT+Wr7g3voazv8AtDZf9kqmqbmCuTRrP8k+xp3RDi/TlTFWdbNxvTTrF2N6OcazTHDvavYq3iNifSNVk+KuTVZxNM2qKvZivenWi5Ov5Q2nptnXPNmJ58LnnSC88l2fy3J8tsYLC4aiLVFMb2sRM1z2zOvvfNWL2Wy676WbmT1RVThb92Llyi3O7rTX+PcnXXg+tafZp7o8nzjif/HSz3Wv/wBcgu/HZLls5NicBTg7NNj9nrpiiKY3YjThz9ymfQhNdi/tDg6bmtm3f0iI99P4dfmv/GdExHwa/JQHoY612n0mIn19X/5a8QXdmeV5TjYs3sfhbNyMPVv0V3P3J97SYna7YyxrZv5xl2kxpNO/RynhMToq70zZljqsxyLJLd25aw+J0ru7s6RV+OKeP5Rq77B+jvYjBYOmLmV4e5TRTM137kzMzpzmeMAqb0WYq1b9IWdUYOqirDX6bu7u+zu+s3omH0xXat1aTVRTM+GJnj36vl70Y04Sn0k5lTg4txh49b6qKPZ3Ymfetn0l7W1ZBk84fC/ix2M1t2aI9qKZ1iqrs5dn5grza7EV7b7X4XZ3LtyMHhatcTdoo5z+9MVR2acI/NeGKixkOzeI/Zqdy3g8HXNuIj+SmZifnPNyfo12Up2fyeL2JmmrH4rS5er14xrxinj7ucuz2hw9WMyHNcPaiJru4S9TT26zNEx2Apj0NZPZxtrMtocXRTdxF/F3KaJq4zRyqnTX37y5c6yTA5xlt/A4qxbqpu0TTru6bkzwiqPzjsVD6E84wtvLMbklcxRirGKrrmmqdN6NIp/D3bq5M1zfCZVgcRjcVdim3ZomurWeM6cdI7+wFF+hXGYixmW0OTzcmqzaqiuinXhE700T+kOdynIsFnvpYzvCY2ma7NOLu3qrfZVNvSYir8p14uk9C+Ev4jNdoc59XMWL07lFU9tW/NX9NJebYz/xlz6P+bE+VIL7xGT5fiMFVgruEtzYrt7k0RTHLlw7lLehS7VZxG0uA/FNu1fomnXs9rV9A/vQ+e/Q319tb8W3/wD0D6FpnWPzfhjeiYj4Vfk9Mcnmxmn7JiPhV+QPjjYXBbXYrMc1p2dxlFiumda5qqinX+q1LOSemGL9qbmd25o3o3oi5Txjt/o0HoRqinOc97I3Y0mZ5vpKLtGnt08vfAOB9J9y9RsPnFVqNZ9VTvaR2TXHJo/QrTZjY+3NMU737Ve3pjnwqnmsDaTLIznIsfgKauF+xNNMx74/FHkoH0T7UWdnswx+z2bVTZqqxGluuqNKablOsVUzr754g+oR5Yv25p1iumaffrziWlw+0mUYnNrmV4fFUXMVbs+suU0cYpp13dKv6g6Gr8uE+989+lbaC/mWNwuyeVTNy/eronEadmvGIn8o9qXU+kD0gU5TM5PldNV7Nb1MUxFMxMWd/tq/Oew9Hmw0ZHRXmWaXqb+aYiNblU1RVuRVx046fintB2OyWz1nZ3IsHl9ERNVFMTdqj9+urjMz3a8HWvPFymqZiJie6eX9H7xygEgAAAAAAAAAAAAAAAAAAAAAAAAAAAAAAAAAAAAAAAAAAAAAAAAAAAAAAAAAAAOP2z2aq2lymcu/bZw1NV2iuquKd+aop1/Dzjm7BhVTM8p0Bodmciw+Q5PhMutVb8WaNKrmm7v1dtWnHm6BERMMgVdtf6OrO0eaYHMLePqwl6xERMxb397SYmnTjHLtZbZ+j+narFZbia8xnD1YSKuVvfive0n3xpyWXuzrMm7OuvbqDCJnSNOXD5q7ubBW69uKNpv7Rnep3Y/Z/V/y07vPX6LHimdNJ0IpmAflfom7ZuUaxG9TVTrz01jRwOx2w1GzWMzG9RmHr4xVczNG5u6azrw4ysTSfyIpn8wcRtnsTlm1WDt2sTvW71v/AIV6mPxU/l2cHE2fRfntzD2sDmG1+KvZfRux+z00zTrTT2a708F26SboKx2f9G+AyLaO7m2FxVXqptRbpw80ezpG7rNWv9eD89tPR3TtRmuEx39qV4SvD2pt06W97XWre4cYWhNGumsROid2QUf/AHT5trVptrjYnTnufL+ZZuzOS38kyujBXswuYuqmqZ9dXGk8eP5ukimSYnkCntovRNgcwzO5meXZhcy7FXKpqqqpjejen+XSY017Wp/ujzTH3aIzrazE4uxTVTPqqqeenHtqn5L3ingiKZ1/1BqspyjAZPgbOCwGHptWLdOlNMR+vfLi8m2Bt5Ztjjtoacwm5OJm5M2PV6bvrNI9rWeWiyNydNNITuzrr+moMapnSrSePk4HY/Ye3s1j81xNOMqvzja6app3N2KN3XhrrPvWDuomjh9wZUzrDC9RFdq5RrP4qZjh+caP0iJJjWNAfP0+g6mL965a2hu2vWVTMxTZ4x/9zKn0LXY0mNqr8Trzm1/8l+7qdJBodnMoryfKMLl9eKrxE2aYp9bVGk1RHv5uU2w9G2TbSVxiKqqsNi4jT11Hb4o4arIinu4m6D58o9DWb062f9q70YeauNMWp5f/AFLJ2Q2EyfZemuvDRcu4m5Gl2/XxmqOelPuh3e7Huhjuzr2d4KLzT0MUZhm2KzH+3rlu5dv13Y0tazRva8p3o5a8Hn/uTvaf96MRPOf+F/8AJftNMxCZiZBWOxewd3ZjHYi/VnN3GRdsRbiiqjd3Zid7XnKz45Qw3Z04+9+gAAAAAAAAAAAAAAAAAAAAAAAAAAAAAAAAAAAAAAAAAAAAAAAAAAAAAAAAAAAAAAAAAAAAAAAAAAAAAAAAAAAAAAAAAAAAAAAAAAAAAAAAAAAAAAAAAAAAAAAAAAP/2Q==;" parent="1" vertex="1">
          <mxGeometry x="514" y="234" width="102.93" height="58" as="geometry" />
        </mxCell>
        <mxCell id="PnPkqlYFe4MIE_lKeHhR-36" style="edgeStyle=orthogonalEdgeStyle;rounded=0;orthogonalLoop=1;jettySize=auto;html=1;entryX=0;entryY=0.5;entryDx=0;entryDy=0;strokeColor=#FF0000;strokeWidth=2;" edge="1" parent="1" source="wLGBiTn9vYruEYs-nZDu-12" target="wLGBiTn9vYruEYs-nZDu-21">
          <mxGeometry relative="1" as="geometry" />
        </mxCell>
        <mxCell id="wLGBiTn9vYruEYs-nZDu-12" value="" style="shape=image;imageAspect=0;aspect=fixed;verticalLabelPosition=bottom;verticalAlign=top;image=data:image/png,iVBORw0KGgoAAAANSUhEUgAAAOEAAADhCAMAAAAJbSJIAAAA0lBMVEX1hTb///+dUCX1fyb0exj++PX6zLT1hDP5hzeYTST1gzH1gi70fBz1gCr1fyedTySXQACWPgD95df2jEP2lVX96d2bTB3sgDT838/4q3z+9O76waH828iXQwWZRhH5vJn4soi0XimsWSjGaS371sH+9fD3oWz97eP6x6v3nGL2j0r5uZTadTHr3df3pHH4qXndxrzTtqrNbS6vdVnheTLGn43n19Dodh/SaBa6inTWu6+kXTjFnYurbU68jXj0dADuybbGXxCmSwOzWR2mY0C1gGdpXPjhAAAQQUlEQVR4nO2deXuiOhvGZRNkEawWtSraauvS2tr1nLYzfc8y/f5f6Q0okEACCRLFc8391ywu/MyTZ0sINeG/rtqxL4C7fhOevn4Tnr4ORngxn5/1Zr6Gw975fH59qC/mTXh9Vh9PbtpNyQSSQgV/0Vc3k8XwXOF8BRwJ57PbZRuQWJau1jBSdcMC5NLqZjyb87sMPoRKb9yRARseLUlqWJIpr8Y9PqPJgfBs3JFMS6dgg6VbptQZnJV/OSUTKrN+ATqI0poMSx7KMgmV+k1TMgrShTIk635WJmR5hL2+uTdeCGn2e6VdV0mEyqJmloO3gzRrg4tyLq0UwvO+2aTxmixSm+ZDKX6nBMJhp9Thi2WYnWEFCOtts6jrzJdututHJqyrUtnmiUqVansy7kU4a3Pm2zK2Z0ciPOuY/PkCRrOzh88pTKj0Oc6/pHTzvnC1VZSwLlkH4/NlmIuDEs470kH5fEnt88MRjg9ooLF0c3wgwvnq8AO4lbQqMIzshIujDOBWRYaRlVBZmkfj8yV1WJ0qI2FP55OC0suQGHNVNsKBfJgYnyVVZrNUJsKb41poKOmGE+FF+7BBniyrzVAd0xOeG8fzoUnpBn2iSk04PFCaTSfVpK43aAnr8rGhEpJp81RKwkHVAGs1c1Am4bh6gGAUb8sjvK1GlEjKnJRFWFFAgEgzihSElQWkQ8wnHFQXkMrd5BJWLkygknN7jXmEw2oDAsS8NZwcwvMqm+hWZs4KeTahUqtSqoaXXstebcwm7By73qWR0SlOOGke++qp1OwXJazvNwlV3TAsyzCoNmTspcxucQbheWE3qhpN0zTanfv+ZNJ/WLYNyZQMnpxyRpeRTFjUy+hNs/awOEOq8Iuzer8tN7mV0GrGQJH/675Iz0KVpOWC4L7ni6UkcYK0HtgJi0xCw2wvMjso1/WOzMc9m8TchkR4wd65N8x7ij0i532TS0NLIv20JMIl60+tyzeU2+8u+jzG0ViyETLbKNMy7XzJoa1FslM84TWjjRoS43aCoV66qaoWPnvDE96zmZG0ZF+D7pee0xP8KZawx/TtqkzZ9UJVL91STayjwxK2WaKWbhXcKHFeK9nhqG1awgXLLNRrWDd9PRtMOu2abujt5WTRw1qxsip5Mkq4/BRDqFgM5mO0MfP7fLySJQuk3OCDVFW3mpLcGeBiSadcRNXAXAyG8JbhazGAyqCN2SUMstX2Iv39JSM2Mb23NOE1Q0mRrq+ViUTaiKlKVvoCVuXORTn9I6YJJ/Q/q2ok5+BAzny3lZopSq3UXNxKt8FThBcMkUJOeNHzdq6PkjqJ+Tgvd+uKmfJ7KUKGIUyW1gOZYjz05LLYrNR+ZXoQk4QK/RAaieV02lV+M9FWCX5T/7YSKbhxqPC9DLtPT87EJOGYeggTeSBDcGsmyoC2bpm1/qA+PJvPh/XbG8lkiVfJD0/u1EgS0rdTErl8m8EpWmj/70wdo32W3sQo3AxQ9WzCOvW819GBYOusWtktTv9CVkXT1mSZkyBcUf90aHvrhjFyW/d5iEK9Viwb0FdZhGfUfsZASpUBs8unWBZT7osVWCYaw1BC+lAhw2HtrIDDz10zEoq2pA3UV6OE1F18NFIU6axmtTgjFVvbQwMG8j0zamNDis3bQssbuCw5JbZafCfU1yCES1o/g9SaLHkerHSChVGRjAd18zDhNfWlWrCf6BcsD6zMJaNQ4wJ5K/LbwYT0wRD2M/PCLSU5MYjK+flFuvqhNqxYiJnChDeFjJSlYEaFZMlntyuQlsry6jaxjjRnt1PETCFChfqjkEp2j1XU2JrOl/IuF9UtuYMyFvgJ4UIYIqT3pPBW6+Eefc9oECdI3aWj7UnW9rR/gdDeTIiQ3mNI0E/EUE+mJQc9uJ6a/Ay0wGL/CjjoQ4Rt2ritwpkf9btwCsy9j8mxke1c7FteYEcRE9L7RANKm4sGw50kZZgawEBIg4T9V4Q22cSEC2qXYUFF5nC/Nou+ItyjiVQI7GYKxYuY8IF+GkLhhv53wYs4OibkzXq6zHirP1T6xIT01T3sSvdyNJTX6E8G/7gGhtCvGmnCC+poaPwPmiP0I8+oVO2hzDo0vbyd4nwp+hzaaKib93BpSJ0HMUtOr+acLanvm4vtLCKkbLJJbbSCLpA1UsrE7QLq5fect4prg4iQajD0VPOBH6GEbwIs6KajHpXoESFNzLHSt+JyJCTchTdf0bjvOOaHhDS9btw9YxwJiZsfJjROMWplhIQUXTbs7Q38CJvkDYcLCsSo4xYS5rtS/M5/foRWRr9xmH+nZ1RehISDPFcq4QCV2V6Jd6b0znhQn/Xw57nld6iiHygkzMtNmunNKmeDjsnz5A/dsvzD62T1BrMHILfPGNWeIWGOtaX3Utdxq/VcpOpNc5VyO3nd4qiTERJmN3XVZiLBOMi5LZB0qZa8pXKS7TmicBESZr9cRmOTsjz8Pd2qmVwfz9k+2WQhTOwYmxtHuUlBT6yq5xTfYaulRvPqJuLPeke7I1hGI3J2fzds5O0IM1sYTSQyUcQibpJQY+pkubqwkbEjzGz2SPCnFllJK0/SPfW1hLXJjjAraUOGUOF630S+JMRQs2JcuDy2I+xlmDTcHWXf/122kA0SWalNWJvsCDNaZkjDZHb8u/WQ1eeMfQf0hEidVoG79XQ4vcpo9YWp944ww/HCfoZpby0vwQdGZGykDOvLHeFfxEtHjLQCQ5hY2yMHDGpCuNSm34zCVXCzmNxAk/6iJIRbXtzav2yCzYrsQKgJ4f15qyoYKVDc0M5IN2kJYaOn38nAWZBdKeR5SEkIL4kX2tzCQ8gSL8muEoQfJELY5umXwTkLbsMRY770QUkIrRfT70bhLLgNRwwXCcLNf5BwgxL+QXgdTFgdK6Uh/AMlfPtTw78OXrPfc0W7PMFZCCmCaX+80RHCvrTA7iQ+gvfIknyp9idKuP6bQIgkgfwa3GyCIr5Csivt7zUdIVL/Ft/CVqpg30BMlZOEF/+QCOG9svRr/VwF18DEAlH7B+21KSPSx8GbZ6qReiPdW3KnZoT2SwWvS3ghMhEV9fgzUYXnDXk/ZdcTUMLGC8lMkRsrese3UxlewCAb6UsjQfj8RCJEN/fTLL9yFbpXgujdtafnBOHXvyTCxIkTRz4jEj0skdz60/79ShC+ekTCxI7zxTHPEk6cIUwO0Jr3miDcjEiuJnWr6LCkB+awy5DQRcSMm5G6o02CcN26Iw6inriT/5rHwR35Us0Ourk/YzlJu2utE4RKa0okrDWT+0xmtcMuAdeCh5UkV4Ezjn7Qpq3kfhrh84pMWEuf2ltvc3p8Dl7+6UXJS3jISD+0q8/wZRHhs0ueiNhtdL2+f4IX96PKVN0/OAzzhKtxVteo64bBIiZ89Z6yvge7U3C+eOi0DUnmJ/9MtIcF7ruzA/Nd5Epjws3oMsNMwTQgHYmm8BXhWxeZfT/tMnKl0B7hViPrPWAUy3sU2v6a5DQ2G630HmHBa5DjRSDqE7S5S1lm91O0u4YXvTgm/HYz4kUg84b3M0PpNLRy3Lh26b5Hr44JHz0x+30gf1P3erZUOVJw99gkJHqP0etjwrWTZ6b+ZFwWe2BPeaobuVU4MFJnHb0B2vMv2pnedCtdfuD43NdcUe2n0y5tMX4LRPjuZnvTnQzznsPzUKlUp9wv2ICmIUy4GTWIZXCCsTY4uLEqsweZjk97asTREL2HtCVm5aawVMts9+sHo7wYjpf0z3DVrsQW/h5SkJqSuzVpSEMy5fbNZLyoc9RiMHnoSDLLoTXaSyNOShOEH55I4WsQzODB0xzVtCzWh79ol+Log0B47diNrALjNNRt2M41gdA307y8pvLSpqiRooSbkUgVMCqthgh70gShMrJPfRDBENojgUgofLlibnJacYmi+5VBuHbE0x5EMIQilJOmCYVf7onPxIbo/hKyCD9GJz2I/hAiwTBNKLi2eMIxsdsQbVvIJnz1RNbEpjoC6YwYN9kIhIoDBpE+O62UQEYq2k7euYnCDzCI9okS2mAIfySBUoTXI/tEnY3vZtCUFE8ofIFBPElnA9yM6H2leNKEoBAWqUvhCgkUviJS+hIJA3dK2c+okLSnBsaR4gkVzz5BO/Vt1HbpzvMWHkenZ6eBjY4eMTTY8xk/QYlxWv7U96Oi+4mDwRK++c6m8XLsy2YQiPWi6LxREwrvwNmcVKXoX673jmXBE4JiHwziyUzFYBLaHsszSoQPRzydqRhMQtH5wKOQToJ9dn3E3MWoKiiIhCLaYKMg9NNT8SSqDC3wMvaI9Kgb4mm+G99ORbFbdUStG1ynsyGBkM8r/g78qX1sglzZgR/9JnJknMgsBlOx6g7Vd6PgSskYGYRrP+5XHFG78ieh2FqTMbJO1X4MpmKjwm0b7XILiMtHaQh3qU11EXeAmLKXltBvEFcYcQeYbAEzESquXV3E3Rx0xX2eBwy8zRbx6tg4GG0BbSfDy1AQgkIqRKzWMGohYAtbMjEQCh9BzBAb1cputK4dAIotQr7NQCg8bhFFsUI5qvayu6bMOEFLKPzYZqgVqjS0u+0Aik6qw12IMEasSL24rQcpAakIha8QsQouNfQxlIB0hMKP3VxsHH8yRlNQbGHav4UJY3dzbEuNLJQWkJYQBA07tNQjhg2tG1qonR8mGAmFTYh4xDWNbUdmm8nkBXp2QuHNc0PEy6MMYzyAouvmpGqFCIXrT0+Mh/HQjFo8gKL3yfCEZQZCQfh2IsSrAztV7SUaQNEhN2X2JRReo8kITPWAubhWu4z4bFonWogQmoxiozE9EKNWe2pEgK5H7WMKEQrKz5EYMdqHmI5gAtoRnzj6yXrfDishsFTHhRjvOI8jyuc6bBZajFBYxz41GEeOjMA+IT7gQ+mDxD6EfprqQoyNaZePsWrdqQjxuXSZdimEwvqXY8OMly+lM2pa97IB8dnOrwIDWJjQ380AmaofH4GxlgcJPurpCuYDA5hfzZdLKChfsKmGA1kGJPiQO2T4fL73wrc+FiYEpvoTNlUfUpzuDQnef3cpInii2/pZzED3JQT1xmeSEYzkXbcoJXhf1x89lA9MQOLaIHdCwCg6iK0GlFfTlxorpf/6l+lVgs63T3Evvr0Jg3FMMvpDeTW969L5Hs2H6975dEk8wPe5J18JhIDxV5oxoLQBZjCaACEFq+3UfXmaXokYOtEG829vvlIIQT7+7Xh2GjLAbIhXl9Onu7uXbjfeDAj+/HL3NJ1e+gOHgfP5POdrD/8SqxRCUB0/ggmJhQxBtyS2baP/gJftOvZjSbfGl0QI9PbujMiQDAJ43hdjiZSh8ghBErD59vaFtN2R913C7ItVJqHgQ747jleQ0nY9MHqbkg9uKJnQ1/r12WOmDOieX8szzkgcCIGUt8dvpzWiwwRwo5bz/PjG59QNPoSB1pvX50/HGXme69ppVNt2Xc8bOc7n8+umlLiAF0fCQMp68/j6/lMEJL5GvnZ/FH++vz5u1rzPS+FNGEm5WK/f3ja+3t7Wa8wjxjnpYIRH02/C09dvwtPXf5/w/9mRQ8Hfa0XwAAAAAElFTkSuQmCC;" parent="1" vertex="1">
          <mxGeometry x="17.5" y="316.5" width="55" height="55" as="geometry" />
        </mxCell>
        <mxCell id="wLGBiTn9vYruEYs-nZDu-17" value="&lt;font style=&quot;font-size: 12px;&quot;&gt;Intenet Gateway&lt;/font&gt;" style="text;strokeColor=none;fillColor=none;html=1;align=center;verticalAlign=middle;whiteSpace=wrap;rounded=0;fontSize=16;" parent="1" vertex="1">
          <mxGeometry x="8" y="372.75" width="74" height="30" as="geometry" />
        </mxCell>
        <mxCell id="PnPkqlYFe4MIE_lKeHhR-7" style="edgeStyle=orthogonalEdgeStyle;rounded=0;orthogonalLoop=1;jettySize=auto;html=1;entryX=0;entryY=0.5;entryDx=0;entryDy=0;strokeColor=#FF0000;strokeWidth=2;" edge="1" parent="1" source="wLGBiTn9vYruEYs-nZDu-21" target="PnPkqlYFe4MIE_lKeHhR-5">
          <mxGeometry relative="1" as="geometry" />
        </mxCell>
        <mxCell id="PnPkqlYFe4MIE_lKeHhR-8" style="edgeStyle=orthogonalEdgeStyle;rounded=0;orthogonalLoop=1;jettySize=auto;html=1;entryX=0;entryY=0.5;entryDx=0;entryDy=0;strokeColor=#FF0000;strokeWidth=2;" edge="1" parent="1" source="wLGBiTn9vYruEYs-nZDu-21" target="wLGBiTn9vYruEYs-nZDu-11">
          <mxGeometry relative="1" as="geometry" />
        </mxCell>
        <mxCell id="wLGBiTn9vYruEYs-nZDu-21" value="" style="shape=image;imageAspect=0;aspect=fixed;verticalLabelPosition=bottom;verticalAlign=top;image=data:image/png,iVBORw0KGgoAAAANSUhEUgAAAOEAAADhCAMAAAAJbSJIAAAAz1BMVEX1hTb///+dUCX1hDL1gCr1gS32j030ehT0exr4rYD2jUf5vJr+9O/5hzf//Pr1fiP5uZX6xaf84dL71sP3nGT/+fSdTyT828n70r396t34pnT5tIz4rYT97+eXQACXTCT1ij/sgDSaShqZRhG0XimsWSjGaS3adTHr3deWPQD3oWzcxrz07enTtqrcdjHNbS6vdVnGn43n19D7zbPodh/SaBa6inTWu6+kXTjFnYurbU68jXj2l1rz18nZxr/GXxCmSwOzWR30cgCmY0C1gGf0v3nCAAAMmUlEQVR4nO3d+1+iShsA8GHURA3ZLOm2goKaplnpOW1bnT2X+v//pne43waYGWAA331+2k+LwLdn7owEhGMPUPUNlB6/hc2P38LmBy/h8HQyGV2eX11dnV9ejq4nk1NOFy5deDo6DL5fTNuyLIuyF6L579bJ/e3Z+fW45DsoUTi5+nYxRZR2p9MCuGh1Om3k7t8Pzifl3UY5wvFocNIV5TZeFoMiZ/dkMConmyUIR4OPNiEu6EQF+WMwKv52ChYOz3uySK3zlWL7++Ww2FsqUjg83LflDqPOjY7cvrkqElmccNSTc/NcpNwrrrgWJByfgYJ4LhKcFdRjFiK87tG3LFmB6uRNIYksQHj+IRaZPj864sl5DYSHvlx0+vxoyf2rioWHVok+2wgOFQrPp3KpPDvkaa6ymkM4+hDLzZ8bLfEkR5vDLBz3OPls4w1z38EqPBTa/WVHRz7jKpx88KiA4ZD71/yEA44F1I+WOOAkvO6nJrAj5onUss+URnrhWXoCO7fjU/YY36YSWdJIKxxfZNTA9jfqewjGt3b66eUP2kaVUjhqZTWhJQtRo3pJd0Y64aCbcf3yhQB06UoqlfCeoI8oXwjke5ozUghP+wRX5yEE7T5FZSQXXieselYgBK0O+UCVWHhJOE3iIkTdBvF8g1R4yG5jeApRe0M6bSQUnomEF+YmBKSdP5lwQAzkJwQi2ZWIhN/IgRyFQL4tSnhLAeQpBCIJkUBIk0G+QiATXCxbSFEHuQuBmD3zzxQe6ICchUDM7DSyhJek/WBFQtDNmmpkCK8pM8hfCOSMJ+TpwjGgXpDhLmyB9Kfj6cIP+iVD7kLQ+WAX9ugvV4EQtHusQtpmtCpheoOaIrymbUYrE4JuyipjsnBI38pUJmxNk/c2JAtvmK5VjRC0b+iFTJWwMiEQE58VJwlPWR+9VCQEctLiVJLwgvXhWVXCzgWd8MD89KwqIZATugy8cMz+eLAyIWjjR2944Q37A97qhB18e4oVjhjb0WqFQMQuE2OF0xyPeCsUtqakwrM8D+krFALsbgaMcJjnIpUKQQczeMMI812kUiHu4nHhmGlK4V+EacOEF4NcQiDGe4y48HvOrUCt5JDtqWpPTjkm38Xb8TXimHBS4l6g9nf7d5gvT6kRH57GhLclXr7zvZBSkhbxJEaF4xydfWZwEAI5WhOjwpw1PT14CGMtXUQ4LHXHIQ8haKUL2WdNJMFFGJ1FRYT9Ujcd8snhSZowz6SCILgIo1OMsLDka/MRdnopwjIbUsBLCORhovCq5L3NvISHRCHzAhthcBK2LpKEzGukpMFJGB6cBoXldoaAo/CQICy7kHIThlaHA8KcU1+SK3MSgu4YKyy7JeUolM+xwl7pF+YmDHb6ASHjKmmHPLxVDOJPMA6TgyunvnDCNibt3PTIw17PPCP/wD0jUbzGCA9sQ7bE53aFxIixbQj0F76Q8WlM1pakfHHJKAxURF/IWP3rmUPQiQtPGaeGNRWKXtHyhOesJb6eQv/bUZ6QdZHNrocT0C84WvmE/pKbJ7xnrYe2sJuyUM8UXeuuWFsa0LmPCVmfijrCwhd4cgr9Pt8VMu9NqKnQX/t2hexVuqZCb1TjCpknFnUVylcR4RnzbquaCttnEWH6d6hToq7Czm1EeMG6nF9Xobfg5gqnrGeqrXAaEbLX6JoKQTssHB6f0F3bd4Tsi8H1FU5CQvYdGE0R0n+/KXyiGgrdQY0jZB601VcojwoSirUVXoaEhGeaWhGax7nC0A/t48jvBnNeRxg6L6A5bURItobhJH4YCiHpZ+SDeXFIc17C7Yvuyj6LkDDIhV2a0zZTSPVGVjYhWT1sljBcD8na0maV0hzCb4OsoBTaO3snmee1H0YQ7g+N9Id/kQmtX8tQbGcFrdBaVb7uZpzVeXsS4WRd/otZSLCviE2YNWpwvhTDJtwcoXDzfyb8dYTCX2HhH0QfapLwj4jwT4ngQ00SShHh/viEf+5DwtXfRyf8exUSbo9QuA0L/zk64T9h4VAl+VSThEANr5cKxozgQ00SzgwhLNR2BMW0QUJpp0WET49HJnx8igjf/z0y4b/vEeGzcWRC4zki3JA0NQ0SzoxNRLha32UnsTlC6U5dRYRjdYkXtrt+/Gct0A3/C/zIuysx8EN7ZekQPC72W5GD57WFwePd304reJj94LoXPC7h4by0dLtDf0/U6wIrbGe8etHd0ihmLAhGt81lLds5y5utfvphSfsPpMWre4QnfNKxFTFL6D6SwXwRPhTRJcAs4Xk+4Ux3Owtf+Gw8HpHwzmtKfeHGmOOKaTOF0txrSn3hdq0dUQ619TYmFAzs0LSRQjQoNbwjfOGXjusvmimc6y8Y4YMBMQc3Ugig8YARrlQNM6xpohAVUm9EE/reE1QwrWkjhXMF+kcEhC86pjVtohBogWoYFG5ULT4NbqBQetTUjX9E8DukaxgfmzZRuIDrwCg5+D3gJz3eJTZPiNoZf1AqhIU/DBhraxoonEPjR+CIoHCrKlp0gtE84UxT1G3giNA7FZ50GB3XNE4oLWGokIaFP1QY7TAaJwQaDLakEeEQFdNIEpsmlJaokCa/20R412FkcNo0IYBQfw8dERauUDENJ7FhQpRCGBiTmhF5T9SnEqmJDROiWqh8ho+ICFFbE25OmyVEDSlUf4SPiL6RTkdJDPaJzRLOUAqVyBFR4bMBQwObRgnRcAb6i2xORIWow4DB0WmThGhEChU1672Jwk+URKWhQgWl8Gf0iJhwaybRb2waJDR7ivCQ1Ir4O2jfURL9xqZBQtTMQOM9dgTmPcJrCP2pMPGTmYw7iT2ZyfjbxfRPZtDEF4amvk7EhVZz6q9nTE/Sw7lCK+OwKYhEP/34vntcxnn9MvqoYRpSvHBoKMFymvHuA8rD/CA8nvS8ZhlVdLL3eQsParCcNiOsMqo+YDQ4ofBqJjHhmXA9w2xHofKKw2CFe7Ox0XZV3zZFoL4epXBPLBRe0DwxOlOsdZi3G1wGzhSOrcamMVXRqoSKgd9KgBdas6jGVEWrEsZmTRlCc9kNEQn22FQfVk8YWWAjEJrDUwiJdixWHJLVymAGpBlCYWOWUwhndSdKM+s+wyuIRELhyzA/qVQtyAyzrEHjK9GRLBSgVU7r3qAurDxAlr+dJ6zWVv5rTbT6CTSlWCUzUoT2+BRq2J1E9QhprllA3HiURCi8GPUmOkDMtJdUKHzqdSY6QP0z1ZAuHCtKfYnSQrNbmTx/Dxi1NjZxUTUHEw4wsasnE6KJlGK3qKBeaZTsbgIqa+yUiUIo/LD7DK1eoxtppmh2P5Ew3qYQCg82EcIajVGlnXNPqf0EqVD4aY9QazTTkO7sBEI1tsLNJPSJNZkv2vNBQiCRUHh3iXVoUiWnESUEkgmFn05d1KqvjF4VhGvM8i+z0G9uqi6pXgklBZIKUaehuCW1wm5DmrklVMnuJiiFwsYlQsweTV7ARzeBCn5tNJdQ2Bu6S5xXkkY/gVDXUyaEzEJh+2pAP428jZKfQGi8ZoxFGYWC8KV6RN61Udp5CYTqF817paiEwrNXGVFR5TgWl8Dc8ymkjSiTMFAZzY6Dk1ECfgGFukHcxjAJhe2b6hMVHtURVUDFB6pvFFWQSYhKqhpIo3JXch7DPkWlK6FsQmHlt6lWHks0ovIZ8KE2lLyTyCM0h6lKwAiXs3IKqzRbwoBPJxtpFyIUVp9q0KjNd4UbJWk21wI+Rf1kSCCz0PymW6Comv0jKqzFIdGpHhdBH0pg9my+WKEwfF/rIaOVyCKQ6CS7UPpM30vGnqsShKiovgWLql0jcyPR53dzGOKhPv6NrYDmFaL5xmvUqMH53YxViT43u0PZi/jUz195bjKXEBlhxGgqF8sdoFWax++Wi4jO9MHEZ59chJg8usq7GVnbI5m42R1GZ9a/15y+AoTI+BkY5QSVisM0CTGs5MRs97hcQIwOKvr6LbevECEaj3+pRjyRNlODi/ny8W63m838HfLo37u7x+VyjhIXrXeuz1Dfc7QvfhQiRAPyB6jqeKQDtSGK8zBLS5Q56VOVB9ohdkIUJESxf1HTkOSBeMY75RQpJYoTokHA5svIizR5XwXUPj+KFAomEmXSYFQquoGyt6F69XV2FCw0Y/X8ZFArLd3Tc3GF04sShCiG+4cvdU3INHFr9elhX3DynChHaMV28/z0qqJCi6BKnIp+phsG+v/Xp+dNQe0mLkoUWjFc/Xp4fnmDJiUcBnx7eX74tSonc36ULfRivN2u9vuNGfv9artlng3RBjdhZfFb2Pz4LWx+HL/wf+Zoe2WMDnOdAAAAAElFTkSuQmCC;" parent="1" vertex="1">
          <mxGeometry x="261" y="314.25" width="58.5" height="58.5" as="geometry" />
        </mxCell>
        <mxCell id="wLGBiTn9vYruEYs-nZDu-22" value="&lt;font style=&quot;font-size: 12px;&quot;&gt;Load Balancer&lt;/font&gt;" style="text;strokeColor=none;fillColor=none;html=1;align=center;verticalAlign=middle;whiteSpace=wrap;rounded=0;fontSize=16;" parent="1" vertex="1">
          <mxGeometry x="243.75" y="371.5" width="93" height="30" as="geometry" />
        </mxCell>
        <mxCell id="PnPkqlYFe4MIE_lKeHhR-30" style="edgeStyle=orthogonalEdgeStyle;rounded=0;orthogonalLoop=1;jettySize=auto;html=1;entryX=0;entryY=0.5;entryDx=0;entryDy=0;strokeColor=#FF0000;strokeWidth=2;" edge="1" parent="1" source="wLGBiTn9vYruEYs-nZDu-24" target="PnPkqlYFe4MIE_lKeHhR-28">
          <mxGeometry relative="1" as="geometry" />
        </mxCell>
        <mxCell id="wLGBiTn9vYruEYs-nZDu-26" value="" style="endArrow=classic;html=1;rounded=0;fontSize=12;startSize=8;endSize=8;curved=1;entryX=0;entryY=0.5;entryDx=0;entryDy=0;exitX=1;exitY=0.5;exitDx=0;exitDy=0;strokeColor=#FF0000;strokeWidth=2;" parent="1" source="wLGBiTn9vYruEYs-nZDu-2" target="wLGBiTn9vYruEYs-nZDu-24" edge="1">
          <mxGeometry width="50" height="50" relative="1" as="geometry">
            <mxPoint x="-399.99999999999994" y="354" as="sourcePoint" />
            <mxPoint x="-349.99999999999994" y="304" as="targetPoint" />
          </mxGeometry>
        </mxCell>
        <mxCell id="wLGBiTn9vYruEYs-nZDu-30" value="&lt;span style=&quot;font-size: 12px;&quot;&gt;http://ylslc.org&lt;/span&gt;" style="text;strokeColor=none;fillColor=none;html=1;align=center;verticalAlign=middle;whiteSpace=wrap;rounded=0;fontSize=16;" parent="1" vertex="1">
          <mxGeometry x="-568.94" y="311" width="91" height="30" as="geometry" />
        </mxCell>
        <mxCell id="PnPkqlYFe4MIE_lKeHhR-26" style="edgeStyle=orthogonalEdgeStyle;rounded=0;orthogonalLoop=1;jettySize=auto;html=1;entryX=0.5;entryY=1;entryDx=0;entryDy=0;" edge="1" parent="1" source="wLGBiTn9vYruEYs-nZDu-32" target="wLGBiTn9vYruEYs-nZDu-37">
          <mxGeometry relative="1" as="geometry" />
        </mxCell>
        <mxCell id="wLGBiTn9vYruEYs-nZDu-32" value="" style="shape=image;imageAspect=0;aspect=fixed;verticalLabelPosition=bottom;verticalAlign=top;image=data:image/png,iVBORw0KGgoAAAANSUhEUgAAASwAAAEsCAMAAABOo35HAAAC/VBMVEXdLTTiMTfeLTTmNjvrPEDxQkX1R0n5S038T1DuNTnoMTfqMTfrMznrNjvtNzzvOj7xODzyOj7wPUD1PEL3QET6Q0f9Rkn/Skz/Tk/+UFD/UlPeLTTfLjXfLzXgLzbgMDbhMDbhMDfhMTfiMTfiMTjjMjjjMznkMznkNDnlNDrlNTrlNTvmNjvmNjznNzznOD3oOD3oOT7pOT7pOj7qOj7qOj/qOz/rOz/rO0DrPEDsPEDsPUHtPUHtPkLuP0LuP0PvQEPvQETwQUTxQkXxQ0byQ0byREbzREfzRUf0RUj0Rkj1Rkn1R0n2SEr3SUv4Skv5S0z6TE37TU77Tk78Tk/8T0/lLTTdLDPdKzPZKDDcKzLcKjLbKjLjKzLbKjHbKTHaKTHaKTDaKDDZKDDZJy/gKDDdJS3cISndIirfJCvhJi3jKC/lKzHoLjPrMTbVIyzYJi/dKDDfUlnsfoLwg4b0iIr3i43pYWbulJj98/T////+9vbxo6baHyfoeX75zM77z9DyQEPdMTj72dr829zzSUzYJi751tfpam/pbnPtc3fyd3r1e37XJi72yMrXJS7XJS3WJC3aIyzWJCzaLTXgLDPkMDbjR03gP0boTVLsUlbxV1r++vr97/D+8fH//PzVIyz74eLpiY7sjpLxkZX0lZj2mJr86OnVIiv0xcjXHCXUIivvRUnXISnUISrxrrHTISrkOD7mO0HWLDTthYnPHCbTICr209XiOT/SICrSICn1vL7lVFrSHyniNTzRHynRHyjRHijaGyPWKDHkZ23sQUbQHijoPULQHSfhWV/PHSfWGiPPHCbUJi/OGybRGiTdNj7OGyXqP0PUGiTNGiTskZXdTFPHFB/NGSTMGSPRFB/QIizLGCPkdnzgY2rTFyHLFiHOFyHKFiLJFiHJFSHYPETIFSDIFCDOHynOEh3HEx/GEh7LHCfMEBvFER7FEB3ACxnEEBzHCRbKDBncX2bDDxzeb3bDDhvhcnnCDRrACxi/Che+CRe+CRa/BRVPb3iYAAAA/3RSTlN4r6+vr6+vr6///////////////////////////////////////////////////////////////////////////////////////////////////////////6////////////////////////////+v////////////////////////////////////////////////////////////////////////////////////////////r////////////////////////////////////////////6////////////////////////////////+v/////////////////7T2SDQEAAAboUlEQVR4AZTGgwEAUQwD0LRnm/vveTY+XpEAxD9IxtBh6rF02EdR4PxxZQD2/G9BEL5Fk/gtSZNdtucmz4pP5fJeqnlmez7UXxqxVqC76CVcsD8SUw9GEARREIbTONu2bRv5Z3Kvq8+cOu33NoK/dtoIJjKbLWS1Wm02u93uEE6n0wVu4QGv10d+fwCCwRCFw+EIRaOxvXg8AclkKpWGTCabzeVyeVEoFIpUKpWpAlWoQV00qEmtVps6nU4XeqLf7w9oOBzR+GhyMKUZzY8WtBSr1Wp9cFOQsW5qwaEWqNSis1rRN2oJlVp0qAU/qYU7i8ZYl7XMZ7VsyrWCb9QSZ7VKyrVa/6qll8+wNuhx57Her+V/q1ZW21r0vBZzrQ1rSaVnrA1TPdqtm1hv7FactZJv7Vb9+W7dxlKvdRvr/kvc/1yItVWs5fy41s9Wvvfxyi927NfBUcMwEEbhIy1g+goTwIQYQv8tIPnNcNhJ/G8BTwcV8M1qn313tpBaxjUmC6y7WjaxjNYC1mMtm4jVvF/Aqlo2sbxEZgusomUTq9Y44wKraNnEqrW/whNYh1o2kVd4YrLOx1o2kX+eOVlvr+ekZRPZWRPrHS2bGL4gwApaNrFg5b1lE8FqadlEsOaJWjYRrKRlEyuWTQxaYH1ELZtYsGxiaiJYHS2bCNaKlk0Me2tifa5DK+8tm7hjXVpaNhGslpZN/Mda45a3iTvWV0vLJoI1tC5raqJNBAstmxi0FrDGiVo2cXkaWNeOlk2sWDaRc4TV0bKJYG1ohSbaRLC2K1w28UgLrG+0bGLQAmtobVHLJoI1tdKWt4lg/bS0bCJYaNnEoAUWWjYxaD2DNblsYtAC64ZWaKJNBGtqxS1vE8FqadlEsNCyiUFrYv3e0Prj5i4S24qhKAyPyszdTJkXEGZmZmZmLgfKWWXfs3Iq9Rp0lKL0Bzz/BrrPkmxqJuZW1xxVi+qSqxc1yBobGmXZ2dlN6WpO1fmjzqTrcnJXfu7aCxetCKulqlVpMTOxraa9w6HOzs7479h1qR/1j62br+faMwcthaW0iJlYUNDb1x9QA4NPHLQUltIiVvmh4f7A6r7Cr1vA4rTaqkdCwxode8ZqAQtalpnYNj4RGtbk1DN2JiqsaamVPBOBNRMiFqulsKBlm4nlIWI9oZ+3FBa0bDMxZCxC6/bJGAtallVeY03Mzs7xzR+3BbcWXZrUWJQWsJZILY21PDQ0VFNje5avj3/i6jI9y5vJZ3m8orNnoyf3c4lSPMufwY/o4sXLyY0Aa4x85wMsaNlmosbKbfP7feLYk1GNRWkBawVatpkosDzeOx17pLHI/S1gQcs2EysFlqd7pxKL1AIWtCwzUWMVFHi8dyqxWC2NxazyBlabx3unqbFsWsCKY7RMLJ/3TgUWtRsIrFVSq9jE8nvv1MQi906BBS3bTDSx/D5PfGhgcWc+wFqDlm0mmlh+nycKLEYLWNCyzcR1A8vv88QxgUVpAUtpWWaiwPL2PFFgkeeJwIKWZZUXWD6fJ4491Fj0eeIthRXFaGmskjaPzxMFFn2eCCxKqzQZy8uZKLCoexDAqlZYxEw0sby+YyOwGC1gbZBaZdObwFofWkfVMtTW1laVqq2oIlG20bbsbHLi655l8pufZVevXDGxCC2BZZ+JGmt05+WOc6/ce+3SG6dmBJZ1JgILWraZuA6st+/+o97jx6ldjUXdsQHWHrRsqzywwglYxB0bYEVaxLoVNBaxbgGL0IoLE4u9SQksQitYrKuPSS1gxVrETFwNEou+d6qx9oiZGCgWc+9UYNlnosbaPzj44NTHX+yTW5/tfdFY1L1TYH2Flm3d+oH17fBwKFU1OnlWXZv4Map3OqbOTvxLee/0rApH1edwRG12JqkRjcV9FgNYrNY6sJbLK/3+LMbd+9+puw/eNpK7DeDvm957d7fh0/Xe28ewCLjBirRcUml7MkAJ4lpukCkF0Cn0sQhuoX0JLV4o3Z3VLqQb46bQieXrvX2SrEY7/P+H8poPObsAtMl11x9G8+wO55ndS1hQu0BivQJp1WGt7C5GHRakJbGkVoNMrMNawV2MnyzDAjJxCUtqNcpEwursXNldjJ88L7H+8RO4i7GEJbUaZSLHWsldjDostIshsV6B5q3DDGtF9xPrsMB+osTCtBjW4MruJ9ZhIY07iYVqFRlWsP3ExT+CzMRn67AgrV9+/f/+aEqshplYhxVYPzHd7VxtQWYix0Iad4Q1IayATORYAfYT16eH/vZybEv6nuAykWOB/USJJbSATCSswcHg+onpTZPOT3Eint4cXCZyLLifKLBeFVrAvMWwkr8NrLMf7Vn6SXZ3B5eJHAvt7LtYjtYEosWxOoPq7G9/TW5Rfz0dVCYS1gEHC22hu1igloIVVGc/uluuNe2OBvacqGKBWhLL0QIyUcEKqLO/RQwscR26Ox3UcyLHQjv7hIVovXj6TA1rtDOgzn5kipYx/xwN6jmRY8GdfeemdNqcEVpAJhbPzBJWMJ391NxBwpoVQyuITHyaY6Gd/V98/f+mkzNCC8hEjuXdxdDJRBpY4toTDeg58elnCQs+x0ZgvSG0gFlewSItHzORDSwxtNrSwTwnMqwfoiezCKzwG47WDKJFWKOjnl0MHa1NbGCJazgazNopx4LPsRFY/1zUQmZ5BYu0/JvlUyIK2TWSTgeydsqxoHNsCAvUUrGC0JIDi66EGFq+ZyLHwk5mISxM6y8MKzlIWr5lIs1YpRE5tNang1g7VbEgLYkltIBMVLBIy7dMjMib9xPlmPy7RDSItVOOBZ/tJrEcLSATJwjr8CBp+ZWJbGB1pQZqs9amANZOn36asODTysStw1mhBWSiikVaPmWiKQfW0Vg0MkxDK4DPE5/gWKCWiyW0gHmLY8EtdHiWT52jgbU+de6Q/Iftm/3/PJFjIf1EwjqPailYvmuZU3IwxSLOrfye2jDr9v3zRI71NNxCX8Syz4NaHKuI9BObysQuPrA2beJDa5PvnycqIwvQIqwLQgvIRAVL1dLPRLOHBpa4mad/jvr+eSLHgjr7hCW0gExUsbiWfiYqA2ujc22/gw0tvz9P5FhgC11iCS0gE/mchfQTm9FSB5YYWjSHdfu9x0bFArUE1kUHC5q3+MgSWP7N8nxgpTYIrdRczv1Xk9FNPu+x4VhQZ5+wHK0LiFahhnW4CLbQAa1VKcMMV1gUygWb2tDqL5vR7u3pzf5lIsdCW+gSC9Sa+ZfE+uvpUaGllYntlqNkmua6TDkxla8NrNVyNZCG1kBPopy5c3E75fYt6TYfMvGJJzgWqCWxvLUkl4p1+DTST/TKxJBlOEx2eF127NJUvDSbP+qiLA4sk9ZO+SJEf362FJ9yzF7rdkbZoplOJj76xICLdfkHcGdfYF0RWkAmMqwi/zwRz0RHKWxXwmvmMpd64qWB3IkaBs1YtBoohxa7jub2LpqNZR7YEu3+nUPWWiZyLLiFvoQltIBMVLFIC81Ey7b2Z2M9vZMjOWcsERSziEX42mmk12P7+on83tLfdyfGrrb9rqVMVLFArZ8TFpCJy7BGm8pEKzlcyvUtN1IHFl8N7Mq6U5kHWX++lPhdK5nIsZDOPmFdE1rALK9gkRaaiTZNQV5XzOSrgZ5Di49FpoVnIseCWuiE5WhdQbTO8gleXM1kYjJ7vNHvPG6k6tZOz400PJb1nrbmM1HFQrQIC9Q6y0cWaYGZaCdue8xx/kBpOBWqWzvd2DV3auSgSEvPoTW2pflM5FhgZ19iNdKSXBwLbaFTJtqXbv2bPZYbj08NzWdWG2Zq2SdkG1ORrnNjseFTk+O5Y7c0Oz62pfknH46FdvYJi2l5ZyJhnZ5A+olqJiazx9TpuS83PnlqeD67JmSEbdNKrbrl54nOcnNXNBLpWn9HJtbzsmNWFxEl546raa1HH+VYoBZhXQMy0QMLzUR+5ndf79B8dn+7WbFNwwq1N9414sClHLPuza9lYkOT9APlxra38JzIsYBzbAiruIQFZCLHQvqJdVq77J7+2rCKGxXDsrY2u+80nV6/Pfw6zfoHx7pbeU7kWMjJLIT1b2EFzPIKFmnBmdhRHRJa4hrfH17V0r7TaOYQt2rpOZFhff9pRIuwUC2OBfaq1UzcWU0oWq3sO42OHeBWra2dPsyw0HNsBFbhOqg1oWDBnX1Fq6CMLbv5nZSRcp5ZRVtcO+VY4Dk2EktoAZl4kWM1p7WrpnWJfrMj2Sa16q26W107VbEwLcIiLe9MVLHE1Xwm7qzO02/3AGlhszy3OjAWbXntlGPBZ7u5WFzLOxM51gzQT/S4gyjMH2tVi1sNZLta/zyRY4GnlRHWdWjeqmGNT0wg/UQvLTa2DmUr+L5Txer1qEY/8fsMCz7bjbAQrYv/qWHNAI07z+fEygsH6aayXAEzcb1q1X2HRj+RY8FnuxEWosWwznq3C4DnxEKG4j8vtIBZPpJQrXT6iQ8yLLizL7D+C2rNKFgeWlAmOloHm9Raayb6mFXXZq3O/oMPExbc2WdYQCbWY5FWs5kIahGWY3Wcz1eaLXSOBfaqJZbQAjLxBscirZYy0c7S26GOXaqEbq+1mo+r0mtR3c7+gw8SFthCl1hCC/hK5FjeXQxUa4Eeh/suNbiDUKw2dml39hUsUEtiOReidY2lIdqr9s5ERSsWvp2WEVOs9Dv7HAvu7P9sEesmqnWNjyxxaWUi1xoIWd6zfGrjrGKl39nnWHBn/+cCC9WiL8OZsxOta+2qae0vSYP+F8IhTy2j3F+z2iCsdM+xuZ9hwZ39n39NYAmtRpnogaWRiduK2ybl16GD5alllPtoXOmfY6Ngvfl9sFctsYQWkIkM6yLST2ysZS/k3cee/R0hT63QOfceNp81Nvpyjo2KhWkJrLduCi0gEzkW0E8EtOz5o+6Qsbd673ZbZZbcL9b5qD/n2Nx/P2HBnX2B9bbQAuYtBYu0NDKxKvf7nbRvtzfQPOV+s56wP+fYcCy4s/8zgYVqqVie7QI8EzvsuKswL7C8tEzZTolH/DnHhmOhnX2JBWoR1lkHS2jpZWLntlk5GSWV3W6hkKJlZI65dxgbU76c7cax4M6+xHK0gExUR5bQ0svEZLZPHjDfwXZSWrZp2hbTsuSN1rFsly9nu3EstLNPWIjWBT6yZoSWZibWPtGPV2hr4NZweyIeT7SH20krPFnbcerL2W4cC26hE9bbQCYqWEJLMxOr78jmuL1VaiXtssi+Ujls1LRqVZWTYV/OdruXY6FahIXMWxyrYT8R0OpMltwB827S3Ulp2ft7++Qn/AvhkKtlzLtYk5HVfpztpmJBWgLrvbfeR7UY1jXvLgY+yycXcu7a8kJyaU+znRw6wM7yTZjmkpYltwDuPZfy42w3hnUv2NmXWKgWx/LuYuBaxXdPuLekyY4djlaykhFzE12TGdsSWKvG3dvSTJf+eacqFtzZF1gfCC1gllewhJZeJhbktpp3qs5mt52F/SePcSkRf1OrxUQfjsuGecSP807vvZewoM4+YaFaKpbQ0srEqhS4ZO/cEbZjewmJroF503CwpGtvWP+8UwXrO2hn38USWkAmqlhCSycTRztH3Kk8m0xWs/GjHvsg43NhyyjLh0hztf55pwoW3EKXWB9A89ZNjiW0tDKxKLcCzr5U7ezJc6C88k+5PVZFZsGBOUv/vFMVC9QiLEiLsC5e8+5iwFoFeT8Q/7A8rs7r2aw605fGKiV3nJUN/fNOVSy0s09YiNbNjxiW0NLKxELtTvNkP5c5dCnsXAnlrQZ9U3J+GzZ9OAP8Lo6FdvYJC5nl32dYaK/aOxMHq/IZ5rjC8s7+iuXcnVYWehVC+Y3ipv4Z4Azr6neQfiJhfYxq3eBYnlr4GeAHblVIebeQ3Cqfe8Zv8Q1GjJT+GeAM6y6os09YQgvIRDayrnu3C9BMLLzbt0wi90nS3in7iVtta09++TfJWvpngHMssLMvsYQWMG8pWEJLJxOrl5a1LOILlQ7euOuoLL+hODFv6p8BftfdhAV29gkL02JYN7y7GKDWYKG+xDReriTrW+hJOzZQ9832mPpngDOs76CdfcKCtDiWdxcD1HqxqM5I+Z7OQsfyzv5We3XdQ1DcWKX9XgyOBXf2CQuZ5TmWZxcDzcTiQk4hyFaTt26hG3WP17NWSvu9GBwL7uwTFqJFWNdugC1070yszh9lAJ8WbO/Ofjg5dJANwYyh/V4MjgV39n/qYH32Oah1XcESWhqZWP2UlhZOvlQdvF1nX7npOj5maL8Xg2PBnf0lrEZakusLwrru3S4AM1E8GbqLVtVkg85+u0E3XXtDIe33YrRxLLCFLrBufIlqKVhCSycTq0tPOwcSxULjc2za221r6Vn7RCKs/16Mtrvo1gHs7EssVIth3fTuYqBao8U9h47neheqo9g5NlYlG88dH79ktuu/K4phtaGdfcKC5i2O5dnFwDNxtPrSwv5CET+ZxTQX5tgnZBqZyLHgzr6LBWopWEJLLxNHi8WiuJlHtUKGYem/K0rBer0N7OwTFvKVqGIBjTuNPTZBvyuKYX0H7uwTFjJvKViAlsYem4DfFcWx4Bb6ItZnX6JaClYDLZ3PE4N/V5SCBWoRFqRFWNdvAP1EHa1dwWq1tXEsUEvFaqDFsW4C/UStPTbBvj+RY8GdfcJCtDgW0E+EMjEALSATN3MstLMvsP5H3V10OW5EUQAObMPZDeMfyI8JMzTswszMLA9jmJkzzAzNmpO23eTIHubepexy6b1yW3rXVvukdJOh7Xc09arKvprhoTDxWoR14ADQuHN3JnKsDNTZJyxUiz1Z/UDjzuGZyLGwzj5hYVo2FqDl7kzkWGALnbAwLQtL0HJ7JlpYoJbBUkFW+QlYO9M6EzkW3NmvYI2gWhxL7ieu8U2yPF221je7uirZVc6XtXlK+IfQO2rT1tbWOU2eiRwL7uxrLKUF/U3M0TTsF1tRaw711sv9o59zrc9H70fzt5Adlf/Vj3nTxJmYYVhwZ19joVqE1a+wBK19P322tE5WPNn1Oa1bH3R9tGLpJEd9/VuciZn5hIV29g2WCqLFnyypcaewHnu8Xr5TWEZLYfU8Ptl5QmFJq/xchgV39q+++II+fwzVsrAELYW1LBrLaLUCa7nCkrQ4FtzZJyxkledYYj9RwlrZOqz7xJnIscAWusFCtTiW1E+MwfqWdhAtwhLPiRwL7exrrILWklf53L8hVl7sJ8Zg0X6rVVjSOZFjwZ19jaW0xhAtjiV1yBTWikgs0so+ihrgWXifeE7k0xDu7GssoyWt8haWpLV9z+qP6qRn8Ndv2cnnyx09jeZRIR+t9cSTT2auwfohA3f2r9RYKogWYXUrLEFr3QbfD4Ly//nAZ5v5LuucuOfLrmp21eRLfDtvRTVYxHMiYb2isMDO/jVXERawyhNWfx5o3G3YsMbk12q+Vak9J5q8y/NymLt17jS5TeemMNfrXGcyFTgnciy4hU5PFqDFsXJAP9Hhu9NZHEvWIqy8xgJmIscC+okO351yLKSfSFhFoyXNRI4FNO4cvjvlWGBnX2P5RaMlzEQbC9By9u6UY80CO/sGy2hJM5GwBhQWoOXs3SnHgjv7BktpAav8CHuygMadw3enHAvtVRMWpGVjiVoxzxZpfW4/W9ZMVLG1NNckaM2axbFALcIqAjORY8n9xO1BGJ9ln6W1sitbE2R3emfSmWhjgVqXExYwE0fYmiV2yHbveWB1vQxu+JVpdd3/0WowH4X5+fm7E85EjgV39hkWMBMtLEkr/9PS+gfpfWtolf/Wb+bWYen+9xOu8hwL6CcSVmCwxJnIsaSej8JaFo1ltL7NftTMJcz+9xPORI6F9BMJq2SwpFWeYwmNOwFLJTlWglWeY0G9asJCtQocS9CKwlqhsMwOIglWMq0ZhOVhnX3CwrSGOJbUT4x7smi/1TRWwnMixwI7+4SltICZSFi5nNghy//0WBQWO/lkm1ngn1BYyc6JHsOCO/tXGiylJc/EwmGOJWjl+YesLE/u28D28tlmPmRdtv/9hOdEjgV39s2TpQLMRIY1IvYTdx/qvb9Odoyu4Xv5NaM7msiHdyc8J07jWGBnn7CgdYtjyY273UEQHFH/Bbmgknz5P9/fZ50Tv+rKmvtm32zh2UVzV/1vjdyd9JzIseDOPmEBWjaWrOXw3em0GW9XsX734M4+YSFaNpao5fDdqcexwBY6xwJmoo0Vo+X83ak3jbCQfiJhHZW0NFctFq7l3t0pYa31wM6+wTJa0ky0sXAt9+5OORba2ddYx5QWtG5ZWIKW23enHAvq7BMWqlUMsYZG0Ba6mzORY8Gd/Ss0FqZlY6FaTs5EjgV39vWTJWlpLgurALfQnZyJHAvu7F9msBCtEQsL13JwJnIsuLOvsI5rrGPATLSxcC33ZiLHAjv7GuvIMVkrAiuX1pnIsZB+ImGdQLVsLFzLvZnoTSUssLNvsECtWiyVtM5EjoV29g0WpjVGWCNVrLTORI4Fd/YNFqZVCrFOTsipCTkSlYDHn5AsRfis2txx3S3MxKltT9V8k7K9g7DQFjphIVqFEOu3001ksOFshvLq4Icvx8/EtgWvvVrOa2Fefe0FwkK1CAvQIiy38tnCb+JX+Y2RHyERFjATCQvRchorRkvGgjr7l12osM6gWu5ixcxEAAvo7BMWquUwVuRMFLBeWHs91tknLFCreOwLR7Hiz4kxWM/c54EtdMLCtIonzzqKFX9OjMF6Gn8HOGFhWqXS6sfcw1qmsGJOPjFYjz16/XV4Z7+CdQ7WGiudHD0r5Xwj+aeBPB2R1z58N/6c+P79D9TP320e/h6bKhauVSiclHOKIuzpA7ab981vkC39LivSOfG6tohuVBv1fICZqLEa0VI/qT9i/cQ03Z1KM5GwVGAtqIuBa6XoPTaXlrHGm9AqtFjLxffYcKxGny20s5/uLgbNxCrW/6OVune7aazJ0Urx3Sk2E/9jrw4wEAjAKAgToO3+By3QVrT6MQuZFUDzjvDhzWWwtv2i9WdNBMteviZ+sG73Q1o1ESz5rZoIlmvVRLBcqybusWqiNBEsffmaCJZq1USw7LdqIliuVRPBMq2auMeqidLEwVqHqCbKyw/WIa2aOFiblv1WTQTLtWoiWK5VE8Faa6I1cQHLXr4mLiewaqJoncGy36qJYKlWTQRLtGriYF3HqSaK1mA9RGu4auJgHdKqiYP1VasmogWWa9VEsFyrJoKlv1UTwVKtmgiWatVEsEyrJg7WU7VqIliuVRPBcq2aCJZr1USwXKsmgqVaNREs06qJg/VSrZoIlmvVxMF6799nojejEj5bBm036sOH2LejngcD2DHKmGAVGli7dm0tOpg0aVI6GEyahLhyGwtIxQVicYAwbIALCDiZGBj+faAEXAfCD9cpBlshkEyQvzWfZBBJDGBCAQwABU0zwVb5ttQAAAAASUVORK5CYII=;" parent="1" vertex="1">
          <mxGeometry x="-334" y="607" width="59" height="59" as="geometry" />
        </mxCell>
        <mxCell id="wLGBiTn9vYruEYs-nZDu-33" value="&lt;font style=&quot;font-size: 12px;&quot;&gt;AWS Certificate Manager&lt;/font&gt;" style="text;strokeColor=none;fillColor=none;html=1;align=center;verticalAlign=middle;whiteSpace=wrap;rounded=0;fontSize=16;" parent="1" vertex="1">
          <mxGeometry x="-351" y="666" width="93" height="30" as="geometry" />
        </mxCell>
        <mxCell id="PnPkqlYFe4MIE_lKeHhR-24" style="edgeStyle=orthogonalEdgeStyle;rounded=0;orthogonalLoop=1;jettySize=auto;html=1;entryX=0.5;entryY=1;entryDx=0;entryDy=0;" edge="1" parent="1" source="wLGBiTn9vYruEYs-nZDu-34" target="wLGBiTn9vYruEYs-nZDu-25">
          <mxGeometry relative="1" as="geometry" />
        </mxCell>
        <mxCell id="wLGBiTn9vYruEYs-nZDu-34" value="" style="shape=image;imageAspect=0;aspect=fixed;verticalLabelPosition=bottom;verticalAlign=top;image=data:image/jpeg,/9j/4AAQSkZJRgABAQAAAQABAAD/2wCEAAkGBw8REBUQERIRERIWEhIWGBATDxUVFRYVFhgWFhgWExMYHSggGBolHRUVITIhJSkrLi4uFx81ODMsNygvLisBCgoKDg0OGxAQGy0lHyYtLS8vLS0tLS0tLS0tLS8tLS0tLS01LS0tLS0vLS0tLS0tLS0tLS0tLS0tLS0tKy0tLf/AABEIAOEA4QMBEQACEQEDEQH/xAAcAAEAAAcBAAAAAAAAAAAAAAAAAgMEBQYHCAH/xABDEAABAwIDBQUGAgcGBwEAAAABAAIDBBEFEiETMUFRYQYHFHGBIjJCkaGxUsEjYnKCkqLRFjNDg7LwCFNjc8LD4RX/xAAaAQEAAwEBAQAAAAAAAAAAAAAAAQIDBAUG/8QALREBAAICAAQDCAMBAQEAAAAAAAECAxEEEiExBRNBIjJRYXGBkbFCodHwFeH/2gAMAwEAAhEDEQA/AN4oCAgICAgICAgICCidW2eQfdvbr5rybeIzTPNZj2d6+f1bxi3XfqnVM4DLgjXcuriuJrTDNqz1nspSkzbUqOjqcpsTofoV5XAcX5VuW8+zP9S2yU5o3COtqgfZadOJ/Ja+IcZF48vHPT1/xGLHrrKdQzXbYnUfZdfh/ERfFy2nrH6Z5a6ncJctdZ1m2I4nn5LHN4lrJEU619fn9Fq4enVXL12AgICAgICAgICAgICAgICAgICAg8DgdLj5qsWiZ1Ep0ocVOjfMry/FZ9isfNtg7yp4q9zRbQ8if96rkxeI5cdeWev1XtiiZ2pZZgAXOIA3kk2HzXDMzady1WmftNRMNts155Rh0n+kEJFJEH9pGH3aesf1bSut9VPL8w/tI0e9TVreppXf1UcvzEUfaiiJsZdmeUjHs+rhZOSRdIahjxmY5rxza4EfMKNCuOIPy20B/FxXoT4jl5OWO/xZeTXe0zCne07yWvhUz5lvojN2hcXOA3kDzK9m1or3lzxG3qsgQEBAQEBAQEBAQEBAQEBAQY9O8tkdY2IcdR5r5fLzY81uWeu5dtdTWFNiGJNY3aTPDWjifsAN58lTJlvlnd52mKxHZbGVNZU/3DBTxH/Hmbd5HOOL+uiz6QlPi7MQE5p3SVT+crzlH7MY0A6apzT6C709PHGLRsYwcmtDfsqibdQF0EEsTXiz2tcOTgCPkVItFR2ZpSc8YdTv/HA8s/l936KeaRTv8dT+8BWRD4mANmA6s3P9NVPSRXYZirJRnhfqNCNzmnk5p3K9L2xzzVnUomInpKqfK5x1Nz1S975be1O5IiIjoyNosLL6uI1GnC9UggICAgICAgICAgICAgk1gcY3ZTZ1tLb1jxEWnFaKd9LU1zRtj8eISt3PPrr918/Ti81Y1Fp/f7dU46z6LZiGIlhDWtMsz/djG8/rOPAdVhMzM7leITcPwT2hNUkTTcB/hx9I2/mVSZF5uqggICAgICBdBasTwVkrtrGTDON0rRv6SN+IK0SKOjr359jO3ZzAbh7rx+KM8R0VhdnYhKRbObegPzGq6Z4vPMa5p/7591PLr8F6wrNsgXEm9yLnhw/31Xs8DF/Jibzvf6c+TXN0Vi7GYgICAgICAgICAgIJFbUbNhfa9raeZtvWOfL5WOb62tWvNOlqdj+mkdj+1cfZedPinT3ev1beT82PVtWWABozyOOVjObv6BeS3XDB8MEIL3nPM/35P/FvJo/JUmdi4qoICAgICAgICAgo8Uw5k7MrvZcNWSD3mO5g/kpidC0UdS+5ilAErN9tzhwe3oVoMgp8cysDSy5AAvmte3ovUxeI8lIrNe3zYWw7ne10w6s2zS7Llsbb78tx9V6HDcR59ObWmV6cs6Va6VBAQEBAQEBAQEBBDK1paQ62Ug3vusq2iJiYt2THyYLO9rS6xu0E+10HH5L5e0RFpiOzthNwGlLial41cLRg/Czn5n7eaytKV6uqhdAugXQLoF0C6BdAugXQLoF0Frx2iL2iWP8AvY7kfrN4sKms6FvhqA5ocNxC0GdULGNjaGWLbDUceq+nwVrXHEU7OK0zM9U9aqiAgICAgICAgIPHi4IBtpv5KJ6wMDxCOWN5ZISTvuSSHDmLr5zNTJS3Ld2VmJjcKTZmV7YuDjd37I1K57TpeGTtAAsNAOCyHt0C6BdAugXQLoF0C6BdAugXQLoF0GN1cOymc0e67229L+8PmtaySjps7nBjL5idADZa462tPLTurMxEblndHG5sbWudmcGgF3Mr6PFWa0iLTuXHadz0TlogQEBAQEBAQEFJiGJQwAGR1r7gASTboFllz0xe9K1azbsw/H8XbO9pY0hrQRc7ze3LhovG4vPGa0ajpDox05YeYDHq+Q9Gj7n8l59+7VeMyqGZAzIGZAzIGZAzIGZAzIGZAzIGZAzIGZBbMejuwP4sd9HaH8lNZ6ilwbEhBLnIzCxaQN4BtqOui7uGyxivzTDO9eaNMyw7F4JzZjvatfKQQbfn6L2sXE48vSs9XNak17q9bqiAgICAgICAgtuNYOypaLnK9t8rx14EcQufiOHrmjr3Xpeate1Mbo3ujd7zXEG2645Lwr0mlprPo6oncbX/AAsZYh1ufquVZV50DOgZ0DOgZ0DOgZ0DOgZ0DOgZ0DOgZ0DOgk1gzRuH6pQYxc3sN97Lor1Qz7AMCbT+245pSLE8Gg7w3+v2Xt8NwsYvanu5b5ObovK7GYgICAgICAgIMX7T9pn08mxjYM2UEvdu1/C3j5rg4ni5x25Kx1a0x7jcsJM5e/M4kuc65J4knUrybTM7mXRDJ6d1mNHQLmWTNomkG0TQbRNBtE0G0TQbRNBtE0G0TQbRNBtE0G0TQbRNBtE0G0TQ8c/RNDFal9nnzW9OxLLOznaqR8jIJW58xyiQe9f9YcfPRerw3GWtaKW/LC+OIjcMyXpMBAQEBAQEBAQUmIYbDO3LKxr+RO8fsuGoWeTFTJGrQmLTHZqetayOdzGOzsbIQHcwD03rwslYi0xDridxtkgfbRckdlzaog2qBtUDaoG1QNqgbVA2qBtUDaoG1QNqgbVA2qBtEGM1jxtXAmwzWvy4ErekdIRLamEYRTwNBiaCSB+l3ucOebkemi9/Fhpjj2Y+7ktaZ7ritlRAQEBAQEBAQYr28Nbs2tp2vMZzbQxi7+FhYa5d+7168fF+bqIp29dNcfL6tZvJaS0gtI3gixHmDuXla10dDKRPdrHfiY0+vFc0R3hLzbKdBtk0G2TQbZNBtk0G2TQbZNBtk0G2TQbZNBtk0G2TQbZNBtk0I4JLnoLk+Q1UW7JYrJMXOJ4ucTbzK6Ij0VZ73fiua4skZI2nym20BbZ1xYRg6239Pz9Lg4yxOpj2fmwy8v3ZwvQYiAgICAgICAgINVd5GJwS1LWxWLo2ua+QcXEizb8ctj/EV5XGXra8a9P+/p0YomI6qLCqjPTEfFE7+R//ANuvOtGr/Vs98Qmg8Qmg8Qmg8Qmg8Qmg8Qmg8Qmg8Qmg8Qmg8Qmg8Qmg8Qmg8Qmg8QmhMqKjJTSP4u/Rt9dXfRRrdogU/YrE4YKxr5rZC1zQ87mOdazzy3EX4Zl3cPetMkTZneJmvRuQG+oXsuV6gICAgICAgICCCVmZpbci4IuDYi/EHmkjWtR3YzAHZ1LHcg+Itv0LgT87Lzp4GY7S386PgxLCqvw1SWSizbuilbyF8rvkRf0XBlpMxr1htEqvEWuhkdGeG482nUEeipX2o2KfxKtoPEpoPEpoPEpo288V1TSYiZ7QeLHNRpby7/CfweLHNNHl3+E/g8WOaaRNZjvD3xKnSuzxKaDxKaDxKaEyne6R7WN1c4gAdSonpGxB2lrW5xCw3ZCC2/4n/G756ehUY46c0+pLJKDu1qHsa6SeOIkA5BGXkX4E3Av/ALuvRrwVpjczplOWGx8JohBBHAHF4jY1uZ282FvTyXfSnJWK/BhM7narV0CAgICAgICAgILN2uxsUVJJUaFwADGk2Be4hov0BNz0Czy35KzLTHjte2qxtz5PiIc4uc7M5xLid9yTck+pXkamer1cfh3EX7V19eiuqO0rZKdkTmOdLGbNlzAfo/wuHG3BUjFq0z6O7H4LefftEfTr/i2nFH8AB9Vbld2PwTDHvWmfxCA18p+K3kAo07KeE8JX+G/rMoTUPPxO+ZR104Lh69sdfxDwvJ3knzKh00x0r2iI+wjYUAiRSgDyNxI8ijK1K27xEvRUPHxO/iKlz34Ph7d8dfxCIV0o+L6BNOS/hXCW/h+NwjGKScbFTyuLJ4Jgn3ZmFywvtMIGyERnbOblZJmFmA+8QLe9bcVS2Lm18HFk8FtHuX/Ma/1bhXMPG3mtOVw5PDeIp6b+jevdz2h8bRguIMsR2biCPasAQ+3UEX6gr1OHyTenXu8rNitjtq0TH1ZUt2IgICAgICAgICDUne326qqefwNK4w2Y10kw98l2oaw/CALajW54W1582SYnUPZ8N4KmSvmX6/JqSepkldnke+Rx+J7i53zOq45mZ7vocdK1jVY0NVHTVMaqy2hGFVrCMKGkIgoaQiChaESLChIgKRCUVl4VKkoCpUlCVLOUtytDKUtysxshZK5rg5pLXDc5pII8iNyvDnvETGpbI7se31YKuOjqHuqIpXZGuec0kbjuIedXN4EHzG6x6cWWd6l4XiHA44pOSkamPw3gut4AgICAgICAgINLd/WF5Z6erA0ex0Tj+sw5m36kPd/CuXiI7S93wfJ0tT7tWtXLL36prVRvVMaqy2hGFVrCMKGkIgoaQiChaESLChIgKRCUVl4VKkoCpUlCVLOUtytDKUtysxsluVoYWZz3L4XtsTEpHswRvffhmd7DR5+04/urpwRu23jeLZOXDy/GXQK7HzYgICAgICAgIMN728L8RhcpAu6EtmH7mjv5HPWWaN0l2+H5OTiK/Pp+f/rnZq4JfX1TWqjeqY1VltCMKrWEYUNN67vcw5j5qNM7cVgp716x94e7RvMJyyynxTg698kfv9KqipxLukhZ/wB2Zkf+shRMTHoznxvgo/n/AFP+L1D2RqHC7ZKQ+VXEfsVnOSI9J/Cv/u8J8Z/D2TsfUt1dJSjzq4x9yojJHwn8H/u8J8Z/C0V1Fst8tO/pHURyH5NJWtYmfSVo8b4Of5f1P+KHat5hTyyvHivB27ZI/uP28zDmPmmpa14zh7+7kr+YeFS13E9kJUqSluVoZSluVmNktytDCzeHcZhezopKkjWaWwPNkV2j+YyLu4eNV2+X8Wyc2aK/CP3/ANDZS3eUICAgICAgICCVUwNkY6N4u17XNcObXCxHyKJiZidw5QxamNNNJDIbOjkewm1rlpIuB1tdebNJ5tQ+zpxOOMUZLTqJW92JsG4E/QK0YLerG3i2KPdiZ/r/AL8JTsUfwDR9VeOHr6ue3i+afdiI/tJfWSne8+mn2V4xUj0c1uO4i/e8/bp+kVJVZSc13XHO/wB1GTHzR0cuSbX7zv6ktY8m4JaOQP35pXFWIVikQukcl2hx00uuWY1OmUx10lQ1bHOyi/rxVrY7VjcpmswuGH4dLUSthhjMsjjoxo1PE79AOpVaxNp1CszpNxjBaijk2VREYn2uAbEEc2uFwR5FTatq9JRExPZa6iqaywN78gppjm3ZeKzKax4IuNQqTExOpRpaRWPzZr+nD5Lr8qutNeSNI6qszAAAi2u/7KKYuWepSJpO4lKZVyDc93qb/dWnHSfR1043iKdrz+/3tOZicnHKfS32VJwV9HTTxbPHvalNbijfiaR5aqs8PPpLor4vSffrMfTr/ioila/3NTytr8lSaTXu6qcRjyxukuqezGGeFo4KfS8cTA63F9rvPq4uPqvQrGoiHxufJ5mS1/jK6KzIQEBAQEBAQEBBz/32diqw15raeCSaGVrS7ZMLyyQCzszGgkA2BzbrkqnL8HRXNMxEW9OzCsJ7BYvUn9HRTgX96Rmxb55pMt/RRyyv5tYZnhfcZiD9Z6ingHJuaVw8x7I/mU8qs5/gw/vA7NR4bWeEZK6ctijc95YGe265sGgmwy5TqTvVZjTXHebRtjShcQRmZ2XLc5eSryxvaNPInEOBG8FTMbjRMOle6jsa6ii8VUNtUzMA2ZGsMZ9rIT+I6F3KwHC5nFi5HHe2+kLp3i9khiNMAyzaiLM6Jx3G49qNx4NdYa8CAeitlx88aRS3LLlzEmSNleyRpY9ri1zHCxaWmxaeoIWda8sadleyUyZzQQCQDwSaxM7lOkCskQXjsjhUdZWw0sj3RtleWbRoBIcWnLod/tZR6qYhW9prG2wsT7ia1utPVQTdJGPhPpbOPqrcrGM/xhhuL93OM01y+jle0fFCBMPO0dyB5gKOWVvNrK7d2HYaunxCGWWnmip4niSR8sTow4N1DGhwGckgCw3Dep5d91fOmvWs/GPy6ZV3MICAgICAgICAgICAgIOWO9uTNjVWT+OMfwxRt/JZW7u7BHsMQsqttFkNFkNNp9x3YwVM/j523hgdaNpGj5hrfqGaHzI5FXrHq5s99ezDoNaOQQaX7+OxgI//AFIG6jK2oaBvG5kvmNGnpl5FUtHq6MF+vLLSNlm7NFkNFkNLp2Vfkr6V43tq6Y/KVhUx3UyR7Muwls84QEBAQEBAQEBAQEBAQEBAQctd7URbjVWD+OM/xRRu/NY37vR4ePYhiNlVvoshpVYVh0lTPHTxC8kj2saOrja56DeTyBUx1Vt7Mbl1x2dweKipYqWIexGwNvbVx3ueernEk+a2jo8q07na4qUCCTWUzJY3xSND43tcxzDuc1wsQfQoOS+2GAPoK2akdchjvYcfijdqx3nYi9uIKwmNS9THbnrtZrKGmiyGl07Kw56+lYN7qqnHzkaFMd2eSPYl1+t3liAgICAgICAgICAgICAgICDnrv7w8sxJk1tJqdhv+swlh+mRY5O70eDndZhrXKs9uzlMqbOVtfuBwASVMtc8ezC3JGT/AMyQHMR1DLj/ADFrjj1cXGW1EVb4WrzxAQEGoP8AiBwAOihr2j2ozsZCPwOuWE9A64/zFnkjpt2cHb2pq0flWO3o8plTZysw7o8PM2MU+lxGXynoGNJB/iyq9O7n4npjl0+t3lCAgICAgICAgICAgICAgICDWPf3g+1oY6pou6CXU/8ATls0/wA4j+ZWeWOm3bwVtX5fi0FlXPt63KZU2crpvulwkU2EwC1nSgzu03mTVt/3Awei6aRqHh8TbmySzBXYCAgILR2uwoVdDUUxAJkicG34PHtMPo4NPoomNwvjty3iXJeVcj6DlMqbOVuP/h8wfWorXDg2Bh+T5P8A1fVbYo9Xm8fbWq/duhbPOEBAQEBAQEBAQEBAQEBAQEFHjGHsqaeWnk9yWNzD0zC1x1G/0UTG40tS01tFo9HJuJUElPNJBILPje5jh1abacxyK4p6Tp9NSYvWLR6pdNTmR7Y2+85zWjzcbD7pCbRqJmXXtNA2NjY26Na1rQOjRYfZdz5eZ3O01ECAgICDlHtjQbDEKqK1g2olsP1S4ub9CFx36Wl9Jw/tYqz8loZGSQACSTYAC5JPABVbTGnVHYjA/A0ENNpnay8luMj/AGn68QCbDoAuysajT5rPk8zJNl9VmQgICAgICAgICAgICAgICAgINK9+XZrLKzEI2+y+0cthueB7Dj5tGX90c1zZ6/ye34Xm3E4p+zAOx8GbEaRtr3q6e/ltG3+ixpPtQ9Lia6w3n5T+nVK73yQgICAgIObu9qG2MVOmh2J+cMd/rdcWX35fTeHxvh6/f9q/uc7M+KrfEPbeGns/UaOl+Bvpq790c1bDXc7ZeJZvLx8kd5/ToJdb54QEBAQEBAQEBAQEBAQEBAQEBBRY1hkVVTyU0ouyRpaeY5OHUGxHUKLRExqWmLJbHeL17w57wbCpaLGqenlHtMrIW34OBe0Ne3oQQVwVia5Iifi+ry3rm4S169uWf06RXoPkBAQEBAQc996NO+bG5Yo2l73GnY1o3ucYo7D6rhzdcmofVeHapwkXtPTr+5bp7Hdn2YfRspm2LgM0jx8cjvePluA6ALrpXljT53is858k3n7fRe1dziAgICAgICAgICAgICAgICAgICDCu8Ts3ttlXwtvUUr2PygayRsdnLRzcLEj1HFYZqb9qO8PU8O4rk3hvPs26fSZ6b/1mjHAgEagi4PQrd5kxro9RAgICAgwnsz2dD8RqcVlbq6V7IARuYz9EZf3g2w6EniFhSm7zefs9XiuJ5eHpw1fhu31nrr7evzZst3lCAgICAgICAgICAgICAgICAgICAgIJVL/AHbf2W/YKI7LX96U1SqICAgIJVJ/ds/Yb9gojstf3pTVKogICAgICAgICAg//9k=;" parent="1" vertex="1">
          <mxGeometry x="-291.51" y="482" width="53" height="53" as="geometry" />
        </mxCell>
        <mxCell id="wLGBiTn9vYruEYs-nZDu-37" value="&lt;font style=&quot;font-size: 12px;&quot;&gt;certificate&lt;/font&gt;" style="text;strokeColor=none;fillColor=none;html=1;align=center;verticalAlign=middle;whiteSpace=wrap;rounded=0;fontSize=16;" parent="1" vertex="1">
          <mxGeometry x="-310.75" y="535" width="93" height="30" as="geometry" />
        </mxCell>
        <mxCell id="wLGBiTn9vYruEYs-nZDu-38" value="&lt;span style=&quot;font-size: 12px;&quot;&gt;http&lt;font color=&quot;#ff0000&quot;&gt;s&lt;/font&gt;://ylslc.org&lt;/span&gt;" style="text;strokeColor=none;fillColor=none;html=1;align=center;verticalAlign=middle;whiteSpace=wrap;rounded=0;fontSize=16;" parent="1" vertex="1">
          <mxGeometry x="-568.94" y="343.25" width="91" height="30" as="geometry" />
        </mxCell>
        <mxCell id="wLGBiTn9vYruEYs-nZDu-40" style="edgeStyle=none;curved=1;rounded=0;orthogonalLoop=1;jettySize=auto;html=1;exitX=0;exitY=1;exitDx=0;exitDy=0;fontSize=12;startSize=8;endSize=8;" parent="1" edge="1">
          <mxGeometry relative="1" as="geometry">
            <mxPoint x="-646" y="784" as="sourcePoint" />
            <mxPoint x="-646" y="784" as="targetPoint" />
          </mxGeometry>
        </mxCell>
        <mxCell id="PnPkqlYFe4MIE_lKeHhR-43" value="" style="rounded=0;whiteSpace=wrap;html=1;strokeColor=#0000FF;dashed=1;strokeWidth=2;" vertex="1" parent="1">
          <mxGeometry x="851" y="116" width="141" height="130" as="geometry" />
        </mxCell>
        <mxCell id="PnPkqlYFe4MIE_lKeHhR-12" style="edgeStyle=orthogonalEdgeStyle;rounded=0;orthogonalLoop=1;jettySize=auto;html=1;entryX=0.5;entryY=1;entryDx=0;entryDy=0;strokeColor=#FF0000;strokeWidth=2;" edge="1" parent="1" source="PnPkqlYFe4MIE_lKeHhR-5" target="PnPkqlYFe4MIE_lKeHhR-10">
          <mxGeometry relative="1" as="geometry" />
        </mxCell>
        <mxCell id="PnPkqlYFe4MIE_lKeHhR-5" value="" style="shape=image;imageAspect=0;aspect=fixed;verticalLabelPosition=bottom;verticalAlign=top;image=data:image/jpeg,/9j/4QC8RXhpZgAASUkqAAgAAAAGABIBAwABAAAAAQAAABoBBQABAAAAVgAAABsBBQABAAAAXgAAACgBAwABAAAAAgAAABMCAwABAAAAAQAAAGmHBAABAAAAZgAAAAAAAABIAAAAAQAAAEgAAAABAAAABgAAkAcABAAAADAyMTABkQcABAAAAAECAwAAoAcABAAAADAxMDABoAMAAQAAAP//AAACoAQAAQAAAO4CAAADoAQAAQAAAKYBAAAAAAAA/9sAQwAGBgYGBwYHCAgHCgsKCwoPDgwMDg8WEBEQERAWIhUZFRUZFSIeJB4cHiQeNiomJio2PjQyND5MRERMX1pffHyn/9sAQwEGBgYGBwYHCAgHCgsKCwoPDgwMDg8WEBEQERAWIhUZFRUZFSIeJB4cHiQeNiomJio2PjQyND5MRERMX1pffHyn/8AAEQgBpgLuAwEiAAIRAQMRAf/EABwAAQACAwEBAQAAAAAAAAAAAAABBwIFBgQIA//EAEoQAQABAgMEBggDBQUFBwUAAAABAgMEBREGEiExNDVBcXKxBxMyUXOBwdEiYaEUQkRSkRUXI0PhFiQzYvAlNjdjgoPikqKys8L/xAAbAQEAAgMBAQAAAAAAAAAAAAAAAwUBAgQGB//EADARAQABAwIFAwMEAgIDAAAAAAABAgMEETIFEiExM0JxciJBUTQ1gcFhoRMjBkPh/9oADAMBAAIRAxEAPwD6pAAAAAAAAAAAAAAAAAAAAAAAAAAAAAAAAAAAAAAAAAAAAAAAAAAAAAAAAAAAAAAAAAAAAAAAAAAAAAAAAAAAAAAAAAAAAAAAAAAAAAAAAAAAAAAAAAAAAAAAAAAAAAAAAAAAAAAAAAAAAAAAAAAAAAAAAAAAAAAAAAAAAAAAAAAAAAAAAAAAAAAAAAAAAAAAAAAAAAAAAAAAAAAAAAAAAAAAAAAAAAAAAAAAAAAAAAABDGokQx1nUYZiNTVnWGUgAAAAAAAAAAAAAAAAAAAAAAAAAAAAAAAAAAAAAAAAAAAAAAAAAAAAAAAAAAAAAAAAAAAAAAAAAAAAAAAAAAAAAAAiQlhVMRE8exiZ/LGnXoTMQjjzhxWd7dZDlE10XMVF27TrE2rX4qtY9+nJ4cn27w+PtUXb2Hm1RXxp472nZx5OWvNsW6uWZdNvDyK6Zqpt6wsSJmZZPHhcVh8RRFdq5FVMxw0l7HRTVRVGtPVzzTVTOlUaSy1gYsm4AAAAAAAAAAAAAAAAAAAAAAAAAAAAAAAAAAAAAAAAAAAAAAAAAAAAAAAAAAAAAAAAAAAAAAAAAAAAAACJNZBLGWT855sT76MT7asolEyiZ0hjNU9x1juxM6x0ZsKqv+pTrKKo/CxMzGsx2ZjroqraP0m4LLb1/CYXC3L2It1aTvfhtxPPnGvJUGb7bbQ5rFdN7GzRbq/yrUbsTE+/Tno8W1PX+ZfHny7HPa/9fZ5nJzL1ddVOukQ9ViYWPTbpr0+pMzMzxlZmQ9VYbw/VWSzsh6qw3h+qpvzPJ1nquMemIqjSnVv8Ni8Thq9+zdqpq/Lt73Y5ftfcpmmjGUaxw/HT9YcP90xwRY+dlY0fRc1hvl8Oxcnda0n8ruweY4XGW4uWbtNUflL3xKhrN+7Yriu1cqpqjtiXZZdthdtbtGMo3qeH46effL0eHxy1cnlvRy1fn7PM5nAb1rWqzPPTH2+6yEzxhrsJmWFxdMVWbtNUcOGvGNXv3vzXlFyiuNaKtYUVVNVE6VU1RKWUcmMSyjk3+/Zrrr90gMsgAAAAAAAAAAAAAAAAAAAAAAAAAAAAAAAAAAAAAAAAAAAAAAAAAAAAAAAAAAAAAAAAAAAAAI1TrDE4tdZCZ0hG8idNEREams/hrrGvdlvQ/K5etWomquummPfM6ebU57jLuByvGYm1p6y3aqqp1jWOHv1fK+b7U57m+v7XjK6qZiP8On8FHziO2HFlZlGPMRMazLuw8K7lazExEQ+hM49IuzeXTXbjEVXr1Outu3TM/wBZ4cHEYH0kZlmWY1xbw9q1Ypp1imY3qp7OfDmpCd3hGuv1/r2Oo2W1/bb3wvqpL/Eb9WvLOkL/AB+FY9ExFUc0vovL9rMBe3aL8VWq+7WnXvdVRftXbcVUVxVE9sSoif8AqYe3B5ji8HXTNm7MRw/DPLRpjcdriOS9TrH5gyv/AB+jXnsVaT+JVZtTr/b2Y/Hlz7a53fqxGaYu7VGlU3J105fJqdXNXVFdU1RPd22qZt0U0z3hPuWbkPVWG7vqrJZuQ9VYbu+rmv6cjqsa8+sS3Xv7w94r/SsOuvc0RxjlwSampMRM9mdq7ds1xXbuVUVR2x9XW5ZtZiLU00Yqnfp/mj2ocfqiXVYzL+PMTRc/hx5GBjZNMxcp6/nourA5xgMbH+FdiZ908J/VtYrp05qCorroriqiqaao9zp8u2pxuHimm/HrKI4f83B6LF49bq0puxpLzeXwC7b1qszzR+PutfWDVpMvzvAY6P8ACu6VdtM8JhuIn3TC+t3rd2nmoq1hQV2rluqaa6JpmPy/TU1hjqJOqOJZiKe1JEsgDIAAAAAAAAAAAAAAAAAAAAAAAAAAAAAAAAAAAAAAAAAAAAAAAAAAAAAAAAAAAAAxmeIwyGEzLCbkR8+WjGrOrPV+Vy5u+75yV1zETMdkPlvabbPaLF47GYacfct2aLlVEUW/waxHDjMaauTKyqceiJmNZl04mJXk1zFNURp+V551t1s/lMV03cR627T/AJVvjV8+TS5R6Qqcwpm7Xg/V2pqmKZpq3quE9uuj5siZmrj2zM/P7rD2amZyynX+erX8+Pao8ji2REa06aL/AB+D42vLXrMyuvaLMcLjNnMxqsXIq/wp1jtfKE/ZbGZXK7eAxW5VNOtE66Km11/pDjuZtWVEVTHWHZZ4fGHNVMVaxJLqdlum3vhfVyzqNltP2298P6oLk60TMuq39NcaO/lH3SiVZp26rTpyzMQqfMun4jxy8L3Zn0/E+OXhWlE/TCqr3SLOyDScqwunOInzVisjZzqu331foiyJ+hNjx9bfoDtV0dtHf6kgMkhqBppOrHfpIGhoT31ZidOyKappqiYq0mOUw6bL9qMdhpii9MXaI/q5qf0Ro6LGVfsVa0VaObIxMfIp0u26ZXBl+e4LG6RRXu1z+7U3lM/nHJQlM7sxNPCY4xMOgwG0uZYTSmq5623/AC1PQ4nHaZ+i9HX8vM5nAKqI5serWn8Lep7UuXy7aXA4rSKqtyuf3Z9/5OjpuRVGsTr3L+zkWrsa0V6qC7ZvWatK7dVL9xhEyzjknRagAyAAAAAAAAAAAAAAAAAAAAAAAAAAAAAAAAAAAAAAAAAAAAAAAAAAAAAAAAAAPzqqiJZtTm925ZwGLu0TMVU2appmOyYa1zFNMz+CmJmqI/Lz5ttBlOV2JuYzE0247KdfxVd0R71SY70o4jG4+xhsss+qs1VxE3K4/FV8o14KdxeLxOLvzdxV6u7XMzxrnen9dX65TP8A2ng9I1/xI+rzuRxK7M100dHpMbhVqnkquTrr9n0dg9rqpjcxVHHdmN+Pq+cM2rprzPG10zrE3q5/qtSqNY/rr/oqTGaftV/3b9Sqpzb2RE03PstZ4fj49UV2vu80cJiVi7MxP9mU/Eqj9VdLF2Zq1y2PiVIr8/8AX0dFnyNjmnQMR4FUfZa+adAxHgVR/ojxtkpcrdCXTbMVaY+uPfR5cXMxzdJsx1h/6JS3Z0tzKC1GtxYaJO0+6uj0rP8A9cqnzPp+J8cvC92ZdPxPjnyeFZ07YVde6RZGznVdvvqVusjZzqu331eSHJ2R7psbe3x2p7fkjtcEd3d6pSAySADAAAAezPvGojT5pDWJ6T3NZ+0aQjSf+vo3mX7QY7AxFMV+soj92r6c2kRKWzkXbE60VVIL2NZyI5blFMwuHJ85t5lbqmmiqmqnTWJ5e90EK72L4/tPfCxIe84feqvYtFVXd8/z7FFnKuUU9oSA7nIAAAAAAAAAAAAAAAAAAAAAAAAAAAAAAAAAAAAAAAAAAAAAAAAAAAAAAAAAANPnvVOP+BV5Nw0+e9U4/wCBV5I7vjr+La35KPk+MJ9qe9sMo6xwfxWvn2p72wyjrHB/E+jxk+r5PcUbY/hak8p7pVFi+k3vHPmtyeU90qjxfSr3jlw426p25O2HnjnCwNluhV+NX8c4WBsv0Krxpb/jlFY3w22adBxHgVStbNOgYjwKpa4m2pvlbyOcOj2Z6xjwS5yOcOj2Z6xjwSmu+OUNryLER90o+6tj0rL0SqfMun4nxz5PC92ZdPxPjnyeFZ07YVle6RZGznVdvvq8lbrI2c6rt99Xkhydke6bG3t/2/JHant+SO1wR3d3qlIDJIAMAAAACEoYbJhE8vklE8vkT3Yns7/YnlivksOFebEfxffCw4e84R+gsez5/wAY/cL/AL/0ALRWgAAAAAAAAAAAAAAAAAAAAAAAAAAAAAAAAAAAAAAAAAAAAAAAAAAAAAAAAAHa0+e9U4/4FXk3Ha0+e9U4/wCBV5I7vjr+Mtrfko+T4wn2p72wyjrHB/Fa+fanvbDKOscH8V4ye1Xyl7ijbH8LTnlPdKo8X0q945W5PKe6VR4vpV7xy4cbdU7cnbDzxzhYGy/Qa/Gr+OcLA2X6DX40uR45R2N8NtmnQMR4FUfZa+adAxHgVR9muJtqbZe9lHOO90WzPWMeCXOxzjvdFsz1jHglNd8cobXkWIj7pR91bHpWXolU+ZdPxPjnyeF7sy6fifHPk8Kzp2wrK90iyNnOq7ffV5K3WRs51Xb76vJDk7I902Nvb/t+SO1Pb8kdrgju7vVKQGSQAYAAAACAglmCUT9Eyifo1ndBPZ3+xH8X3wsNXmxH8X3wsN7zg/6Cz7f2+f8AF/3C98gBaq0AAAAAAAAAAAAAAAAAAAAAAAAAAAAAAAAAAAAAAAAAAAAAAAAAAAAAAAAAA7Wnz3qnH/Aq8m47Wnz3qnH/AAKvJHd8dfxltb8lHyfGE+1Pe2GUdY4P4rXz7U97YZR1jg/ivGT2q+UvcUbY/hac8p7pVHi+lXvHK3J5T3SqPF9KveOXDjbqnbk7YeeOcLA2X6DX41fxzhYGy/Qa/GlyPHKOxvhts06BiPAqj7LXzToGI8CqPs1xNtTbL3so5x3ui2Z6xjwS52Ocd7otmesY8EprvjlDa8ixEfdKPurY9Ky9EqnzLp+J8c+TwvdmXT8T458nhWdO2FZXukWRs51Xb76vJW6yNnOq7ffV5IcnZHumxt7f9vyR2p7fkjtcEd3d6pSAySADAAAAAQEEswSifomUT9Gs7oJ7O/2I/i++Fhq82I/i++FhvecH/QWfb+3z/i/7he+QAtVaAAAAAAAAAAAAAAAAAAAAAAAAAAAAAAAAAAAAAAAAAAAAAAAAAAAAAAAAAAdrT571Tj/gVeTcdrT571Tj/gVeSO746/jLa35KPk+MJ9qe9sMo6xwfxWvn2p72wyjrHB/FeMntV8pe4o2x/C055T3SqPF9KveOVuTynulUeL6Ve8cuHG3VO3J2w88c4WBsv0Gvxq/jnCwNl+g1+NLkeOUdjfDbZp0DEeBVH2WvmnQMR4FUfZribam2XvZRzjvdFsz1jHglzsc473RbM9Yx4JTXfHKG15FiI+6UfdWx6Vl6JVPmXT8T458nhe7Mun4nxz5PCs6dsKyvdIsjZzqu331eSt1kbOdV2++ryQ5OyPdNjb2/7fkjtT2/JHa4I7u71SkBkkAGAAAAAgIJZglE/RMon6NZ3QT2d/sR/F98LDV5sR/F98LDe84P+gs+39vn/F/3C98gBaq0AAAAAAAAAAAAAAAAAAAAAAAAAAAAAAAAAAAAAAAAAAAAAAAAAAAAAAAAAA7Wnz3qnH/Aq8m47Wnz3qnH/Aq8kd3x1/GW1vyUfJ8YT7U97YZR1jg/itfPtT3thlHWOD+K8ZPar5S9xRtj+FpzynulUeL6Ve8crcnlPdKo8X0q945cONuqduTth545wsDZfoNfjV/HOFgbL9Br8aXI8co7G+G2zToGI8CqPstfNOgYjwKo+zXE21NsveyjnHe6LZnrGPBLnY5x3ui2Z6xjwSmu+OUNryLER90o+6tj0rL0SqfMun4nxz5PC92ZdPxPjnyeFZ07YVle6RZGznVdvvq8lbrI2c6rt99Xkhydke6bG3t/2/JHant+SO1wR3d3qlIDJIAMAAAABAQSzBKJ+iZRP0azugns7/Yj+L74WGrzYj+L74WG95wf9BZ9v7fP+L/uF75AC1VoAAAAAAAAAAAAAAAAAAAAAAAAAAAAAAAAAAAAAAAAAAAAAAAAAAAAAAAAAB2tPnvVOP8AgVeTcdrT571Tj/gVeSO746/jLa35KPk+MJ9qe9sMo6xwfxWvn2p72wyjrHB/FeMntV8pe4o2x/C055T3SqPF9KveOVuTynulUeL6Ve8cuHG3VO3J2w88c4WBsv0Gvxq/jnCwNl+g1+NLkeOUdjfDbZp0DEeBVH2WvmnQMR4FUfZribam2XvZRzjvdFsz1jHglzsc473RbM9Yx4JTXfHKG15FiI+6UfdWx6Vl6JVPmXT8T458nhe7Mun4nxz5PCs6dsKyvdIsjZzqu331eSt1kbOdV2++ryQ5OyPdNjb2/wC35I7U9vyR2uCO7u9UpAZJABgAAAAICCWYJRP0TKJ+jWd0E9nf7EfxffCw1ebEfxffCw3vOD/oLPt/b5/xf9wvfIAWqtAAAAAAAAAAAAAAAAAAAAAAAAAAAAAAAAAAAAAAAAAAAAAAAAAAAAAAAAAAO1p896px/wACrybjtafPeqcf8CryR3fHX8ZbW/JR8nxhPtT3thlHWOD+K18+1Pe2GUdY4P4rxk9qvlL3FG2P4WnPKe6VR4vpV7xytyeU90qjxfSr3jlw426p25O2HnjnCwNl+g1+NX8c4WBsv0Gvxpcjxyjsb4bbNOgYjwKo+y1806BiPAqj7NcTbU2y97KOcd7otmesY8EudjnHe6LZnrGPBKa745Q2vIsRH3Sj7q2PSsvRKp8y6fifHPk8L3Zl0/E+OfJ4VnTthWV7pFkbOdV2++ryVusjZzqu331eSHJ2R7psbe3/AG/JHant+SO1wR3d3qlIDJIAMAAAABAQSzBKJ+iZRP0azugns7/Yj+L74WGrzYj+L74WG95wf9BZ9v7fP+L/ALhe+QAtVaAAAAAAAAAAAAAAAAAAAAAAAAAAAAAAAAAAAAAAAAAAAAAAAAAAAAAAAAAAdrT571Tj/gVeTcdrT571Tj/gVeSO746/jLa35KPk+MJ9qe9sMo6xwfxWvn2p72wyjrHB/FeMntV8pe4o2x/C055T3SqPF9KveOVuTynulUeL6Ve8cuHG3VO3J2w88c4WBsv0Gvxq/jnCwNl+g1+NLkeOUdjfDbZp0DEeBVH2WvmnQMR4FUfZribam2XvZRzjvdFsz1jHglzsc473RbM9Yx4JTXfHKG15FiI+6UfdWx6Vl6JVPmXT8T458nhe7Mun4nxz5PCs6dsKyvdIsjZzqu331eSt1kbOdV2++ryQ5OyPdNjb2/7fkjtT2/JHa4I7u71SkBkkAGAAAAAgIJZglE/RMon6NZ3QT2d/sR/F98LDV5sR/F98LDe84P8AoLPt/b5/xf8AcL3yAFqrQAAAAAAAAAAAAAAAAAAAAAAAAAAAAAAAAAAAAAAAAAAAAAAAAAAAAAAAAABp896px/wKvJuGnz3qrHfAr8kd3x1/Ftb8lHyfGE+1Pe2GUdY4P4rX1e1PilsMo6xwfxPo8ZPq+UvcUbY/hac8p7pVHi+lXvHK3KuU90qjxfSr3jlw426Xbk7IeeOcLA2X6DX41fxzWBsv0Krxpcjxyisb4bbNOgYjwKo+y1806BiPhqo+zXE21N8veyjnHe6LZnrGPBLnY5x3ui2Z6xjwSmu+OUNryLER90o+6tj0rL0SqfMun4nxz5PC92ZdPxPjnyeFZ07YVle6RZGznVdvvq8lbrI2c6rt99Xkhydke6bG3t/2/JHant+SO1wR3d3qlIDJIAMAAAABAQSzBKJ+iZYzyYndBPZYGxH8V3wsJXuxH8V3x5LCe84R+gs+39vn/F/3C98v6SAtFaAAAAAAAAAAAAAAAAAAAAAAAAAAAAAAAAAAAAAAAAAAAAAAAAAAAAAAAAAAhqM96qx3wKm4abPZ0yrHfAqRXfHX7Nrfko+UPjKqONXfL35R1lg4/wDMeCqPxVeKXvynrPCfFh4yvSJrjX8vb2+blomY6LTnl8pVHi+k3vHK3Z5fKVRYvpN7xy48aIiqZ11h3ZOsURVp0eeOcd6wNl+GBufEmFfxr2c1hbMU6ZfNWuutyf04Jb+vJKKx5IbTNI/3DEeCVUf6LYzToGI8Mqo93dDTF2S3yt5HOO90ezPWMeCXORzh0ezPWP8A6JTXPGhteRYiPulH3VselZeiVT5l0/E+OfJ4XuzLp+J8c+TwrOnbCsr3SLI2c6rt99XkrdZGznVdvvq8kOTsj3TY29v+35I7U9vyhHa4I7u71SkBkkAGAAAAAACUJRPInTTv1Z6zpo7/AGJ/i++PJYcK72JmIjF98LD7Hu+EfoLMT9ofP+Lzrn3/AJJAWitAAAAAAAAAAAAAAAAAAAAAAAAAAAAAAAAAAAAAAAAAAAAAAAAAAAAAAAAAAHhx2GpxWHvWKqpim5RNMzHZq9wxMRMaSRMxOsPmzO/Rbm+Fmu7ga/2m1vTO77NcflEcnCYLCYjDZthbeIs12q6bkaxMTTp3+99mTTGnJrcblWX43cnE4W1dqonWiqqmJmmfy1VN/hVFes0TpMrbH4tdo0puRzUwpnD4LE4maqbNqqrWJ4qcx9FVvG4mirnTcqifk+zIw1izamm3apoiKZ4Uxo+O84j/ALWzD8sRX59ipv8ADYxLcaTrK3xeJ1Zt6YmNKY+zW0+1Cw9meq6fHV5q8jWJ/VYmzXVlPjr81dfif+PVZ2Jj/liGxzToGI8CqPd3LXzToGI8Eqp93dCPFmOSdEmT1r9iOcOj2Z6w/wDbnzc393U7LxE467w/y/qmudaJhDan69Xfo+6YR91bHpWnolU+ZdPxPjnyeF7sy6fifHPk8Kzp2wq690iyNnOq7ffV5K2WTs51Xb76kWTsj3S406Vt/wDaEdqUK+I6arCdyQGWJABgAGYiZ7AgIiTln8JGPFlFMzVpETVOvKP9GaYqmdIhrVVFPWrpCExGs6RGvHlDpMBsxmGKiKq4i1Rw4zxn5O3y7Z7AYLSfVxXX/NVx4/lqtcXg9+/MTVHLHfqp8vjeNYiaaKuaf8NRshhL1m1iK7lE001aaa9rvIjg/KmmimPw0w/WHsMWxFizTbiddHjci9N+9Vcn1JAdKEAAAAAAAAAAAAAAAAAAAAAAAAAAAAAAAAAAAAAAAAAAAAAAAAAAAAAAAAAAAAmNUTTCQH5buscfe4XaLYLI843rnqvU35jhdt8OMdsxyd7xYzTOqG5apuU8tUaw3t3K7dXNROkvlLPtg89yaqa/UTfsaz/i2o1/PjE8dWw2Yoqqy2mmmmZn1lcaRHHXXt0fTVVGtOkx2Tw7Gvs5TgLFyq5Zwtu3VVOs7tMU/Ph2qnI4PTXMclWkfdc4/G7lERz06zHb/wCqjzDZ3G/2PjMRepm3RTamYiecqK4cO6H19tbGmz+ZaRMz6ieH2fIWk+/shX5eFbxtIo7ff3WGFn3crnm7y683Rj93VbLdNvfC+rldJdVst0278KPNX19YmIWVEfVGrvkT9TnOnafdWxMc0R91pPSidVT5n0/E+OXhe7MunYnxy8Kzo7Qqqt0oWXs9Ru5Vame3Wf68FarOyHqrC+GfNHfjWhLY3twmER9Eq6Nqw+4AawwAasghOqaKLldUxTTNVXZEQzTTNU6RGssTVRTGtc6Qx4/kyppqqndpiZmZ5RDpcu2Wx+J0rvRNqidOfOXd4DIcFgopmi3vVR+9Vxn5arbE4NkXtKqtaY/ypszjeNY1ptzzVf4cHl2zGOxO7Xdj1VudOM+18nfZdkOAwVMbluKquH4qo1luYoiIjgy04PS4nC8fH66c1X5l5jK4plZM/VXpT+IY7sR/ROkJ0lKx0nTSOiu7z1g0ZI0SRr92QBsAAAAAAAAAAAAAAAAAAAAAAAAAAAAAAAAAAAAAAAAAAAAAAAAAAAAAAAAAAAAAAAAIljLKdUafmwxP4ee7RTcpmmqmJieE0zGsSrzPvRtkmZRVdsROFvTzqt+zVPuqidf0WUIrlmi5TpVGqS3duW51pq0fJuebD7QZPNVVWG9dZieFy1x/rE6y8uy/Tb3wo1j3fi7X1xcppqpmKqYmJjjE9rmLmyWSV42cZ+yU0XZj8W5+GmflGinyeExVr/xTpMrnG4zVR5adYhW2EwOKxlcUWLVVf58oj58HbZdsfbp3a8ZXvTrrFEcvno7OxhbFiiKbduKYj3R9n7aTw72cbhFmzTE3KeeqKf4aZXG8i/rTbnko/wBy+PdpqKLeeZhRTGlMX5iI+TQug2p/7wZl8eXPqi7FMXKojtzL6xNU2bcz35YFm5D1Thu76qy9yzch6qw3d9XJf8brsb257fmHb8xXxGtKw+/RKDhPCWdu3Xdr3aKZqmeyI18maaa6quWmNf8ADFVdNNPNVOn+fswllRbuV17lumaqp7IdXluyeLxExXiZ9XRw4fvS7rL8nwOBpiLVuNdfamNZ/Vb4nBsi9MTXHJT/ALUmZxyxZ1po/wCyr/ThMu2UxWImmvET6uj3dv6O5wOTYLBUxFq1x/mq4y3MRERwZRyemx+HY1iI0p1q/Ly+VxHKyZnmq0p/EdmNMaRocdYTxI5u/SO0dFf1+/VmA2bAAAAAAAAAAAAAAAAAAAAAAAAAAAAAAAAAAAAAAAAAAAAAAAAAAAAAAAAAAAAAAAAAAAAAACNPzSAjT8zRIMaI3WM0QzBnSH56MauTNExq1ntox99Xyztrs3nOEzTGYu5hK6rFy5NUXKI1piPz010cFETPLjHvjk+3q7NFdE01UU1RMcpjWP11V7n/AKN8mzT1l6zT+y4iqJ/FR7Mz/wA0cf0UuTwyqqZqonqvMTisU000XY6R93zEs3IeqcN79OXzaTPdiM+yiud+xVesxPC7bjWO+YjXR0Ozlm7ey3DUW7dVVW7yiNe3tUOTYu0RyTR1egxr9mueeLlPLH+Wz468v1fpas3btcUW6JqqmeUcf66Ovy3ZDE3tK8XO5Tw/DE8Z83c4LK8JgqIps2qYj36cf1T4nBL9f1XZ5aUGbx6xbjls/VV/pwmXbJ3727Viqtyj+WOcu5wGUYHBURFm1ET/ADTxn9Wz3Y05MuUPR43DsfHjWmmmZeXyuIZORM89yrl/H2RFMTLLdgpZO+Ozi6I0ToBoyjQ0/NIyAAAAAAAAAAAAAAAAAAAAAAAAAAAAAAAAAAAAAAAAAAAAAAAAAAAAAAAAAAAAAAAAAAAAAAAAAAAABIAwTwZDDGjDiiY/N+gyTGrz1W6a40qjeiY4xPa8tjAYXD702sPbomee7GjYp0aTRRPeNW0VVxGkVPypiITq/Q0hmIiOzWY1YRyNGYzoRDGlkBEdGQBkAAAAAAAAAAAAAAAAAAAAAAAAAAAAAAAAAAAAAAAAAAAAAAAAAAAAAAAAAAAAAAAAAAAAEa8UsKp01B58Zi7WDwt/E3aopt2qJrqmeyI4qw2X9LOV7Q5xRltGCuYeuuKtyuuuKoqqj93SNOMvw9MedV4LZmcDZrqpvY65Fv8ADz9Xyr5d/BVm1Ozl3Y/B7G5vhqfVYi3NNGImmf8AMjjrrHOZiZB9Za8kb3HR4svxtrHYLD4q1xt3rdNdE/lVxhyW1O22E2ezPKcDew1d2rG1VRFUTuxRFOnGefvB3W8aypbOfTNk+Cxl+xgMBdx9NmZpuXqKt2iKo4cJ0nV0mzfpJ2ezvL8Ti67/AOyzhqd6/buzpuxPbGumsAsXWWUTrCicd6cMsw+ImLOU4i7homP94mrcjSeGukxPyWts7tHluf5bax2BuTVRVMxVTVGlVFUdlUeQOgngiatIc1tNtXk+zeDoxGYXppiurdoopjWqqefCFYXfTLXFFV6nZfGzh4nhemvSJiO2fwgvPe8jelx2yW2eUbUYSu9gqpprt6RctVe1Gv0anbXb/D7K4rCWbmAu4mb9uquN2rdiN2dNOU8ZBY+sm93KCr9OuDop35yHERHDj6zhxnT+VcGz2c2c8yfB5naomi3iKZqiiqdZ4TMfl7gb3eN75qy2q9J+SbP4urBUUXMXjI9qzbn2fyqnjpLm7Xpqwtu9bpzHIcXg7VWmt2at7TXhrpuxwkF4zOnbEd6Irn3NVlebZfm+As43A34u2blOtNcf049zirXpKyWM3zvAYqmcPTl2sV3rlXtzHHSmJ04gszVMcYULf9OOX03pmxkuJuYeJ/4017uke+adJW5s/tDlufZbZx2BrmbdevCY0mJieMTAN+/K9c9XauV/y0zP9I1fq82M6LiPhV+QKQr9OmXRdu0UZJiq9ydJmLlMecH9+eC4aZBjO3/Mp7Pdwcv6FbVm7nOexdooq4RpFcRVy92r6NpweCnT/dbM/wDt08P0B5chzqM5ynCZhRhrlqm/RFUUV+1TE8ePJo9qdvcj2Zp3cXeiu/VRvUWKPbmP10114N3nGPs5RlGLxulMUWLVVUREaR7o007NXz56MMh/2qzrMdoc5p9fuXdaKa/xUzcr48Ndfw08ogHSR6bb0zNz/ZfGeoif+Jvxpp36LH2U25ybai1VOCrmm9RTrds18KqI5a9msfnDqYwOFijc/Z7W7ppu7lOndyavB7NZRgMzv5jg8HbsX7tv1dz1cRTFca73GI7eAOR2p9KGTZBjKsDRZu4zF06b1m12b3GOPFyVn04WbWIot5jkOKw1NUxG9VVHDXt005Qt61s9k1jHYnG0YCxGJxG7N25NMTM7sadurkPSZleW4jY/M671i1FVqmmq3XuxFVNWsRpEx7+QO7y3M8LmmDsYzCXIuWLtOtNcdvZ+jZKN9Bd29XsxjKa7lU004vSimZ4UxuROkLyjlAAAAAAAAAAAAAAAAAAAAAAAAAAAAAAAAAAAAAAAAAAAAAAAAAAAAAAAAAAAAAD864fo0O0Wb2cmyjHZhe9mxYqq0mdN6Y7I7wUZndcbV+lfA5fRE14bLaom7E8taJ/H9Fn+kXIas52Tx9i3RNV21TF2zER+9Rw4fKVD7EbA5ntVhsZnH9r14WbmIrp34iZqrnnM8NODuZ9DmazExO1d7TT+Wr7g3voazv8AtDZf9kqmqbmCuTRrP8k+xp3RDi/TlTFWdbNxvTTrF2N6OcazTHDvavYq3iNifSNVk+KuTVZxNM2qKvZivenWi5Ov5Q2nptnXPNmJ58LnnSC88l2fy3J8tsYLC4aiLVFMb2sRM1z2zOvvfNWL2Wy676WbmT1RVThb92Llyi3O7rTX+PcnXXg+tafZp7o8nzjif/HSz3Wv/wBcgu/HZLls5NicBTg7NNj9nrpiiKY3YjThz9ymfQhNdi/tDg6bmtm3f0iI99P4dfmv/GdExHwa/JQHoY612n0mIn19X/5a8QXdmeV5TjYs3sfhbNyMPVv0V3P3J97SYna7YyxrZv5xl2kxpNO/RynhMToq70zZljqsxyLJLd25aw+J0ru7s6RV+OKeP5Rq77B+jvYjBYOmLmV4e5TRTM137kzMzpzmeMAqb0WYq1b9IWdUYOqirDX6bu7u+zu+s3omH0xXat1aTVRTM+GJnj36vl70Y04Sn0k5lTg4txh49b6qKPZ3Ymfetn0l7W1ZBk84fC/ix2M1t2aI9qKZ1iqrs5dn5grza7EV7b7X4XZ3LtyMHhatcTdoo5z+9MVR2acI/NeGKixkOzeI/Zqdy3g8HXNuIj+SmZifnPNyfo12Up2fyeL2JmmrH4rS5er14xrxinj7ucuz2hw9WMyHNcPaiJru4S9TT26zNEx2Apj0NZPZxtrMtocXRTdxF/F3KaJq4zRyqnTX37y5c6yTA5xlt/A4qxbqpu0TTru6bkzwiqPzjsVD6E84wtvLMbklcxRirGKrrmmqdN6NIp/D3bq5M1zfCZVgcRjcVdim3ZomurWeM6cdI7+wFF+hXGYixmW0OTzcmqzaqiuinXhE700T+kOdynIsFnvpYzvCY2ma7NOLu3qrfZVNvSYir8p14uk9C+Ev4jNdoc59XMWL07lFU9tW/NX9NJebYz/xlz6P+bE+VIL7xGT5fiMFVgruEtzYrt7k0RTHLlw7lLehS7VZxG0uA/FNu1fomnXs9rV9A/vQ+e/Q319tb8W3/wD0D6FpnWPzfhjeiYj4Vfk9Mcnmxmn7JiPhV+QPjjYXBbXYrMc1p2dxlFiumda5qqinX+q1LOSemGL9qbmd25o3o3oi5Txjt/o0HoRqinOc97I3Y0mZ5vpKLtGnt08vfAOB9J9y9RsPnFVqNZ9VTvaR2TXHJo/QrTZjY+3NMU737Ve3pjnwqnmsDaTLIznIsfgKauF+xNNMx74/FHkoH0T7UWdnswx+z2bVTZqqxGluuqNKablOsVUzr754g+oR5Yv25p1iumaffrziWlw+0mUYnNrmV4fFUXMVbs+suU0cYpp13dKv6g6Gr8uE+989+lbaC/mWNwuyeVTNy/eronEadmvGIn8o9qXU+kD0gU5TM5PldNV7Nb1MUxFMxMWd/tq/Oew9Hmw0ZHRXmWaXqb+aYiNblU1RVuRVx046fintB2OyWz1nZ3IsHl9ERNVFMTdqj9+urjMz3a8HWvPFymqZiJie6eX9H7xygEgAAAAAAAAAAAAAAAAAAAAAAAAAAAAAAAAAAAAAAAAAAAAAAAAAAAAAAAAAAAOP2z2aq2lymcu/bZw1NV2iuquKd+aop1/Dzjm7BhVTM8p0Bodmciw+Q5PhMutVb8WaNKrmm7v1dtWnHm6BERMMgVdtf6OrO0eaYHMLePqwl6xERMxb397SYmnTjHLtZbZ+j+narFZbia8xnD1YSKuVvfive0n3xpyWXuzrMm7OuvbqDCJnSNOXD5q7ubBW69uKNpv7Rnep3Y/Z/V/y07vPX6LHimdNJ0IpmAflfom7ZuUaxG9TVTrz01jRwOx2w1GzWMzG9RmHr4xVczNG5u6azrw4ysTSfyIpn8wcRtnsTlm1WDt2sTvW71v/AIV6mPxU/l2cHE2fRfntzD2sDmG1+KvZfRux+z00zTrTT2a708F26SboKx2f9G+AyLaO7m2FxVXqptRbpw80ezpG7rNWv9eD89tPR3TtRmuEx39qV4SvD2pt06W97XWre4cYWhNGumsROid2QUf/AHT5trVptrjYnTnufL+ZZuzOS38kyujBXswuYuqmqZ9dXGk8eP5ukimSYnkCntovRNgcwzO5meXZhcy7FXKpqqqpjejen+XSY017Wp/ujzTH3aIzrazE4uxTVTPqqqeenHtqn5L3ingiKZ1/1BqspyjAZPgbOCwGHptWLdOlNMR+vfLi8m2Bt5Ztjjtoacwm5OJm5M2PV6bvrNI9rWeWiyNydNNITuzrr+moMapnSrSePk4HY/Ye3s1j81xNOMqvzja6app3N2KN3XhrrPvWDuomjh9wZUzrDC9RFdq5RrP4qZjh+caP0iJJjWNAfP0+g6mL965a2hu2vWVTMxTZ4x/9zKn0LXY0mNqr8Trzm1/8l+7qdJBodnMoryfKMLl9eKrxE2aYp9bVGk1RHv5uU2w9G2TbSVxiKqqsNi4jT11Hb4o4arIinu4m6D58o9DWb062f9q70YeauNMWp5f/AFLJ2Q2EyfZemuvDRcu4m5Gl2/XxmqOelPuh3e7Huhjuzr2d4KLzT0MUZhm2KzH+3rlu5dv13Y0tazRva8p3o5a8Hn/uTvaf96MRPOf+F/8AJftNMxCZiZBWOxewd3ZjHYi/VnN3GRdsRbiiqjd3Zid7XnKz45Qw3Z04+9+gAAAAAAAAAAAAAAAAAAAAAAAAAAAAAAAAAAAAAAAAAAAAAAAAAAAAAAAAAAAAAAAAAAAAAAAAAAAAAAAAAAAAAAAAAAAAAAAAAAAAAAAAAAAAAAAAAAAAAAAAAAP/2Q==;" vertex="1" parent="1">
          <mxGeometry x="514" y="388" width="102.93" height="58" as="geometry" />
        </mxCell>
        <mxCell id="PnPkqlYFe4MIE_lKeHhR-10" value="" style="shape=image;imageAspect=0;aspect=fixed;verticalLabelPosition=bottom;verticalAlign=top;image=data:image/png,iVBORw0KGgoAAAANSUhEUgAAAyAAAAH0CAYAAADFQEl4AAAACXBIWXMAAAsTAAALEwEAmpwYAAAgAElEQVR4nOzd53cc152v+++u6hyRI3OmqGgFj4M8Z+w54xPuum/u33nWOuucO2uuZ3zkJEuULDGJmQRAIqcGOseq2vdFN0BCpGQFsJCej5dsEWjZ5QWg0U//au9trLVWAAAAABACZ68vAAAAAMDRQYAAAAAACA0BAgAAACA0BAgAAACA0BAgAAAAAEJDgAAAAAAIDQECAAAAIDQECAAAAIDQECAAAAAAQkOAAAAAAAgNAQIAAAAgNAQIAAAAgNAQIAAAAABCQ4AAAAAACA0BAgAAACA0kb2+AAA4CKyV/CCQ71tZWRlj9vqS8HdYa+U4RlHXFV8uANg/CBAA+A5aHU+FUkPrpboCK7mu040QK1nZvb489BgZWVlZKwXWKpeKaXwgrVQiuteXBgDoIUAA4BtYKzVabZVrTS2uVfRkqaj5Qk2+NYpGo5Ls9gte7A9bX4/ASn5gNdqf0pXTQxofSCubiikRYRoCAHuNAAGAb1BrtPR4bk13ppf11cNFLW42VPOMjBtVNBqTtVbGdG/1wf5gjJG1VoGkIJAG8gnNbjZ0+fiALkz26dhAStkk0xAA2EsECAA8p95sq1RtqlhpaGG1qK8eL+nWowXdmVpS20YVSabkxpJyIx1JlvjYp6zt3oa1Ufe00ZaKDU/lZkebtZzG+5LKJKLKJKJKxty9vlQAOHIIEABQd4F5q+1remFDtx8v6u70smYWCyoU6yqUaipVm4omXRk/kAmsFFh1AyTo/TdwX8++0guQjheo3uxorlBTteXpwWJJY31JnR3L6cxIVieGMkrEXL56ABAiAgTAkdbqeCoU61rdqGhhraQHT1Z1d2ZZD5+uqlBqKLBWNggkWdnA6waHDSTr995l7wYIu2LtD6aXEoENZAMpCHxJVvW2r1apqdVyS3PrVa2Xm1orNbRaamgkn1RfOq58KqpElIkIALxqBAiAI8cPAnleoFbb01KhrBsPF3T78ZLuz6yoWGupUm2o2mgpsOouWP5aW+xcdE547CfPf22sul8/s50l3a99tWU1vVrTSqmlr2Y3dXwwrQsTfTo/ntNYPqlY1JXrGDl8aQHglSBAABwpnhdoZaOihdWS5lY2NLOwoYezq5qeL2hxvSxrXMn63S2wtnX/fmtdwc6/th7Hq9X9ZOfXRlJvIrL1sVrLU63labUUqFhrq1hra6VY1+RAWmP9KQ3nEhrMxBVx+boCwG4jQAAcep4fqN3xVG92tFmu6/bjJd18tKjbjxdVKDdVb7bUaHZ6u1r11nSYrzUIDjSrZ4lopG6Q9D5RqnfU8qta2GwqE9/QufG8zo/ndH4sp750TLGIo2jEUcRx9uryAeBQIUAAHGpBYLVRrmt6vqCpuXVNza/r6dKGFtZKWlorqROY3rqOXm1sLyrv/dE+m3zg4LHWbh9M+LVPbP+tFwS9iYivjbKvRtvXaqmumZWKJgdSmhxMa7wvqeF8kjkXAOwCAgTAoRNYq1qjrUqtqVKlocfzBV2/P6/bjxc1t1ZRq+3J8z15XiAZychyB9UR8vUWMdZKQdA9P8QYrVfbKjU8PVmrazAT1fnxvM6N5XRm1FcmEVEqHlEyFmGNCAD8QAQIgEMlsFalalMPnqzq3syyHs2uaXZ5U6ubVRU2a6q3/a1HqnuS+U5MOg6/rXUgO3Yus8/W+fhBID+wanZ8NVpt1VueZterujO3qRNDGZ0ayerkcEZ96RjdCgA/AAEC4FCoNdrarNRVKNb0dHlTXz1a0p3pJT2aXVO95Xfv+e+tHDc7FgMAzxipOw3p/bljjVYrbRVqnp6u1bSwUdNaualira2J/qTy6Zgy8ajSCX6dAsB3xTMmgAPN8wLVWx1Nza/p5sPuAYJPlja1Wa6rWKmrWm/JcSMv3HazhYkH/u63gO1uZNDxAs0X6irVO3q8XNZoPqGz43mdG83p5HC6e1uWY+haAPg7CBAAB1Kj5Wlts6Ll9YrmVjf18Omq7k2v6PH8ujarre6ryt6Ccht4O/5ZogPf5IVvDWtlrb/98UbHV8MLtFZpaXGzro1aW2ulhpaKWY3mkxrMxtWfjikZ49crAHwTniEBHAjWWgVWve1021pcK+vGgwV99WhRD2dXVW50VKk2VG+2pa0DBIFdZtQLWCPVW56ertW1Vm7r9lxRJ4bSOjeW04WJvMb7kopHXUVdR44xfD8CwHMIEAAHQscLtLxR1uxSUdPz65peKGhmYV1Pl4taKVRkHFc2CNRdXL4TEw/8UC+biOi5bX3rbU/1ji8bBKo02tqstrS4UdPkQFoTA2mN9SU1kk8qyoGGALCNAAGwb3mer2bbU63Z1vpmTbenlnT9wbzuTC1ro9JSs9VWu9ORZLunl6u7wJzgQBi2DzTsNonKjY6anZoWii2lZjd1diyni5N9ujCeU38mrkTEVTzqKOJyoCGAo40AAbAveX6g1c2qHs+t69Hcmqbm1zW/UtTSWlnLhbJ868pa/7na2FkdRAhehZdPRLr8QGp2fLU8q5LfUdsPtFFtaWq5pMnBjI4PpnV8MK2RfJIzRAAcaQQIgH3D8wPVG22Vag0VinU9mlvTjQcLujO9rMX1itodX77vy/MDGWM5QBD7itlesO7LyKhY66jaCvS00NDj5YrOjeVUGM/pzEhOuVRU6Xj3UEOXGgFwxBAgAPYFzw+0Ua7rwcyK7s4s6/6TVc2vllQoVrVZaajZDnq3V22t8Xj5xIPJB8Lybd9qVlZ+YOV3fLW8QO1WW422p/lCTbdzmzoxnNHpkazOjGTVl44RIQCOFAIEwJ4JAqtqo62NUk0rGxU9WdzQ7akl3Z9Z0fRiQY1Wb1F57wBBqTfw4LUa9rkd60MkdYxRodrWZs3T7HpNi8W6VksNFSpNHRtMqz8VUy4VUyYZ5dsbwKFHgAAIle29Iut4gcq1hqbmC7rxYEF3p5f1dLmoUrWhcm87XceN9NrjxfeamXRgv/l735Km95iW52tps6Fqw9P0SlUjuYTOjWV1diyn06NZpWIRRVyHdSIADi0CBECoas221jZrWlgt6snihh7PrenB0zXNLKyrXPck2d52uhwgiIPr5QcaWm1tE93qBGp7bRVqnlaKdRVrLa2WGlrcrPe27k1pIBNTOs6vaQCHD89sAF4payXfD9T2PFXrbc2tFnX9/rxuP17Uw9l1VZsd1RstNZrt5/+pPbte4FXrDja6Z4kYBWp0As1vNLRe6+j+UkWTfUmdm8jp4kReE/0pJWKuYq4j13E40BDAoUCAAHilGu2OltcrerKwrqmFgmYWCppZ3ND8yqbWi3UZNyIb+JINXnhxxcQDh8Xz38rd9SE7DzRsdDw1PavNakuVekvFeksLG3VN9qc0MZDS5GBao7mk4lHOEAFw8BEgAHZdx/PVaHmq1ptaWq/o9tSSbjyY1/0nK9qotNRue+p43dutFHjb98YDR9FWkFjryVqp2pKerte1WO7o7uyGzozldGEir0sTfRrIxJWKRxSPOopyoCGAA4oAAbCr2h1fS+tlPZxd0+O5NU3NrWlupajlQkWFYk2BnO5Wui85QJCJB46Cl36b7zjQMFBgpXbgqeq11QmsCpWWppbLmhxI68RQRieHMxrNJxVxuScLwMFDgAD40Tqer2q9pVK1qZWNih7Nrun6g3k9fLrWPUDQ8xX4vmxgJcPEA/g2WwcaKggkGZUanqqthuY3m5peqejMSE7rlaZOj2Q1kIkrk4goHe/unAUABwEBAuBHaXd8rW5W9ODJqu5MLevh7KoW1sraKFVVrDTV9gIZY7rxIfvCGQdMPXDUffOPgJWVZAMrawP5gbTabqvZ9rVQrOurpxs6NZLT6ZGMzo3l1JeOKRYhQgDsfwQIgO/ND6wqtabWilUtr1c0Nb+uezPLuj+zormVkhqdQLL+S+uC4AC+3fM3J24daCgb9DbwlTbrHZVagRY36lotN7VSrGu93NDkQFpDuYT60nHlklF2zAKwbxEgAL6TrQMB256vjVJdU/PrunZ/TvdnVjS/Wlap1lSl1lCz1ZFxXMmYlx4gCOCHM8Z0A8VadfxAK8WGqi1fTwt1DaWjOjOW08WJPp0eySidiCgWcWRkiBEA+woBAuA7qdSbWilUNLdS1MxiQY9n1/VwdlVzK0VVGx1JprudrtSdfjyHDgF+mJcdaChZWT+QldT2jTq1tkoNX6vFmkqNjtbKTc2uZzTRn9JoX0LD2YQyyWj4Fw8A34AAAfBSgbXyvEDtjqdKraWZpQ1dvz+vrx4t6snShqpNT41GS41Wu3uriGFpORCm7aGGtVLgq2UDLRYbKtQ8PVyqaiwf0/nxnC5N9unYQFrJ3va9rmPkMBIBsIcIEAAvVa23tbhW6h4cuFDQ9EJBTxY3tLBWUrHy/AGCbKcLhOXF9SE7DzRstX21faNyo6NKvaFSva2Fzbom+9OaHEjp2GBaY31JpeL8+gewd3gGArCt1fFUb3RUrjU0u1zU3ell3Xgwr8fz6ypV22p1PHme131w4Mv0dukBsPe2DzT0O7JWalijhWJTK1VPDxaKOjWc1dneoYaj+aQyiYiSsQg7ZwEIHQECQJLUaHlaXCvp3syyHs2uaWq+oPnVTa1tVlWsNGTldBeVv2TiITH1AML29R85s/XR3icCK3W8QF7gq+G15flW65WmHi+XdWwwrdMjWZ0azmi0L6lE1A334gEcaQQIcIR5fqByramNUl1L62U9ml3TjQfzevB0VWvFulodv3dquST5HCAIHBDbt2dZv7c5hFGl6anaDrRU7mi+UNNysaH1SlMnhzIaySeVS0aVTUblOqwPAfBqESDAEdXxfG2UGro9vaQv787q8dy6VjaqKpRqKlcb6vhWjmO6t3RY+8I2nkw8gP3l+R/JFw787K0Tcazk+4EKlbZanUDLpZZuJTZ0aiSrCxM5XTk+oFwywiJ1AK8UAQIcUZV6S1/ee6q/3pzRl/fmtFSoqu0FvXdNu0ee2eDZ4wkO4OB46Y+rtbK+1z1dXVKp0VGlLS3K12q5oXrbUzoe1fHBtLLJKGtDALwyBAhwRC2ubOj3V2/r+sMlbVY6anf83la63GYFHAXd27R8+dZqo+bp8VJJ/amo6o22RvIJjfWnOT8EwCtBgABHTBAEWlhZ07W7j3Xz/oyWC03JTXQ/yQGCwKH2/I+0tYGs35t2uq42Ki09nN/UwnJZ6bijDy6O6c2zI0xCAOw6AgQ4QoLAarVQ1J8/v6W//O2u1tYLskr27ve2O265AnC42d47DI5xZK2vji/NrlZUKtXVanvy/ED5TFyTQ1nODQGwq3hGAY6Q5fVNfX7zvn7/yTXdmVpUoxHISSS2P7/1gsSwABU4ArZ+zq2MpI4fqN5saqPUUK3W0qd3FuUYo39+96QuTPZ3N6UAgF1AgABHgB8EKpVrunrjnv5w9YZu3p9WqebJuCmZ3osPbrcCjpreD31vAup5gRpNT37gS7J6slpV+8ac+jJxxaOuJgYzinNeCIBdwI2dwBGwvlnSF7cf6qNPb+jzWw9VqtQkPZt0WGsJEOAIs9YqsFaeH2xPQjteoOXNmj66PqffffFEK5t1NqgAsCuYgACHWBBYlWt1Xb/zWB9dvakv7zzS2mZZ1lo5sjLGPHe7FS8tgKPk2c++6f5le6eoWyNjJBv46niOHsxvquP5Gs6nJFkdG86Ju7EA/BhMQIBDrFSp6asHM/ro6k399dpdFYqV3l3fz149WEYfwJFmre0eVLj199trwbp/bntW8+sV/e5vM/rzrXkVqy0mpgB+FCYgwCFVrTd068GMfvfxl/rs5gMtr292X1j0XjkE1spY+8KJyQCOhm/bdMLa3tIQSbKBas1A92Y3FI04Gsgl9fbZEU0MpkO8WgCHCQECHEKVWl0PZhb0p7/d0h+u3lShVJHUnXvwxiWA72orQqy1anYCPZwvSlen1W77+vVPTiiTjPa28QaA744AAQ6ZerOlBzPz+tc/fK6Pv7yjlUJRkmR66bF1iwUvGQB8m+6E5Pm3LaxK9ZbuPF1XKh5VMhHVT86PaDif3MOrBHAQESDAIVJvtvRwZkEff3lH//HXa1rdKEs2eOktFua5vwDg23SfQqysNWq0fN1+si7PDxR1Hb1/aUyZRFQMQgB8VwQIcEi0O56ezK/o3/70uf567a6W1zcVPHe/FYvNAXxf9vmjQnofCCRtVJq6+3RduXRMgaz+4dK4MsnoXl0mgAOGAAEOgXbH0+Oni/rrtTv6w9WberK4tn2bFdkBYLdsTUICa1SstfXFw2W1PF+5ZEyXTgwol4rt9SUCOAAIEOCA8zxfy2sb+v0n1/X7T65pfmVdnu9L1r701isA+L5eOgmxUqHc0p2ZdfWl42q2PX1waUyJGC8tAHw7niWAAywIrGYWVvTZjXv6099u6d7UnHzf3/EYIgTAbjPGylopsNJ6qaHP7i2p0/GVS8d1ZjzPJATAtyJAgAOq4/kqlqv65Nod/c/ff6rp2UX5QSDpxehg/QeA3fD8JGTrdizPD7RSbOrG1JoyqZjanUm9c25E0QhnHQN4OQIEOKAWVwu6ev2e/vT5Ld199FQdz3vhMYQHgFdh+6BC233ToxNYLW3UdPXukhxjlElEdXIsp3SChekAXkSAAAeM5/sqVer68vYj/Y/ffazHc4vb8cHtVgDCthUiHd9qvlDX5/eXFHUdfWiP6eLxfsUi7l5fIoB9hgABDpiNYkV//ttX+ujqTd2fnlO13nzhMUw+ALxqOxam20CSUccLNLtakbSgaNRVLOLq5GhOiRgRAuAZAgQ4IKy12ixX9dXDGf3rHz/XrQczqjdbktjtCsDeM8ZK1lezY/RktaardxflGEnmmM6M5xV1WRMCoIsAAQ6IWqOlT3rnfNybmtVmqfLCY5h8AAjbzi16rbqTEF/Ty2V5fqB4NKJYxNWxoQwL0wFIIkCAA2GzXNX9qTn9x1+v6ZNrd1Wq1qXeMYNMPwDsJ0aBZKVay+jxYknpxIKMkX75+qQmBokQAAQIsO95fqDrdx7r3z/+UjfvTWujVO2ecm6MuhHC5APA3nvhsEJZtT2rBwsltTqe0omoXMdofDAj1+GNE+AoI0CAfaxSa+jx00V9dPWG/vLFba1vlvX11iA+AOwn2yES+JKVKk1fD+Y2lUvPy/cD/ezKpEb7UnJdIgQ4qggQYJ8KAqsH03P63x99ps9u3tfaZlme5+2YfADAfmaMpMBXK/D11ZNNtTuesqm43LPDGsonmYQARxQBAuxD9WZL07NL+uPnt/TXa7e1sFKQ5/k7HsPkA8B+9uywwu5zV6Xp697shjKJp+p4vv7hyoT6M3E5rGMDjhwCBNhnOh1P07NL+n//8Jn+eu2OFlY21Gp7vfuq+UUN4OAxRrJ+RzVf+nKqoMAGymXieu3EoAayCdEgwNFCgAD7SKfj6f70nP742S19/OVtzcyvqNXu7HgMkw8AB8XOwwp9BXJUrnd0e6agaCSijhfo/QujyiRjRAhwhBAgwD7R7niaXVzV7z+5ro+/6MZHo9XmlzKAQ8PISkFHG1VfV+8vKxFzlYpHdPH4gPoz8b2+PAAhIUCAfSAIrKbnlvTXa3f1ly++0qOnS2o0W8/vZ8nkA8Ah0H0eC6xVpd7WFw+X5fmBrLV659yI4lGXs42AI4AAAfZYu+NpZX1TH39xR3/8/JYePllQvdm97YpfwwAOJRtIklaKTX12f0l9mbjiUVcXjvUrk4zt8cUBeNUIEGAPWWs1t7Smv331QH/47KbuTs2p3mjJOI44ZBDAYfH1Qwq3/jMIpGK1qY9vL6rR8pSIRXRusl9R1+H2U+AQI0CAPdLxfK1tlvTpjXv6w9Ubuvvoqcq1ZveTvd/WxAeAw+SF09KtLytpfq0qGwQayifl+VYXj/crHnX36jIBvGIECLAHrLVaWd/U57fu6w9Xb+ja3SlV6g1J4v5nAEeGMb0oMdJqsaHfX5tVo+Upn45pbCBNhACHFAEChCwIrDZKFX3x1UP97i9f6tb9GZWqdSmw2+8KMvkAcJi9OAkJ1Pak2dWKEtEV9WUS+uDSuF47ObBn1wjg1SFAgBBZa1UolnXtziP98fNb+vyrh6pUGzLWsuIcwJH07I0XKbDS09WK/v2LJ/IDq4FsXAO5hGIRJiHAYUKAACGx1qpYqenm/Wn9r4+u6vrdKZUqNUlmuz2YfAA4SqzVzsXm1qrR8vRkpayr9xYVjRh9+MYxnR7L79k1Ath9BAgQks1yVdfvTumPn93UJ9fuqlRtStay0wsAaCtErKw16niBHs1vqtXxlIpHlYxFNNyXkuvwhAkcBgQIEIJqvaH70/P63x9d1bU7j7uTD+Nsf57JB4Cj6oX1IOquSq81PT1ZLuvPt+bV8a1+885xjfSl9ugqAewmAgR4xar1pm7en9afPv9KV6/f02qxIkkysiI7AGCn7UmIjJptX3eeFNTu+OrPxPWT8yNECHAIOH//IQB+qFqjqZn5Zf1/f/5C//7xNRVKlWdv9/Uw/QCA7lPj80+HpvexSqOjqaWiPro+q0/uLKlcb+/ZNQLYHUxAgFek3fF059FT/eWL27p6455ml9YkG3TP+WDhBwC81LNbsnoHsspRqdbWjakVBYFVXyauK6cGNZxP7uFVAvgxCBDgFag3W1pYXtdHn97Qv/35b1otlCRuuAKA780o6O4iWPN058m64jFXrY6vX74+oXQiuteXB+AHIECAXRYEVlNPF/V/Pr2hT67f1dzSmno3E+x4HLdeAcA3e/YUabf/faPa0rVHK3KMUToR0WsnBjWQS+zVJQL4gQgQYBe1O56W1zb06Y17+tc/fqaF1Y3eZ2z31isAwPdmjCQbKLDSRrWtm1OrikYcBYHVexfHlIxFuLMVOEAIEGAXrW+U9G9//kJ//OyG5pbW1O74LzyGyQcAfHfPDiu0239eLzf1xcMVpRJR9WXiOjPep0yS27GAg4IAAXZRoVjWH67e0J3Hs/I8X0w+AGD3dCchvjqBq5ViU/efFnR8OKv+bIIAAQ4QAgTYRfVmS8vrm6q3Oi9MOph8AMAP8+Jhhd2PVZsdrZcbarS8vbkwAD8IAQLsosBaeZ4vY5ztJeeEBwDsMmtlZRVYq3bHlx/wPAscJBxECOwiI8kxhugAgBAYdaci3OgKHCwECLCLjDFynBe33AUA7D5jjBxj2AELOGAIEOCV4LchAISH51zgICFAAADAAcY9WMBBQ4AAAAAACA0BAgAAACA0BAgAAACA0BAgAAAAAEJDgAAAAAAIDQECAAAAIDQECAAAAIDQECAAAAAAQkOAAAAAAAgNAQIAAAAgNAQIAAAAgNAQIAAAAABCQ4AAAAAACA0BAgAAACA0BAgAAACA0BAgAAAAAEJDgAAAAAAIDQECAAAAIDQECAAAAIDQECAAAAAAQkOAAAAAAAgNAQIAAAAgNAQIAAAAgNAQIAAAAABCQ4AAAAAACA0BAgAAACA0BAgAAACA0BAgAAAAAEJDgAAAAAAIDQECAAAAIDQECAAAAIDQECAAAAAAQkOAAAAAAAgNAQIAAAAgNAQIAAAAgNAQIAAAAABCQ4AAAAAACA0BAgAAACA0BAgAAACA0BAgAAAAAEJDgAAAAAAIDQECAAAAIDQECAAAAIDQECAAAAAAQkOAAAAAAAgNAQIAAAAgNAQIAAAAgNAQIAAAAABCQ4AAAAAACA0BAgAAACA0BAgAAACA0BAgAAAAAEJDgAAAAAAIDQECAAAAIDQECAAAAIDQECAAAAAAQkOAAAAAAAgNAQIAAAAgNAQIAAAAgNAQIAAAAABCQ4AAAAAACA0BAgAAACA0BAgAAACA0BAgAAAAAEJDgAAAAAAIDQECAAAAIDQECAAAAIDQECAAAAAAQkOAAAAAAAgNAQIAAAAgNAQIAAAAgNAQIAAAAABCQ4AAAAAACA0BAgAAACA0BAgAAACA0BAgAAAAAEJDgAAAAAAIDQECAAAAIDQECAAAAIDQECAAAAAAQkOAAAAAAAgNAQIAAAAgNAQIAAAAgNAQIAAAAABCQ4AAAAAACA0BAgAAACA0BAgAAACA0BAgAAAAAEJDgAAAAAAIDQECAAAAIDQECAAAAIDQECAAAAAAQkOAAAAAAAgNAQIAAAAgNAQIAAAAgNAQIAAAAABCQ4AAAAAACA0BAgAAACA0BAgAAACA0BAgAAAAAEJDgAAAAAAIDQECAAAAIDQECAAAAIDQECAAAAAAQkOAAAAAAAgNAQIAAAAgNAQIAAAAgNAQIAAAAABCQ4AAAAAACA0BAgAAACA0BAgAAACA0BAgAAAAAEJDgAAAAAAIDQECAAAAIDQECAAAAIDQECAAAAAAQkOAAAAAAAgNAQIAAAAgNAQIAAAAgNAQIAAAAABCQ4AAAAAACA0BAgAAACA0BAgAAACA0BAgAAAAAEJDgAAAAAAIDQECAAAAIDQECAAAAIDQECAAAAAAQkOAAAAAAAgNAQIAAAAgNAQIAAAAgNAQIAAAAABCQ4AAAAAACA0BAgAAACA0BAgAAACA0BAgAAAAAEJDgAAAAAAIDQECAAAAIDQECAAAAIDQECAAAAAAQkOAAAAAAAgNAQIAAAAgNAQIAAAAgNAQIAAAAABCQ4AAAAAACA0BAgAAACA0BAgAAACA0BAgAAAAAEJDgAAAAAAIDQECAAAAIDQECAAAAIDQECAAAAAAQkOAAAAAAAgNAQIAAAAgNAQIAAAAgNAQIAAAAABCQ4AAAAAACA0BAgAAACA0BAgAAACA0BAgAAAAAEJDgAAAAAAIDQECAAAAIDQECAAAAIDQECAAAAAAQkOAAAAAAAgNAQIAAAAgNAQIAAAAgNAQIAAAAABCQ4AAAAAACA0BAgAAACA0BAgAAACA0BAgAAAAAEJDgAAAAAAIDQECAAAAIDQECAAAAIDQECAAAAAAQkOAAAAAAAgNAQIAAAAgNAQIAAAAgNAQIC5ado4AACAASURBVAAAAABCQ4AAAAAACA0BAgAAACA0BAgAAACA0BAgAAAAAEJDgAAAAAAIDQECAAAAIDQECAAAAIDQECAAAAAAQkOAAAAAAAgNAQIAAAAgNAQIAAAAgNAQIAAAAABCQ4AAAAAACA0BAgAAACA0BAgAAACA0BAgAAAAAEJDgAAAAAAIDQECAAAAIDQECAAAAIDQECAAAAAAQkOAAAAAAAgNAQIAAAAgNAQIAAA4wKxk9/oaAHwfBAgAAACA0BAgwC6y1sryThwAhMJay/ADOIAIEGAXWUmBtTJmr68EAA4/q60IIUOAgySy1xcAHCZOrzyen4KY7Y/xCxIAdoeRMUZGUsR1t59nARwMTECAXRSLRjTUl1Ms4rzwC9EYwy9JAPgBjNELk2Ujq1Qiqnw6rkTU3ZsLA/CDECDALhrsz+nD91/XhZMTMpJkTG9dCNMPAPixrJWsHLmONJCN6/xkv66cHFR/Jr7Xlwbge+AWLGAXDff36b/+4weSMSoUy1ovVtRut3c8hluyAOC7ezb5ML0/Gw1m43r99JDevzimS8cHlIzzcgY4SJiAALsomYjp7Ilxffje6/qv//i+TowPqftLk1uvAOCH6k4+jIyRcqmIrpwa0r+8e0pvnRlWKhFh4w/ggOEtA2CXxaIRXT57XPFYRJ2Op1qjpfXNsjqeJ1nLOhAA+A6M2drQw0jq7i6YT8X0+ukh/eL1SX1waUzZVGyPrxLAD0GAAK9AJpXUuZOT+vXP3pbruvqPj7/UwtqmrPX3+tIA4ECx6u52lYlHdOHYgH773mm9dXaY+AAOMAIEeEVSibjevnxWyURcpWpNV2/c19LahiQj2UCmt0AdAPDMzjUfVpJVJhnVldND+vlrk3r/4pgGc4m9u0AAPxprQIBXKJdJ6cLpSf32l+/qV++9rnwmJWlneHBLFgC8uNWutd3nx2TM1cnRnH7zzgn96s1J9WeJD+CgYwICvGK5dErvXjkvxzjaLFV06+ETLa0WZLff3QMAbNle92GkaMTo4vEB/ezyhN69MKrJocxeXx6AXUCAAK+YMUZ9uYzevHRajVZL6VRC//HX66rUmzseI7E1L4Cj55uGwMlYRGMDKX34+qR+/c5JjfSnwr0wAK8MAQKEwHGMBvty+uDNizLGqFiu6asHT7RWLMmKTXoB4Nn7L0aOkU6N5rq7XV0e17FhJh/AYUKAACFxHKOh/rzeee2cWu2OIhFXn964r2qtoa1bsZiEADhKXph+GKNENKLhfEIfXB7Tf3n/lEaZfACHDgEChMhxjEYG8/rpW5fU8Tw1Wm199WBGxUq9d0bIXl8hAITr+cmHrDQ+kNKv3zmhn14e17GhrFyXJ0bgsCFAgJBFXFfjw/366VuX5PmBbGB188GMqrW6nh24xSQEwOH14uTDVdSRhvuSevfCqH79zgkdHyE+gMOKAAH2gOM4mhgZ1Ifvva5msyUv8HXn4RNV6i1OSwdwZGy/x2KkvkxM//T2cf3i9UkdG84qGeMlCnBY8dMN7JFYNKLjY0P6xbtXZBwjr+Pr/sx8dxJizHaIMAUBcFh8/b0V47iS9TXWn9SbZ4b0qzeP69KJAeIDOOT4CQf2kDFGpyZHlYjFVK+3FFiru4+fqtn2tgOE27EAHEbdgwalTDKmf7g8pv/01gmdnehTKs5LE+Cw46cc2GOJeEwnJkb0qw/ekOMYNVttzSysqNFobv+CBoBDxbgyRhrKJfTG6UH9/Mqk3jwzrHQyutdXBiAEBAiwDziO0YVTk4pFIypVapKRpp4uqtX2th/DJATAQbXzjZTublfJRFTvnBvWv7x3Sq+dHFQ6EeFMJOCIIECAfSIRj+nM8TH99sP3FItF1W51NLe81osQFqYDOPisHBk3onzc6I0zQ/rFlQm9eWZY+XScaS9whBAgwD4Si0b1xoVTMsaoVKnJ3DR6srCqTqez/RgmIQAOih1RYRwZSelEVK+dzOu/vH+6Fx8xOcQHcKQQIMA+E41GdP7UpP7v3/xMsWhEjeaXWlkvquP5YhIC4CCyVnLcqFKRQG+e6tOv3jimt84OayiXlMNzGnDkECDAPpRJJfT25bNqtdoqVWr64vYjzS2tKwj87ccwCQGwn213hXElGyidcHV+vE+/fvu4fnJ+TEP5pFxGH8CRRIAA+1TEdXTlwik5jiMZqd5oarNclecFYhIC4CCwtnvWRywiXT6W08+vTOqd86MaG0gRH8ARRoAA+1hfNq13Xz+vYqUqz/P1t1sPtbS2oeeHHhxWCGA/2TH5kFUm4er4UFYfvnFc718a08RAWhHX2ctLBLDHCBBgn4tFI/rgzYtKJxNqtTtqtNoqV2vyfautSQi3YwHYay8OZY2irtGZsYx+9tqEPrg0psmhDPEBgAABDoLBvpzevnxWG6WKIq6rT6/fU6FYkdSNDm7HArBfWDkyxigVdzQxkNbPX5vUL16f1LHhrGIR4gMAAQIcGJlUUh++97qSibg2ShXdefhU5Vp9x9SDSQiAsL1wyKC6a9hOjGT1wcUx/cNr4zo1liM+AGzj2QA4IBzHaLAvpzcvntZ//08/1XtvnFc8FpXUXQNCdADYS9YayTiKuUbHBlP64NKY/vGt4zo1llc86u715QHYR5iAAAfMUH9e//zzd+Q4RmubJT2ZX1W5WtvxGCYhAF61b5p8TA6m9LPXJvXz1yZ04Vg/8QHgBUxAgAMmGnE1PJDX+29c0P/zLx/q9Qsne1v1MgkBED5rJWscRV2j0b6E3r04pt/85LjOEx8AvgETEOCAOj42rN/8/B01221tlqp6uriqerMlsSYEwCv2bPphJFm5jtFIX1IfXBrXL16b0KUTA4pFiA8AL0eAAAdUNBrRyGCffvnu6zLG6H/9n0915/EssQHglXn+titrux9wHaOhbFxvnB7Wf373pM5N9BEfAL4VAQIcYBHX0dkT44pFIyqWq+p4vmbmltT2AskGbM8L4JWwtvvc4jpGA9m43r84pp9fmdDrp4aUiBEfAL4da0CAAy4WjWhydFD/+Rc/0f/1Tz/VxOhgd03IcwgRAD+GMV9bdG6MHMeoPxPXaycG9c/vntR7F0aJDwDfCRMQ4BBIxGO6ePqYHMdRoVjWJ9fu6uHMvGQc2cAnQADsiu4dnkbGWGWTMb1zbkQfvnFMV04Oqi8T3+vLA3BAECDAIZGIx3T62Jj+26/eVzIeU7FUVaFckx/4kliQDuD7e/G9CyNjpHwqpnPH+vWrN4/pZ69NKJuK7sXlATigCBDgEMmkErp89oQ8P1CpUtOn1+9pZmFVVpLRzvCwz/0FAN/m2eRDSsYiunJqSL/+yQm9dXZY+XRsry8PwAFDgACHTDqV0OWzxxXYQK7rqNZoabNclef5kmxvEsItWQC+3Qu3bhqjTDKicxP9+tmVCX34xqTyKW67AvD9ESDAIZTLpPT6+VNqtjpqtjr69PpdLaxsMO0A8L1s37FpjKIRR+cm+vTff3pGb58bVn8msafXBuDgIkCAQ8gYo1wmpbcunpYkeZ6vjndP65slBYGVtb4cY+QYwywEOKK+bXOKHZ9yHCWjjs5O9Olnr03q51cmNJAjPgD8cAQIcIj157N6+/IZ1eoNWVl9cu2uVjfKen7lBztkAUebMUbdf/X+fnvDCskxRq7jaHIoq9++d1ofXBzTQC4h1+F5A8APR4AAh5jjGA3ks3rv9QtyXUeNZlvX7jzSWqHQXYBuray1vSkILyiAo2RrR7zusjCnd9hHN0KslYzjKuJKZydy+uDSuN6/NKZTozk5xAeAH4kAAY6A4cG8Pnjzoqr1poykq9dbKtY7vTnIsxcTTEOAo8FIsr1/lyRZK2Mk97lDTKMRRyN9Cf3TW8f1yzeOaXIwQ3wA2BUECHAERFxXQ/15/ezty4q6ruqNum4/XlCxbnrvfDqSgu0U4agQ4Gh4ftrhGF/xqKt6byJyfCitn1+Z0AeXxnVmvE8Rl/gAsDsIEOAImRwdUjTiqlSpKh5P6dbUilpBTNaNqNXqdEPEPjsdZGsgQpAAB9vz6bA1+TRGMo6RtVYRx1EyGVMiGVHMWNUbnn56aVy/ff+0To7kiA8Au4oAAY4QxzEaHujTr95/Q/19eQ0MTmthvamNaqD5laLavpW1gSR/ry8VwCtkJRnHkXFcmaCj4WxUk/0pjWZjajTaqjXa+umlcZ0Zzysedff6cgEcMgQIcMS4rqOTk6PKZTMa6OvT0+WS5lYrujezopXNmsrVhuqNltqe35uIBOoeYNj955mGAPvf9u2Uz3/kuR2uXCOlE1GlEjHl4ildmMjr1HBG430JOUbqdAKN9qeIDwCvBAECHEGu62qwL6fXz0d0+lhLpWpL71yc1NRCQXemlvR4dl1LhbL8wBAcwCFguzOPboRI6k9HdXI4o9OjWZ0Yymg0n1BfOqZULCLHSIGVYhHn7/3XAsAPQoAAR5QxUn8upf5cSpMj0unJAZ0/OaLJkbwmR5b16Omq1op1Fcs1lWpNWTndbTuZiAD70gurNIyzfa6HDXxlExFlU1HlkzGdGM7ozGhW58ZyGutLKuY67HAFIDQECAAZI6USMR0bySubjOm102OaXynq3syKvnq8qAdPV7RRbsnzfckxL60O8/IPA3hFXlxYvvPPTm+Rues4SidcnRrJ6Nx4XmdHsxrJJZVNRpRNxph0AAgdAQJgWzwa0chAViMDWU0O5zU2lNP4UE6nJgY0Nbeu5UJF68WqStWmZNzegvVgry8bgLrnehjHyBhXsr6SMVcDmZiGsglN9Kd1cjijUyNZTQ6klIyxtgPA3iFAALxUKhHV6YkBjfRn9PbFSc0tF3X94bxuPVzU1Py6qk1fXqejjm9lg9795WzfC7xSWz9l5vmP9D7oGKOI6ygaiSgWiWiiL6Hz43ldPtan8b6k0omokjFX8QjxAWBvESAAXsoYo2Q8qmQ8qqG+tIb60hrIp3RqvF9T8wXNLBQ0v1LSwlpRtaYnyUjW14s3gwB4FazUXVTuODIyijmBRvsSGutLabw/pWODaU30pzQ5kFI2Gd3rywWAbcZa3qME8PcF1qrT8dVsd1SutvR4fl1f3pvT7alFza9WVG92VG801Wp3ZJzugYZbTy9b60MO6joRawNZa+XG4ooms4rEk3IjMVm7dW6Ktrc3xf5grVUQWCVTceX7M4rFY3Jdp/c12/q+3P9fs6+v8zDG9NZ3GAWBVTwWUTzqKhGLaCgd0YXJPl0cz+vkcEbpePdzUdfRAfi/CuAIYQIC4DtxjOm+2IlFlEsnlU7FNNKf0ZWzY5pZKOjx3Loez67pydKGPOvI2q3DDA9gcQD7VDdCHMk4cl1fI9m4JgdTOjmU0eRASqP9KQ3nEupLxfb6UgHgGxEgAL43Y6T+bEr5TFKnJwf0xrlx3Z1e0c3BrPpyKa0V66rUGqrUmmp7QW/0sTUp2BkkB3EiArxKz1ZT9f604wBBq3QiokwipnwqojMjWZ0bz+v8WFb96bgiEUcu2+kC2OcIEAA/iDGSa4xSiZhi0YgSsahOjPXrncvHNTW3pjtTy3o0t6aF1bI6QffllLWWW0GA78FupYiVHNfRQDqm06NZnRnpHiA4nEson46pLxUjPAAcGAQIgB8t4jrbC9VPjvfr7OSgJobzOj7WrwdPVrS6WVOh1N2+N7BOd92EtXr+QEOJaQiOpq0fga1vf2tM7zYrI/UOEMynYhrIxnV8sHuA4NmxnEbzSUUjzosHEALAPkeAANhVyXhUkyN9yqTiunx6TMuFcvf2rEcLuj+zdaChpyAIFAQvP9BwC0GCw+jrwfF1jjFyXUeu6yjpujo3ltO58ZzOjeU0lE0ok4wqHXc5QBDAgUWAANh1sair4f6MhvszmhzJa3Qgq/GhrM5MDmpmoaDFtbJWNsraKDWeHWhoOdAQR1P3AEGnu84jCJSOuxrKJjSST2qsL6mTw1mdGEprcjCtONEB4BAgQAC8Usl4d23IUF9ab12Y1PxqUTfuL+jmowU9nF1XrdlRp+Op3fGem4jsPNBwCxMRHFQvTD2M2f6DY4yiEVfRiKNExNGxwaTOj+V1aTKv8f6kkrGIkrEIEw8AhwYBAuCV29q+tz+XUn8upb5MUqcmBjS9UNDMYkFPFjc0t7ypSrO7da8NugcasmAdh9H2AYKmGxQx12qiP66x/pSODaQ1OZDWWF9S4/0pZRL8mgZw+HAQIYBQBYGVHwRqtj1Vai1Nza/p2v153X68pNmVkqqNthrNlhrN9vaBhl17t30vBxEePHt9EOHXJx7d/y2zfW2xqKtUPKpkPKKhTFQXxvM6P57TmdGsUrGIIq6jiGvk8H0F4BDirRUAoXIcI8dxFY24yqbiSidjGu7P6srZcc0sFPTg6aqm5tY1s1hQ25Osgu3a4LUYDqqtU8wlo6gbaCyf0MnhjE6NZDUxkNJwLqnBTEx5DhAEcAQQIAD2VD6TUDYd18nxfr12ZkynJgZ0e3hJg/mUVjbrKlZqKlc50BD7344DBE3vAEE9O0Awm4wqk4iqPx3VmdHurlbnxnLqz8TkOo7MN+6LBQCHCwECYM85xigZjyoacRW/dFynxgf07uXjmppf161Hi7r/ZFWL62W1O/43nnlgTDdCtv4TeNX+3na6Uvf7MeI4GkhHdXYsp7OjWZ0czmggG1c+GVM2GX3uAEFGfACOBgIEwL4RcR0N5lMazKd0cnxAJycGNDqY0/HRfj2eW9Piekkbpbo2yjUF1u3ey/+SAw2BvWBNbytdY2QCX7lkRP3puAazcR0byOjMWFanR7IazScUcdnRCsDRRYAA2JdiUVfjg1llkjFdPjWi1c2q7k4v68bDBd2bXlah3JLn+/K8re17d9wAw4GGeCV2fpft5BjTXTwecZSKRnRuLKfzY3mdGctqKJtQOh5RKh4hPgAceQQIgH0rFo1oMB/RYD6tieG8BvNpjQ/ldP74sKYXCppfKWppvaz1Yk0yriRfbOyHsGwfICgja31l4q5G8gmN9iU10Z/SiaGMJgczGu9LKB519/pyAWDfIEAAHAjxWEQnxvo13J/Rm+cnNL9S1I2HC9trRKoNT+1OW6328wcaSlu3Z7E+BD/ENx4gaCRHRrGoq1jEUSIa07GBlC5O5HVxIq/x/pSSMVexiMsBggDwNQQIgAMjFnUVi7rKZxLKpRPKZ5M6PTmoN+YLmp5f18zihp4ubahc78gaScHWjll7e904PKwx2+eHxCNGE/0JHRtI6fhQRuP9KY32JTWaTyod59crAHwTniEBHEjpZFxnjw3p2Eif3jo/qUdza7p+f153plOaXS6pUm+p1mip3mh1b8/qbd/79QXrTETwvJdOPIyRsd0DKeMRR+l4VKm4q6FMTBcm8rowntfp0ZySUVeRiPPcrlYAgJchQAAcSMZ0d82KJGNKJ2NKxCMa6c/ozQsTerq4oftPVrqHGs4X1Ox0X06yPgTfV/duq+7S81jU1Xg+oVMj3d2sJgdSGswl1J+OKZfkAEEA+K4IEACHQi6dUDaV0MnxAV0+NaoTY/0aH8pppD+rpUJFm+W6ipW6Wp3egYZ6+Ra+NMrRs2PqYYyMcbY/EjFSLhVVNhnVcK57evm5sZzOjObUl4rKcYwc7vEDgO/FWN4SBHDIBNaqXG1qs1zX6mZVU3PruvloQXenV/7/9u40Lqry7QP4b1ZggBkWUQQUUcJdyS1BnyxRySxFxXLXTFPLBUpDzaQyzY3MNVNLUxO1XErL3MVd00TcUBEUBVRQYWQfZu7nhdHfinNmO3MY9Pp+PvOirjP3fR0chnOdcy+4nZ0Hnc4AxgxgjIEx7j1Eyr8dy4+VKR2gcHKF3MEJMrnyr/eXzzOhi1B7whiDwcDgpHKAxt0FSgclZDJphU/BnixAHu/jIYVUKoFCJoGHSoHAmmrU89YgoLoL3P562uHsIKehVoQQYiF6AkIIeepIJRK4uTrBzdUJtbzd4VvdDV4ervCr7oaU2znIuJeLnNwC3M8tgJ5JaUPDZ8y/53mwv556SABImB4aJzk8XB1QXe0IXw9nBNRQo3Y1Z3i7OVHRQQghAqAChBDyVJPLpKjh4QIXJyXq+3shOzcfF1KycP5aFi5cz8KDRyXQ6cqgKyuDXq9HxRsaPv5/EomECpQqRiKRQIKK/t3+9+8slTxeTlchk0KlUKKetxqB3moE+Wjg4eIAlYMcTkp64kEIIUKhAoQQ8tRTyGV/PxHx9lTDzcUJvtXdEOTv9ffSvRl3c3HvYT4gKX8iYjDeMKkyniwd/t5AUCIB05fBxUGGmu5OqOmugq+HM3w9VKjpoYKPuzMUMio6CCFEaDQHhBDyzNGV6VFcWobC4lJkZufhbPJtnE/JQvKNu8gvKkNRSSmKiktgMJRvXsjAmB4ypSMUTi6QO6ggkyv+nkMCyT8vcEnlYwz/mwPi5gIHJyUkUunfQUcHBZyUcjjKAT8PZ9T3dUNQTQ1qujvBUSGDQi6j4oMQQmyEnoAQQp45CvnjC0xXlcPj1bOcHVHXrxqev+OH67dycC398fK92kLdX4N09E9MSAeeHKL1eDUt0G6HdkQCCRgMjwdZ/fXPwyCFVCIDY3o4KWXw83BC7WouqF3NBd5uTvBSO8JL7QgVbSBICCE2R9+0hJBnmqNSjjo1PeDrpUHTwJpIuZWDc1c18NA449bdPGgLiqHNL0J+YREkEtlfG9NJH7/A/vfkgwoQu8EYAIn0rz0EpQAkcJBLoHZWwNnBEV6ujgjyeTzPI6C6K5yUMkiltIEgIYSIhQoQQsgzTSKRQC6TQC6TwslBAYVcBi93FzStVxPpd3NxKfUOLqVm4Wr6Pej/KjfKF836x/hVGs1qV8r/OSQSQCGToobGEQ1ruaOOlwt8PZzh5qyEu7MSLo6Kyk2UEEKeQTQHhBBCKlBWpoe2oASXUu8g6VomEq/cRvajUhQbZJApHSCXK8H+3syQ2BvGHu8Ho3F1hL+PBxr6e6KJvwdqV3OGu7OSNg8khJBKRAUIIYRwMDCGRwUleJBXgJtZD3HjrhYZ9wvAJFIolcq/HoHQV6g90hsYygwMNTyc0ci/GmrXUMPdxQEqpYyGWhFCSCWjAoQQQkyQX1iKuw/zcedhARh7PGSL2C8De1yEeLg6olZ1V7g4KeipByGE2AkqQAghxAQGxqDT6VFaZqBFr6qA8r9scpkUjkoZFR+EEGJHqAAhhBBCCCGEiIbGEBBCCCGEEEJEQwUIIYQQQgghRDRUgBBCCCGEEEJEQwUIIYQQQgghRDRUgBBCCCGEEEJEQwUIIYQQQgghRDRUgBBCCCGEEEJEQwUIIYQQQgghRDTyyk6AEEIIIYTwe/DgAdLS0pCWloYHDx6gsLAQhYWFYIzByckJrq6u8Pb2hq+vL4KCguDi4lLZKRPCiQoQUmV17twZe/furTCmUCiQlpYGX19fkbMihBDbcnNzQ15enmDtSSQSODo6wtHREZ6enqhZsyb8/f3RpEkTPP/882jXrh2cnZ0F64+L0OdVTqlUQq1Ww9XVFa6urvD19UXDhg3RqFEjNGrUCC1btoRSqRS8X2tlZWVh8+bNOHToEI4cOYKsrCyT3yuRSODv7482bdqgffv26NSpExo2bGjDbAkxj4Qxxio7CULMlZSUhObNm/MeM3HiRMyZM0ekjAghRBy2ulDnolAoEBoair59++KNN96Ah4eHTfoR+7zKubi4ICwsDK+++iq6d+8Ob29v0XN40m+//YZFixZhz5490Ov1grX73HPPoU+fPnj77bdRt25dwdolxBJUgJAqadCgQVi3bh3vMRqNBunp6VCr1SJlRQghtldZF+oAoFKp8PbbbyMmJkbwJ8yVeV7lFAoFevfujXHjxiEkJETUvk+dOoXo6GgcO3bMpv1IJBJ069YNsbGxaNWqlU37IoQLTUInVc7t27exceNGo8fl5eVhxYoVImRECCHPhsLCQixatAgNGjTAnDlzBL1Dbw90Oh02bNiA0NBQtG3bFsePH7d5n3q9Hh9//DFCQ0NtXnwAAGMMO3bsQOvWrTFgwADcu3fP5n0S8m9UgJAqZ8GCBdDpdCYfW1ZWZuOMCCHk2ZKfn4+YmBiEhYWZNTehKjl58iTatWuHoUOH4u7duzbpo6SkBJGRkfj8888rpZhbv349Zs6cKXq/hNAQLFKlPHr0CLVq1TLrMf3atWsxcOBAG2ZFCCHisYehSk/y9/fHnj178Nxzz1nVjr2d15M8PDwQHx+PLl26CNYmYwzdu3fHjh07zH6vo6MjXFxc4OLiAqlUisLCQuTk5Fh0w+3ixYto1KiR2e8jxBpUgJAqJS4uDhMmTDDrPcHBwTh79qyNMiKEEHHxXah36NABL730klnt6XQ65OXlQavV4v79+0hKSsLt27fNasPHxwcnT56En5+fWe97ktDnBTy+yC8oKIBWq4VWq0VKSgquXLmC/Px8s9uSSqWYOXMmYmJizH5vRT755BN8+umnRo+TyWTo0KEDevTogebNm6Nx48aoVq3af44zGAzIysrC+fPn8eeffyIhIQFHjhxBYWEhZ9sdOnTAwYMHrTkNQizDCKkidDodq1WrFgNQ4atatWqcsd27d1d2+oQQIgiNRsP5XRcbGytIH9nZ2eznn39mvXv3ZkqlkrO/J1/BwcGspKTErs+LMcYMBgNLTU1ly5YtY927d2cqlcqk8yt/jRgxwuockpOTmVwu5+1HLpezd999l925c8fifvLz89n333/POnXqxKRS6X/62Lhxo9XnQoglaA4IqTI2btyIW7duVRjr0qULJk+ezPneefPm2SotQgh56lSrVg3du3fHTz/9hMzMTIwaNQoSiYT3PYmJiYiNjRUpQ8tJJBIEBARg5MiR+Pnnn5GRkYG5c+ciICDApPevWLECEydOtCqHqVOn8g6XqlGjBo4dO4YlS5agRo0aFvfj7OyMwYMHY8+eiSPZ9QAAIABJREFUPbh16xaioqLg4OAAAKhZsyZ69uxpcduEWIMKEFJlxMXFccaio6MxfPhwuLq6VhjfvXs3kpKSbJUaIYQ8tTw9PfH111/jyJEjRi+G4+LikJaWJlJmwnBzc8OECRNw9epVxMXFcf4dedK8efMwe/Zsi/q7e/cutm3bxhl3d3fH0aNH0bp1a4va5+Lj44P58+fjypUrGDx4MEaOHAmFQiFoH4SYigoQUiXs27ePcx5Hw4YNER4eDrVajWHDhnG2QU9BCCHEcqGhodi/fz+qV6/OeYxOp8MXX3whYlbCkcvleP/993H16lV07NjR6PEfffSRRcvmbt68mffpx9KlS1GvXj2z2zWVv78/vv/++yrxtIo8vagAIVUCX/EQFRX199CAcePGQSqt+GO9YcMGsydWEkII+Z9GjRrhxx9/5D1mw4YNvBOf7Z23tzd2796N6Oho3uP0ej0GDRpk9oR2vr1F6tWrhzfffNOs9gipiuSVnQAhxly4cAG///57hTFPT08MGjTo7/+uW7cuevToga1bt/7nWJ1OhwULFmDu3Lk2yxUAOnXqhH379lUYu3XrFucqMffv38f+/fuRkJCAS5cu4fr168jNzUVBQQEcHBygVqtRq1YtNG7cGCEhIejWrZvVOxGnpqZi165dOH36NJKTk3Hz5k08evQIBQUFUCqVUKvV8PPzQ4MGDfDCCy+ga9euCAwMtKpPS+Tm5uLIkSNITEzE+fPnkZ6ejoyMDOTl5aG4uBjA42EL5a+goCCEhoYiJCQEjRs35ixKzZWTkwMvLy9B2rJEjRo1cOfOHUHbzMzMxK5du3Du3DkkJSXh5s2b0Gq1yMvLg0wmg0ajgUajQWBgIJo1a4YWLVqgS5cu0Gg0gubxJEt/h8rKynDy5EkcOHAAiYmJuHbtGrKyspCfn4/S0lI4OjrCw8MDtWvXRpMmTRASEoKuXbvy3tEn//Xiiy+if//+WL9+fYXxR48eYefOnejdu7fImQlHJpPhyy+/hEqlwowZMziPS01NxaRJk7B48WKT275w4QJnLCIiwuhcG0KeCpU9C54QY4YMGcK5SsiUKVP+c/yhQ4c4j1er1SwvL8+m+YaFhXH2f+vWrf8cn5CQwHr37s0UCoVZK7EAYB07dmQ7duwwKz+tVsuWLFnCmjZtanZ/AFjLli3ZmjVrmF6vF+pHVqH09HQ2e/Zs1qZNGyaTySzKFQDz8fFhM2bMYDk5OVbnlJ2dbXEeQrxq1KghwE/28co4CxYsYG3atGESicTsPBQKBQsPD2ebNm2yyefA3N+h69evs+joaObl5WX2uUilUta1a9cqtVKeWKtF8blw4QLvz/W9994zu017OK+KjBo1yujvQ1pamsnt8a3muHjxYtudCCF2hAoQYtcyMzM5l4BUKBQsIyOjwve1bNmS8wt+7ty5Ns3Z1IunGzdusFdffVWQC9OXX36ZXblyhTcvnU7HFi9ezLtcsTmvZs2asVOnTgn+8zt69Cjr0aOHRRfGfC8nJyc2depUptPpLM6tqhcghYWF7JNPPmEeHh6C5RQYGMhWr15tVV7/ZurvUG5uLhs9erRFxXtFr86dO5t1IVlZ7OVCPSAggDOPtm3bmt2evZzXv5WUlLBmzZrxfnaGDx9ucnt838HLly+34ZkQYj+oACF2LSYmhvOLeuDAgZzvW7duHef7/Pz8WGlpqc1yNuXiaevWrbx/bC15ubi4sF9++aXCnG7cuMHatGkjaH/A4yJQqDt2169fZxEREYLn+O9XaGgou3HjhkU5VuUCZNeuXaxu3bo2y+2ll15iV69etTi/J5nyO3TkyBHeO8mWvtRqNdu+fbsg52Er9nKhPmLECM48vLy8zG7PXs6rIufOneMtdOVyeYVP5yoSGBjI2c6kSZNsfCaE2AeahE7sVn5+Pr755hvOON8EwTfeeINzfsTt27exYcMGq/Oz1OrVqxEZGcm546+l8vPzERERgY0bN/7j/584cQLPP/88Tp06JWh/wON5NWPGjOEdI22KlStXomnTprxLUwrl2LFjaNOmDZKTk23el9BUKpXZ72GM4eOPP0Z4eDhSU1NtkNVjBw8eRIsWLfDLL7/YrI9yO3bsQKdOnTj3BbKGVqtFREQEfvjhB8HbftrwzUHLzs6GwWAQMRvbatasGd566y3OeFlZ2X++e7lUtIt5uW3btoExZnZ+hFQ1VIAQu7Vy5Urk5uZWGHvxxRfRokULzvcqFAqMGTOGM15ZS/Lu2bMHw4cPh16vt0n7BoMBQ4YMwYkTJwAAp06dQnh4OB4+fGiT/spNnTrV4gu2oqIixMbGirpqzr179/DKK69wfr64SKVS1KhRwyYvd3d3o30vXbrUrHzLysrQt29ffP7552a9z1L5+fno2bMnFi5caLM+Tpw4gcjIyL8XH7AFvV6Pt956CwcPHrRZH08DY3uCFBQUiJSJOD766CPefTNMLUBatmzJGUtOTsby5cvNzo2QqoZWwSJ2Sa/XY8GCBZxxY8sjAsA777yD6dOnV3hhm5SUhN27d6NLly5W5Wmud999l7f4cHFxwYsvvog6derAy8sLKpUKOTk5yMrKwqFDh5Cenm60j5KSEgwdOhR79+5Fr169oNVqeY9XKpVo164dgoKC4OXlBbVajQcPHuDevXs4fvw4Ll++bNK5jR49Gu3bt4e/v79Jx5dzcnLCjBkzeO8uAo+LypYtW6J169YICgpC7dq14erqCoVCgdzcXOTm5uLChQv4448/cPjwYeh0Ot72bt68iTFjxmDdunUm5+rh4SH4KlTA48Lxtddew86dOzmP+eyzz/DKK6+Y1e7w4cOxadMmk451c3NDWFgYmjdvjoCAAKjVauj1euTl5eHq1as4c+YMEhISUFJSYvRcxo8fDzc3NwwePNisfE0xbNgwozk0adIELVq0QLVq1eDl5YWysjLcv38f6enpOHToEHJycoz2o9PpMHDgQFy4cAFubm5Cpf9UMbZak1Crz9mL2rVrIyIignMZ4j/++AM3btxAnTp1eNv5v//7PyxZsoQzPnbsWGg0GvTt29eadAmxb5U9BoyQisTHx3OOka1bt67JK++MHj2as53OnTvbJHe+8etcr44dO7I9e/YYnZty/vx59uabb5o0QdvT05M33rx5c/bTTz+x/Px83j5v3rzJxowZw7kYwJOvfv36WfQzMxgMFS4cIJPJWLdu3diGDRtYbm6uye1lZWWx2NhY5ujoaDTnkydPWpSzkKZOncqbY0REBDMYDGa1OW3aNJM+eyEhIWzbtm0mzYvSarXsm2++YfXq1TParlwuZ/v377fo52HJ75C/vz/7+uuv2Z07d3jbNhgM7NixY6xbt24mtTthwgSLzsGW7GWuxKeffsqZh0KhMLs9ezkvPps2beL9vKxdu9ZoG4WFhUa/nwGwESNGGP1+JqSqogKE2KVWrVpxfikvWLDA5HaSk5N5L9YTExMFz92ciydPT0/222+/md3Hnj17LJ7E7uDgwFauXGn2Be2FCxdY7dq1eduWSCTs2rVrZp8PY/9cPlkmk7ERI0aw69evW9RWuYsXL7L69evz5tynTx+r+rDWzz//zPsZrV+/vtlLR584ccLo0sUeHh4mXSxVpLS0lH366adGV5+qXbu2Rctem/M7JJfL2bx58yxaWGL79u3M1dWVt31HR0dBlnAWkr1cqPMtT/u0TUIvV1BQwHsz5oMPPjCpndjYWJP/RkybNo1lZ2fb+MwIERcVIMTuHDhwgPPLWKPRMK1Wa1Z7fHc6+VbSspSpF0+BgYEWX6wzxlhiYiJzcnIyq/jw9PRkR44csbjPzMxM5uvry9tHTEyMxe1HRkay4OBgQQvDGzduMG9vb858FQqFWU9XhHTlyhWmVqs5c3N1dWWXL182q82SkhKjRVdQUJDVxR1jjO3bt89oIfzOO++Y3a6pv0MeHh7swIEDVp3D2bNnmUql4u1n3rx5VvUhNHu5UOf7nLVv397s9uzlvIwJDg7mzDMsLMykNkpKSljz5s1N/u5WKpXs1VdfZcuWLWM3b9608RkSYntUgBC7w1cwvP/++2a3t3fvXs72zFk60VSmXDw5Ozuz5ORkq/tasmSJyX/AJBKJIJut7dmzh/eOfVBQkMVt37t3jxUXF1ud47/xDekDwDZt2iR4n8Y8evSINWrUiPffa8uWLWa3u2zZMt5zrVWrFsvMzBTsPI4cOcIcHBw4+5PJZGYX2qb8DslkMquLj3Lfffcdb18hISGC9CMUe7hQv3r1Ku/PLDo62uw27eG8TDF06FDOPH19fU1uJyUlhfn4+Jj8Hf7v79lRo0axH374gaWnp9vwbAmxDSpAiF25dOkS58WtTCazeJMwvk2kTH1kbipTLp5WrVolSF8Gg4EFBQWZ9AfLmicT//baa6/x9mVvfxANBgNr0KCBoBdL1oqMjOT9GU6ZMsXsNnU6HatTpw5nm3K5nJ05c0bwc/n66695z2Xo0KFmtWfK79AXX3wh6DnwbV4qlUor7SlZRezhQn3kyJG8/z4//vij2W3aw3mZYsaMGZx5qlQqs9q6cuUK74aOpr4CAgLYW2+9xdasWcOysrJsdOaECOfpWqKCVHlxcXGca6D37NnT6OoiXKKiojhjK1asMLpSlJCCgoIwZMgQQdqSSCQYPXq00eNcXFwwefJkQfoEgPfee483/ueffwrWlxAkEglee+01zvi5c+dEzAaYPXs2fvrpJ854eHg4pk+fbna7O3fuxI0bNzjjH374Ie/y1ZYaOXIk2rdvzxlfv369oPve1KxZE++//75g7QHA+PHjOWMGgwFnz54VtL+qLDExEStWrOCMazQadOvWTcSMxMW3KlphYSHKyspMbisoKAinT5+2+ueVlpaGVatWYfDgwfDx8UFwcDCmTp2KM2fOWNUuIbZCBQixG3fv3uVdEtWUpXe59O/fn3PNeq1Wy7vhodCioqKMLl9pjh49ehg9ZtiwYdBoNIL12blzZ95N8S5duiRYX0Lhu0A2ZXljoezbtw8fffQRZ7xu3bqIj4+3aAlTruVBgccXhTExMWa3aQqJRILPPvuMM15aWiroBoVRUVFQKpWCtQcAERERvD/zixcvCtpfVZWRkYHIyEjeTQb79esHJycnEbMSl7HvUnP3F/Lw8MCOHTsQHx9v8U22JzHGcO7cOcyYMQOtWrVCvXr1EBsby3tzghCxUQFC7MbChQs51/dv06YNQkNDLW7bwcGB90nBggULjO4bIZTIyEhB2wsICODdWdcWfcpkMt476RkZGYL2JwS+TdOys7NFyeHmzZvo27cv514wKpUKW7ZsMbopYUUMBgO2b9/OGX/77behVqvNbtdUL7/8Mpo3b84ZF3KX+379+gnWVjlXV1c0atSIM3779m3B+6xqUlNTERYWhuvXr3Me4+DggAkTJoiYlfi4ntKXs/QGU9++fZGSkoL4+Hh07NhRsH1UUlNT8dlnnyEwMBD9+/dHWlqaIO0SYg0qQIhdKCwsxLJlyzjj1jz9KDd69Gg4ODhUGMvIyEB8fLzVfRgTGBgILy8vwdtt2rQpZ0yhUKB169ai9mnKRm9i8/Dw4IyJsQt7cXExevXqxfuzWbFiBe9FPJ9r167x3nnt3bu3Re2ao1evXpyx06dPC9KHv78/atWqJUhb/xYcHMwZE6tItUdlZWWYO3cumjZtiitXrvAeO2HCBNSrV0+kzCqHsSG71jxtlslk6Nu3L/bt24f09HQsXLgQL7/8MuRy6/eN1uv1iI+PR+PGjTFnzhyjhRQhtkQ7oRO78O233+LBgwcVxvz8/AS5g1+9enUMGDAA3333XYXxuLg4m+zc/KQXXnjBJu3y3TFv1qwZHB0dRe2zqKhI8P7K6XQ63L9/H8XFxSgtLeUdCvIkvmFWYjz9Gj16NO/cmKioKPTv39/i9hMTEzljzs7OaNu2rcVtmyosLAyxsbEVxtLT0/Hw4UOLnu48yZonocbwFam2/Ezbq4sXL2LNmjVYu3YtsrKyjB4fHByMKVOmiJBZ5eIr9FUqlSDFAgD4+vpi7NixGDt2LLRaLfbu3Yvdu3dj//79uHbtmsXtFhUVISYmBsePH8cPP/zAO5yWEFuhAoRUOr1ej6+++oozPnbsWMG+0KOjozkLkKSkJOzatQvh4eGC9FWRmjVr2qRdvkmRldFnaWmpIH3cu3cPO3fuxNGjR5GUlISUlBTcv39fkLbFtHTpUqxevZoz3qFDB8ydO9eqPviGxTRu3Fiw4Rx8mjRpwhtPSUmx+mmcj4+PVe/nI8Zn2taSkpJ459JVRKfTQavVQqvVIicnB0lJSUhMTDRrLoO3tzd++eWXZ+Jilu/i39oCm4tarUavXr3+fsqYmZmJgwcPIiEhAQkJCUafTFVk27ZteP3117F9+/Zn4t+N2BcqQEil27JlC1JTUyuMOTs7Y8SIEYL11aRJE3Tq1Al79+6tMD5v3jybFiC2+uPEN+GzMvq09tH+3r17ERcXh927d5v8hMNeHTt2jHcVNj8/P2zatMnqIpvvYtFWQ5b+TaPRQK1Wcw5RMXdybkVs9XkGbPuZFsvWrVuxdetWUfv08/PDr7/+KtrnrLLxPW1s0KCBKDn4+Pigf//+fz81zcjIwN69e/Hbb79h165dJq86t3//fgwfPhzr16+3ZbqE/AfNASGVLi4ujjM2dOhQwS84+OaT7N27l/ePi7X47rA+TX1aKjs7G927d0fnzp3x+++/V/ni486dO4iMjOQc4uXg4IDNmzejevXqVvfFd8Fhy8nn/8Y3/l2IpXhtWYAQ87Vs2RInT55Es2bNKjsVURQWFvKu8sc3j8iWfH19MWTIEGzcuBH37t3DL7/8go4dO5r03vj4eGzYsMHGGRLyT1SAkEp1+PBhnDx5ssKYRCLhXZvfUl27duW9SzVv3jzB+ywnxjAYe+jTEhkZGWjbti3vSk5ViU6nQ58+fXjHzi9atAht2rQRpD++lXfEvHvPVzQKsfx0Vfk8P+2cnZ0xa9YsHD9+3KbD4uzNr7/+yjscr7IKkCcplUq8/vrr2LdvH/7880+0bNnS6Hs+++yzKvOUjzwd6JucVCq+i33GGIKCgiCRSAR9SaVSJCcnc/a7ceNG3Lp1yxanSzjk5OSgY8eOnEPxqqLo6GgcOXKEM/7OO+8IOryQ78mDmBtt8vUl5F40pHJoNBpERUXh8uXLiImJgUKhqOyURMW3gSjAv99QZXj++edx9OhRoxvWXr58GYcOHRIpK0KoACGV6OrVq3Z5t7usrIx3UjwR3gcffICrV6/yHtOsWTPExsbi119/RUpKCh4+fAidTgfGmEkva1aNMdeaNWuwZMkSzvgLL7yARYsWCdon31C7mzdvCtoXl4cPH+LRo0eccRo+VbUFBATg9u3bmD9//jMz3+NJt27d4t3PpnXr1oJsJCg0BwcHLF26FMOHD+c97sCBAyJlRAgVIKQSxcXF2e0j3xUrVggyXp0Yd/LkSaxdu5Yz7ufnh99++w3nzp3DJ598gldffRX16tWDm5ubYKujCens2bMYNWoUZ7xGjRrYvHmz4Dt5BwUFccYuXbrEufmhkM6fP88bDwwMtHkOxHwSiQSOjo6oVq0avL29OY9LS0vD999/L2Jm9mXmzJm8w6/eeOMNEbMx37x583hvAvzxxx8iZkOedVSAkEqRnZ2NNWvWVHYanB49eoRvvvmmstN4Jnz77bechWjNmjVx4sQJdO3aVeSsLPPgwQP06tWLc88IuVyOTZs2wdfXV/C++TYwLCoqwuHDhwXv8992797NGQsICKAhWCKIjY01+alg+ctgMKCoqAjZ2dlISUnh3Uhw4sSJvENYn1YXL17kXMIdePy7/eabb4qYkfk0Gg1ee+01zvjdu3dFzIY866gAIZVi8eLFKC4uruw0eC1YsECUDeqeZQaDAT///DNnPC4uziYX67ZgMBjQt29f3Lhxg/OYuLg4vPjiizbpv169evD09OSMGxu7LoQtW7Zwxqzd/4OIw9nZGWvXroVMJqswXlRUhAEDBjxT3406nQ4DBw7kffoxePDgKjEsrXHjxpyxhw8fipgJedZRAUJEV1RUhKVLl3LGpVIpZDKZaC8umZmZtDa6jWVlZeHevXsVxlQqFXr27ClyRpabMmUK9uzZwxkfOHAgxo0bZ7P+JRIJevTowRlfvXo1Hjx4YLP+d+7cicuXL3PGyzdQI/YvJCQEkyZN4oz/+eef+OSTT8RLqJJFRUXxLs8ul8sxdepUETOyHN+wVaGHhRLChwoQIrpVq1YhJyenwphCoUB6ejrKyspEe/HdmeXbo4RY786dO5wxf39/ODo6CtaXEJvgcdmyZQtmz57NGQ8ODsby5ctt1n+5Pn36cMYKCgowffp0m/Sr1+sxbdo0zriTkxO6detmk76JbcTGxqJFixac8dmzZ+Po0aMiZlQ5pk2bxnvDDABGjBiBgIAAkTKyTnp6OmesWrVqImZCnnVUgBBRGQwGzJ8/nzPep08f0Yfc8O1Sff78efz+++8iZvNs4VuyVegJ5gsWLBC0vXKXL1/G0KFDOeMeHh7YsmUL7y7bQunSpQvvZPSFCxfa5KJx/vz5OH36NGd86NChcHFxEbxfYjsKhQLr1q3jvAmg1+sxaNAg3lXPqjK9Xo+JEycaLdrr1KnDe/OBy9y5cytl2fFdu3Zxxpo0aSJiJuRZRwUIEdW2bduQkpLCGecrBmzFWNFjy40Jn3VeXl6csfT0dMFWbjp69Cji4+MFaetJWq0WPXv25LwIk0qliI+PF+3uqFQqxZQpUzjjBoMBvXv35p2nYq49e/Zg8uTJnHGFQoGYmBjB+iPiadiwIWbNmsUZT0tLs8lmsZXt7t276Nq1q9HvfqlUirVr18LV1dWs9m/fvo2pU6eiVatWoszNKvfrr7/iypUrnPF27dqJlgshVIAQUfF9obdr165SJqoqFAq89957nPF9+/bh7NmzImb07OAr/PLy8njnVJjq7t27GDRokODL0DLGMGTIEN4/6DNmzECXLl0E7deYAQMG8K6IdffuXXTo0AGXLl2yuq8dO3YgIiICZWVlnMe8++678Pf3t7ovUjnGjRuHTp06ccZXrVqFrVu3ipiR7ej1eixcuBD169c36btn+vTpFm08OHfuXJSWluLhw4fo06cPunfvbvN9irKysvD2229zxlUqFbp3727THAh5EhUgRDTHjx/H8ePHOePR0dEiZvNPI0eOhEql4ozTUxDbcHd3R9OmTTnjEydORElJicXt3759Gx07dkRaWprFbXCZOXMm76ZkvXv35p3IaytyuRyrV6/m3aE6PT0dISEhWLlypUV9lJSUYPLkyYiIiEBhYSHncYGBgZg5c6ZFfRD7IJFIsGrVKt6NLt955x3e+Vz2TqvVYsGCBWjQoAHGjx9v0h5Q0dHRvE8bueTk5Pzn92779u1o2LAh3nrrLVy4cMHsNo05f/48QkJCeJfZ7devH9RqteB9E8KFChAimrlz53LG/P39ERERIWI2/+Th4YFBgwZxxjdt2sQ7eY9Yjm/i9IULF9CtWzezl4dkjGHjxo1o3ry5IHf6/23Xrl28k64bNmyI1atXC96vqYKDgzFjxgzeY7RaLUaMGIFWrVph8+bNvEuMlsvLy8PSpUsRFBSEWbNm8T5VcnBwwNq1a3kLe1I1+Pn5YcmSJZzxnJwcDBs2TMSMrHfz5k2sXLkSvXv3ho+PD6KioniHBz9p+PDhFi9QMn/+/AqLdr1ej9WrV6Np06Zo3749li9fbnVRl52djffffx+tW7fGzZs3OY9TqVTP1KpmxD7Y3zbC5KmUkpLCu9/DuHHjeJfEFUNUVBSWL19e4aZ4ZWVl+Oqrr/Dll19WQmZPtxEjRiAuLo7zruO+fftQv359TJo0CQMGDECNGjU423rw4AG2bduGxYsX22zYXFpaGvr37w+DwVBhXK1WY9u2bZU+6XrixIm4ceOG0RV8zpw5g8jISKjVaoSFheH555//e9NAvV6P3NxcXL16FadPn0ZCQoJJhYpUKsW6devQtm1boU6HVLL+/ftj+/bt2LBhQ4XxnTt3YsmSJbzDWa1x8OBBiy6SGWMoLCzEo0ePkJeXh+vXryM5OdmiyfNSqRSff/4575wnPo8ePeIt5ModPXoUR48exahRo9C6dWuEhoaibdu2aNSoEQICAji/W+7cuYPk5GScO3cO27dvR0JCAu/wyHIzZsyAn5+f2edDiDWoACGi+PLLLzkv2FxcXHjHpoqlQYMGCA8P51z1asWKFZg2bRrvUARiPm9vb3zxxRd49913OY/Jzs7GBx98gA8//BD169dH06ZN4enpCZVKhYKCAuTk5ODixYu4cuUK5115V1dXeHh48N4JNKawsBA9e/bk3U+jtLTUZpsNAsCECRMwYcIEk45dtGgRioqKsGrVKqPHarVabN261erx/HK5HMuWLUNkZKRV7RD7s3TpUhw+fBgZGRkVxidOnIiwsDA0aNBA8L4TEhKQkJAgeLumcnd3R3x8PMLDwy1uw8XFBWPHjsXnn39u0vGMMZw6dQqnTp36x//XaDRwcXGBSqVCaWkp8vPzkZ+fb9Fw1X79+lXK4i+EUAFCbO7+/fv4/vvvOePDhg2DRqMRMSNu0dHRnAVIfn4+vvnmG1rRxwZGjRqFM2fO4Ntvv+U9Tq/X49KlS2YPq5JKpVi1ahXmz59vVQEyf/58nDt3jveY4uJiFBcXW9yHMfn5+SYfK5VK8d133+G5557DRx99VOHTPSFpNBr8+OOP6Ny5s037IZXD3d0dq1atQnh4eIWfpaKiIgwcOBDHjx/nnYNUlUgkEgwcOBBz5syBt7e31W1Nnz4drVq1wujRo5GVlWVRO3l5eSbNUzFm4MCBJt2cIMQWaA4IsbklS5ZwTlSVSqU23R3aXF26dEGjRo044wsXLjS+HsisAAAElklEQVRpCAoxj0QiwYoVKzBy5EjB21YqlVi3bh169+5tdVtVdc+DyZMn48CBA3juueds1keXLl2QmJhIxcdTrnPnzrzDrM6cOYNPP/1UxIxs54UXXsCRI0ewZs0aq4uPJ/Xo0QPJyckYP348HBwcBGvXVEqlEl988QXWrFkj+H5LhJiKChBiU8XFxbxjXl9//XXUq1dPxIyM43scnZmZifXr14uYzbNDIpFg2bJl+PHHH3nneZijWbNmOHnyJPr16ydIe1VZhw4dkJSUhOnTp8PT01OwduvXr49169Zh165dqFOnjmDtEvs1Z84c3mFWs2bNwrFjx0TMSDhyuRxvvPEGjh49ihMnTiA0NNQm/ajVanz11VdITU1FdHS0aKMAOnbsiDNnzmDSpEmQSCSi9ElIRagAITa1Zs0a3Lt3jzNuj2NPBw4ciGrVqnHGaUle24qMjMTly5cxa9Ysi4vTNm3aYO3atTh79iyCg4MFzrDqcnR0xNSpU5Geno5FixahTZs2Fl2EKJVKvPLKK/jpp59w6dIlDBgwwAbZEnvl5OSEtWvXct49r2q7pLu4uKB79+5YtmwZ0tPTsXHjRpsVHv/m4+ODL7/8Enfu3MEPP/yArl27cu4+bykHBwf07NkThw8fxr59+2jHc2IX6NkbsRnGGO+qUc2bN8dLL70kXkImcnJywsiRIzmXMb148SJ27tyJrl27ipzZs8Pd3R0xMTH48MMPceLECRw7dgwnT55EcnIyHj58iNzcXBQVFcHR0RFqtRp16tRBUFAQQkJCEBYWhsDAwMo+BbumUqkwZswYjBkzBpmZmdi1axcSExORlJSE9PR05OXlQavVQiqVQqPRQKPRIDAwEM2aNUPLli0RHh5OewY841q1aoVp06ZxLkedmpqK8ePH47vvvhM5s/9SKBRwdXX9++Xn54eGDRuiYcOGaNy4MVq1agWlUlmpOTo6OqJ///7o378/CgsLsX//fhw8eBB//PEHzp49a3YxFxgYiNDQULz00kvo2bMnLZ5C7I6E2XpWIiGEEEIIsQhjDLdv30Z6ejrS09Px8OFDFBYWoqioCHK5HCqVCs7OzqhevTrq1KmDgIAAuLq6VnbahPCiAoQQQgghhBAiGpoDQgghhBBCCBENFSCEEEIIIYQQ0VABQgghhBBCCBENFSCEEEIIIYQQ0VABQgghhBBCCBENFSCEEEIIIYQQ0VABQgghhBBCCBENFSCEEEIIIYQQ0VABQgghhBBCCBENFSCEEEIIIYQQ0VABQgghhBBCCBENFSCEEEIIIYQQ0VABQgghhBBCCBENFSCEEEIIIYQQ0VABQgghhBBCCBENFSCEEEIIIYQQ0VABQgghhBBCCBENFSCEEEIIIYQQ0VABQgghhBBCCBENFSCEEEIIIYQQ0VABQgghhBBCCBENFSCEEEIIIYQQ0VABQgghhBBCCBENFSCEEEIIIYQQ0VABQgghhBBCCBENFSCEEEIIIYQQ0VABQgghhBBCCBENFSCEEEIIIYQQ0VABQgghhBBCCBENFSCEEEIIIYQQ0VABQgghhBBCCBHN/wP6eZbQAAZoIQAAAABJRU5ErkJggg==;" vertex="1" parent="1">
          <mxGeometry x="880" y="159" width="102.4" height="64" as="geometry" />
        </mxCell>
        <mxCell id="PnPkqlYFe4MIE_lKeHhR-18" value="Security Group" style="text;html=1;align=center;verticalAlign=middle;whiteSpace=wrap;rounded=0;" vertex="1" parent="1">
          <mxGeometry x="501.5" y="465" width="127.5" height="30" as="geometry" />
        </mxCell>
        <mxCell id="PnPkqlYFe4MIE_lKeHhR-21" value="&lt;font style=&quot;font-size: 10px;&quot;&gt;https - 443&lt;/font&gt;&lt;div style=&quot;font-size: 10px;&quot;&gt;&lt;font style=&quot;font-size: 10px;&quot;&gt;custom - 8080&lt;/font&gt;&lt;/div&gt;&lt;div style=&quot;font-size: 10px;&quot;&gt;&lt;font style=&quot;font-size: 10px;&quot;&gt;http - 80&lt;/font&gt;&lt;/div&gt;&lt;div style=&quot;font-size: 10px;&quot;&gt;&lt;font style=&quot;font-size: 10px;&quot;&gt;SSH- 22&lt;/font&gt;&lt;/div&gt;" style="text;html=1;align=center;verticalAlign=middle;whiteSpace=wrap;rounded=0;" vertex="1" parent="1">
          <mxGeometry x="501.5" y="495" width="127.5" height="55" as="geometry" />
        </mxCell>
        <mxCell id="PnPkqlYFe4MIE_lKeHhR-31" value="" style="group" vertex="1" connectable="0" parent="1">
          <mxGeometry x="-150.5" y="313" width="93" height="91.5" as="geometry" />
        </mxCell>
        <mxCell id="PnPkqlYFe4MIE_lKeHhR-28" value="" style="shape=image;imageAspect=0;aspect=fixed;verticalLabelPosition=bottom;verticalAlign=top;image=data:image/png,iVBORw0KGgoAAAANSUhEUgAAASwAAAEsCAMAAABOo35HAAAC/VBMVEV2R9SSW/GeZP2ZYPd5SNeHUuVQKaxYLrRfNLpzQ9CATd5lOcFtPsmOV+twQcx6SdZyQNFrPsdrOs1rPcd2Sc9pPMVnNcltP8l3RtOIUuuETOeGUOeIUelxQs2QZOGbb+lwQc2EVduhfuP9/P/y7fuEUOGEUeGGUeOPWOycYvp2RdJ1RdJ8R950RNBzRNCVdtakfOx0ScqBXM5kOMB3T8piNMJuQ8hiN7759/7JsvLj2fbg1Pb18fxzP9Z1Q9bQwPBqOspoO8RsPcpkM8ZmN8ZmOsKdf9pyQ85yQs6TWvaXXPp5SNaoheiDT+B7Sth8Sth9S9p+TNp/TNx/TdyQWe6SW/CTW/CGUuN6Sdd7SdfEqvGUZeeCSuV6RN2zk+2+ou+NVvGQWPOIU+WKVOeKVedwPNONZNmUXPKWXvSXXvSYX/aaYfiBTt6AVdRqN8xqPcZqPMaQbdaFW9ajhd5oPMR3R9R4R9SXX/WAS+KDTeSLVO5xQs5/R+J2QNqpav/7+v6DUOCFUeLOufTZyfbd0PStiuxlNsR+Sd++qeeniuFzQdNwP9FvPs9jNsFfNbtdMb1rQcNdM7lbMrdZMLVYL7NWLbFULK9RKq2HUuSHU+SJVOaLVeiLVuiMVuqNV+puQMq5ouawleTEr+puP8puOtB8TtRsPshtPM6NV+uOV+uPWe2dY/t2RtN1RdF0RNF6R9tzQ89jN79dLr9xSMdhNr2MXOOVbOG4m+3m3ffv6fv39P3+/v////+PXOfp4Pl4Q9udduWIV+Grj+NvQcvs5flvQMuKXtvKuO3UxfG0m+WLVOmZdt2AUNloOMmIZdF8Us/YzPFnO8NyRMtnOsNhMMNlOcFyQ894RdmkaP+ATt2bYvmbYfmZYPdUK7VQKatOJ6lfMsBgNrxgNbx7VspaLbxeNLpYK7pcMrhaMbZYL7RXLrJVLbBULLBTK65PKKqbYP+eZP2gZf94R9V4SNV5SNWCT998Stl8S9l9S9l+TNuATd2RWu+TXPGVXfOWXvM49rKyAAAADnRSTlNDgoKCgoKCgoKCgoKCgmcPJjMAAAAJcEhZcwAACxMAAAsTAQCanBgAACAASURBVHic7Z0JXJvnnefTaaad6cwkRLZJCwnYIIeOkQ3GxuaQBEaYZGpIMOlsHc4ZO6I7W6Mak3ihwJJwCQSU9JjWcTwNYBF1sw6ysTmFESaYowqYBDDNzs5WrRU23U07LWloS7f9zHs9z3sfzythO7GftIkTG5C+ep7f+3ue//Hcd9/n7lc68D/5OcTx5wjjbxSOTykcn/7UpxWOP1M07rvv/i+U80YFd4SEcscj5PgCe3xDaPwDa/yj0Pg7ofElifHvUuNX1Pi11Pix4PhvUuPP7rvf+vnnsXHq1KnV1Q8//M1vDuHjwQcfPIKNZ555khhPPbW29tvf/u53v8vGx+HDv8dGTk7O0/hYx8a77x6nxkfkyMp6AR/bsfHYY4+9SIyoqKiv4OM0Nl5++eWj5DhDjmPHnsXHK9g4e/bsv5DjB/j44Q//Oz6+SI7XX3/9y1/+A/bX69hff8DH3+PjP+Hj/+Pjq1/941ex8Udi/OlPf/rP+Pinf/qv5Pgv+Phf5PgaOf71X/8nPv6WHP+DHL9iDYLtr39MwhKgdQjQekaU1u9ZtN4VpbUd0HpRmtYxQOsVGVqvk8TA4NDCeUFafwwcrV8BWBStVdbcOsKYWzgsghYF6zAHFm9uZbHm1ousuXWapHWUResYa279C4PWD1m0XpenJQBLkNbXWLT+Vo7WrwEsQVoPsmg9JUpLcCVmya9EKVpnRWkpmFtf/eqGrEQIS1a32LQCo1tHVesWwkoMHC0C1nkRWgp0K+du0i0M1l9az9O0nge0fvNxVPm/31haFCzm3JJSeXHdQlZ5v3QLWeXFaX1NOS0C1g4pWn7pFrLKi+sWssoHXrdIWDt2nBfTLWR3Kr4Skd3pnaZbAJYgrXu6xabFhXXPnUq4UwJWNElLjW7dVe4Uh6WLFqClwJ3eEbvqW6nyBKw3SFriKn/PnTJgCdBS4E5/GziVPx04Wn/YOJWnYL0htBLVuVMFunUb3KmClSjvTgEsQVr3dtVsWhCWrG7dBnd6p+kWAatHhNa9XTWbFgtWNJo7vbW76tvgTrm0SFg9zLnlpzv9BO+qCVg7pWh9XGI+t4AWCWvnzh4x3boX86Fp8WAh6tZdtavGYTl30rTuuVMJlSdg7SJpqdGtu8qdkrAEaClwp/7vqh/7eOkWAesCSUtc5e+5U2IAWLt2Cqj8vZgPm9aPCVgXLgitxHsxHw4tAEuQ1h21q74DYj4QlqxufbzdaUB0iwlLULfuuVPanRKwbgjQCsyu+pMV8yFh3bhxQUy37sV8aFoErMelaN2L+UBaOKzlxx9/nEXLL3f6CY75/PjTGKwnGLAQdeuu2lWTsGha99ypxNwiYFWStNTo1l0V8yFhCdBS4E43ZleN/RPHRY07yp1SsCqfENOtWxfzySq36nQ6a1V5efn2ioqKFyvKy7H/VVWVV1SE3hnulID1qAitWxXzsWKUrNavhIXHZhYWFdXW1tbVY6MO+0VuUWFDbHjemXx8RB29zbpFwnr0UaGVeAtiPsfXrboCa19/7EBt/eDQsGtEYLiGhwbrawdiw69gwLBJdvvcKYAlSGuDd9XruoKCx8Iyc+tGE4QgsYBhGBNG63Ib8s7m54cevU0qj8H6awIWReuWudOcgoL1sIbEJFlO7JGQlFgYfhQDhkhLABc6LSYscZUPtDvNdhe8MFaUPIwGCi7L5KLYsyEhobfcnRKwtgrQCsyuWsid5jjd2yISRwX1STGw0drMK/khZ26tbpGwtm59VEy3AhzzyXFW54zlDvoDisLlGk2MfRZbjrdQtwhYD0jRCmjMx+3uK6yXnFORNQnDw9rB0dFR7fBwQk2kFK/I5IG8kJBjt8yd/pqA9cBWoZUYaHe6Vu0cS9SLvfXh0fra3IGG2LG8vr6+q9jA/pE3FtswkFtbNyr6Vfra2NCQR26RO6VgCdMK6K56rfrpiLoa4bdcU9swFtaXVVBQgJlTvKA9Cx/lWeW4g6+qisKoFebWjwp9tSuhruGVkEduiTsFsACtjXKna4bD40miC6qmLry6wHpcbFf94nacWvmV8IbaQaEnaFLh2fxjt0DlcVjGN0laanRLmTtdq/59ZrIoKgJXYl/BuvRpYBS2Uyx/ObywdogvehiukGMbrls0rAcYsAKmW0TMZ824JoBqMLGe9e8TDVadbMzndFR5VcWV2MRRPq6GYyGvbLBukbDefPMBMd3yP+ZjNI7Vcd/aROLYtur1BraFSAkrEF2JjNPA01H5VRivCe73rIsNCd3YmA8B65oIrUDEfA4ZJqc4wjw8nXnV7c5+Oqf6hQEt8zeGiMml5DQwKj//SkMdR79qavNCHtlI3SJhXbv2pqxuqYr5HDH8bkbLfksTRf3Lbie589FV9yWyNoe1VwtIWPIxn/yqqvBpjnppi86G/Gjj3CmAJUjL7131ssHDFqaR5MJt1cvZ9K7a6e5nrdHRMauSmM/p/Kqj4UV1es5KdI0kx1KTayNiPhxYSO5Ubld9xPBWEduB10e8Vb3GPoLIcWc3MOXHlclciduzCNe1nb0ST5efDi9KTiAObrgjMveL5OTagIwkCEtMt9S701VDP9tZ1UesVa/xTwNz3FdzaVUb6reCZyJ+grq9Ly8v72q5taqcphV1ZkDqZGeQmlyBd6cErFcFaPm9qzYc6mC9o6TMZwxO4bNTpzsCYK2JLaCiGMcLssIHppMntNqhwfrc2D4MF0Ur6gzfOTBHQu6PQjdEt0hYrwJcAXCnBK4HD5knWVo01HnY8IzoaeC6+4VcckkVFRwnD+Z1XymsZ67hicTwqnKKVlURnxDriVsfTizFQLtTAViB2FUbzRFDzHfStc2wLBnz0RVE4NOlbt1KRDGs1gbe5mg48UoVaU/Lw9mrUFuX2xCeyMQ11EAsxQC7UwBLaCWqd6cGYwdTe+v7DUa5yP66uy9lZKJPR0wsHfZrgTGRWVWB04qqoGetFluieUer8itCYpm7BBe5FAPrTglY50Roqd1Vm99ivld94ZOGIwpiPk7rQEQBEfMp6BcRpZqi8u04rapCil5KQ15FFRHxOXMm/9kipkutywsJtDslYdG0AuBOV83FzCU0HWY4pCxCllOgIwJkBf3MJcweReUvYrAq8oZxFcu8kp9fcRrGqkPzw+kZ53KNEsIVSJUnYD1M0hJXeSR3avYw3uvwzCED68RGPiOpIEyc1cjIAK5bURWJ0w195VVRnMh+yJkihpppY+VoIcZ8AKxzr6KrvOBKPG9vZrzewX7zKmJGkvUFpvYM1dfWTg8yHos1sVW4ar1cURUVxc9IOpofy1jBNYWAVmBiPiSshx8+J6ZbiO7UZp5hvLOptwyHEDOS1gty4ZdHTmfix6fWq+G59GSbuII7iBejRDKS8q/U0j8/siggKxHQArAEaaHrls3WwfhgO21G5EzKgnBoAUYjdDrrR5iTL7fq+mgEuVWSGUmhoQOMqZ37yCOB0y0IS1a3FLhTjFUX/TonPOZV5Mj+um4afH3dVcyggn2iVTcAzEhCXrkkrTP5sYzNZi0aLUndYsJSo1ssd8pilTyJs0LNSCroB9Mi+aqOmZGUpRtgTC3JTMpj+eG07LkgLf/dKQ2LQ0uBO+XqFotVSrdZTUaSG+xktGEF7PytLCtYiRN9FTKZlCFnGUZPhJYK3cJh2R5++OGHxXRLuTu1tTBYdRltajKSct4FFm2gmpsbaA0Dx4ixVrl8+dDQRAat0EDoFkaLgPWaAC1k3eqxz9Cvr8Nm+1BNRpIujDLhQ1d1vExKHXhOFlXJ5cs/GxrC2GznBsidkrBee1hoJSLFfKIZrFyd9mh1dT7uTErGcwv4mZTWcMqV1FXJ1/mcyR+gt6dF/vktCOtTBCxhWgi76mh7cyTNyhytss6nGqh4ppufd2rto55ygy9ul8+XPxNSCC2ES8SdIu6qqZn1mtBKRHGndk8Ck5XajKRqavEkjDn5Oc1ZWXVA4bMU5Msfy2+ArykhNhC76l9RM0uQlvJdtWOSttjYGlRb55PjnCK/hzYsm58BnnWcgjVKwJLVrWP5hfBF6cMDQIuGxaGF5E5bu5MYrHrUV6G7KQ3X9zv5+fI8WLK0QqBuuUbzHvH77JQBS4nKC+tWUBBtazpwVqozKYFmRUa4+Rngxx+jvObo1SzBWLWAytPPxLpjx/w9OyVgPSRFS4FuaegHYVeLzZ86n2qwcAqr+fny1jA9+ZvJ5dsV1vmEhkC/5cqF5/Jq3SkJ66GHhFaiUneq8cAHYcqOIL/qfNxj1Da6LieHV7lS0ED9lFrrdqXVnKGhcK8Z2RDiZ8yHgLVJhJYy3XKUQHFP6m7xr87nyauUS68Jd3PrfNatILpdaFVczfls6Fm4T9SGI0bIuLpFwtr0kORKlHSnlRfgZ6edtKuuQl9bw2llO8E3m3bmcCpXCoBhTcizIlShh+TBz7L+R8f8ilVTsGRoSblTCxSsGo9GdSblcvZhglZ1JvhuhdVsWvRpc93xLJQq9PxYYLco2VLtTv+dgsWjpcCdErg0xdD5dVpU58svH55KXMZpObeBY+GazOpsBq2CPuhOGgrQ6hPz4eFODeFNVesWDqtlE0lLXOXFdat1M3wPKS0X1GZSGvHY2UA1Tgs+D0cSCnVuSuXXde5+mPiW9NhHiFXooeBwxzV4BSHHhje3CFhfl6IlGfO5YYHHyKPdrWrz5Y3bcBF2jRswlXe+S/vburEct9vpLHDr+uiQYGRsAWoVeugVSDoXJX+LG/MhYQFayO5UUwzeRI3HorbOh2SFTaUIA+ZOq8foOHxN/UBEf/9YQy0jIS5Rh16FTssWWIhqVJ6aWSK0ZHWrtRLmqnVYdqnMpASssKdpP6bzh+HJAzmGh1k5H0lXrSqq0Gknn3RWfSYlgCW5EkXdqWUcvIb6nZUqq9BpVpg1P7yGPRWXc0dEx2iYTk0VeugZ+KkOhKjOlydgnZCjJaJbmhKwPIaLNSozKQ0MVtoI5xpei7EmSmuUPJlH7zUSEq4HPyQvFJkWpVsYrL8iYanQLQs8dJ+xqMyXZ86riX4DaeWfdA4IZ/bV9XGiGMp1i/YPtarz5UlYJ04opMXSLUspDFu90aqqCv0Z41PQ/o9MhBnAxmetekygIEM/sE5mJB1X0T0j9Bj4jpjGq6zzIWBtkaIlqlvXHOCNRnos6vLlV410oBljRe8Ts6vfLeSkHekTw9w5uJc/rrOuq9Ct/FjwoKh7REXlCg1ry5YTsrrFc6fBHvA+pjQ3VNX5HDI0MVmxdtXO6m2ZtUPU+3Pp6wfCnERC0nGdLjOlz4quW0fz4QfTkK+uKooNC0W3tj4KHjDakxpVdT6HzJ00q2ID9zTQWe3cNtYwUFRUVBjRl+N2rhMV++6riZjXKlDR2w3uqF1JrxxTVZ8IYKHTCi4Db3TGoq7OxxxRw2TFPzvNdrqrieHW5ZA5NlTqac2YDC1B3aI1vjBfVRU6hIWqW47HwbZkdLNDVRW6jQ5yaPsNijKScsISyXPG5Besirr+sGiFngUyOHj2ETVV6DQsDi05d0pPrLJgVfnyxt/CB96wx6AoI4mRuzXA9VtKOg/ng6PWkcIQNXXVOKzW57YAXIrd6blrQLGSLjjUVKGfsk2BVx6ZaT6iLCNJB8+09LiTR1X5o6Hg80k+dkwFLQFYinQr2AOCTGXBqup8zHCnNDJgPqQ0I8kND3BqCcuFqFv01MoMUdE9g4T13HNCK1GC1rVUEPxKetyhos7nQ3M/PHOZMqwqzqTMyQb5yITGo/Z2Cz0NplZd6DH0HkkErAMitMR1a3YOmPeyYDUZ4DY6KlvfbUTokeSGyW71VBwDyZ3CqVUTHoLePYOERdNS5k7PBQM3Obo5TUWdz+fNcFc5NGlDyaSEMWv8dBm9g2foGXAMmBiC3muEgnXgOSTdSr0Ojhs6g7cqykhiu1M7fJTWjJnROg/rtoGE0dHHrLK7ap47hekP+rxQ5N5uABYaLRNQ56HrqSry5VtOQofVYUbJSMJxVUORHnCj96QMvQJ+9EA+cm83CEtMt4Tcadq5eeonNgWrqEKPtsHUiPnzRomYj3AmZQ4Q6aGrVvSelPlgGScfQ+6RRMB6W4qWgG7NzlH7lITiWRX58vZmKFgnbeidh91jIFugyI3eebginHwMuyLHQhB7u32ZhPX22yxacipvAiGd+bRr6HU+LZN66ssjI+wqervlOMHEpJypElr0UoTld4n5qJ3wmLCU6lbqO+C5XxaMXp8YHQ0XYZdZVW83Olc+143eeRi4B9foDxB7u8GZJbkSObTSS11Q3tHrfOwRgNVgt01dbzc3yCPCphZy5+EKIPGu2BDEDp44LMeCHC32SgSr0DUVfA69Cj26pIvUnBqPXWUHTydIAMdVC7nzcBWF2oVZLaQui18kYQnQEtetTW+CVegJVpEvfz6oxUN8gybzeZWdh3Pg1Brq0ynvmE7Ryo+lFsboWcSelF8iYTFpyemWqZR6Fk5sTlVV5xNt725KwBeh6p6U9NQacCN3TI8Cx1qRsSFInYf/QMA6KEJLWLdMIMeoK/2cyjqfILtn3mNW33mYnlqjj+Wgdkw/DdbhSFE+WudhEtbBg0IrUZjWpteAI80wKcuk3FXZ6tA4HPbW1iD4TGw51eNP52E3nFoNzOoCZbqVH0uKpisZ76WrvPPwl7/0NyQsQVqCujV7nXqd2uupSvLlWzWO7pOeZmx4Tp7S2Hsov9VzXnlGEl+3ctzAf9Sv50h2TBfQLbjlGc4LReqYDmFRtOTd6WIG9TJTUtPkq9BbLd0ZXYOkyLmGk5s80SQufzsPw0xd11iBdH95/rb6dAUVFHMV5iP1l2fCUqTym0zgdGbcJJuRVGnZPM7uvhZZX2azo2UkCap8jhMY8doCkf7y4ioP2kJgJh7pXgwaFoeWmG6deJU6fE+YS5fNSNJ4BHrdThfjk8vPzsNPu0HyKWFM0XQL7A9Hkp8NPYPQMR2HpTl48OBBMd3iutN0IFmD72ySqUJ3PN4k2OxWP94apCgjSWpXnf0R+BwG3Ki3TUZFUU4xIa8CpOkqWYkErCUpWhzdMsVQr3Eq/TXJjKTHNZunhVDhoykoCFm3uCoPc96S3s1Bvc+nHJiHhvwzCLRIWEsHhVaioG4tApc1bpLOSHKIs8Jotfb4ey+GExSn1IwJ1PlI61Y5EK1cFiw5d0rBEqYlsBI3NVLP7MhSk2RG0jXNlBAlMDrlVF5Wt7LdINEj0b2OeJ8P6CnlqsunazHkVR7AklyJDFrpu6nlPnF9VjIjKZhO+hhJqO+I8Hiamxhqj+2iEfJOBVdidQQ4/LiajXhrW8UVasczeqVCjhZjJUJYCnXLFEdN/vnZTRIZSY+mnqTbM00Vt2osFotG80YE3Vsy6cMg9Hx5Fq21dwH8TF6dj5xulVPGIyE8H+E+HxrWEguWmG6ZSqkX2GWSzLFJhYtQm6GxVJI7n0rLGzMwcaZTfZ0PpVugRngkhVfnIxfzqQIn8bH5CPf5MGApUnkTOD8fN0llUs7CIhVtafBWelfdaikDvzHRHaSyzgfQWgZRbW2fDvEeMqjwA/lHhWkJ6RYBa48ULZZunWgE/j2mUSrHZhYEURNK2Tk2FyxQy5rtft42me0Eq7rBjXjbZHk49ZW1+cycZhndImHt2bMkq1sErROL1MOwJi4dnG+9hklZ6uxsenq6yUSdBqZtBpHQzmDOGURQK9gCT7f0+HmfD7RaKe4ctPsTy/Mo6a3LP82iJalbAJYgLf6uesvXwcNwbzoG6US6adGUvunVd3aXzJV6Mpo7M948h9OCOTaDmx3cmA+sYNGebPXzPh93GLWmtZNOtNsmt/dRD4fBo1FHFdPiwJLTrfS91JSZP4FRSn81rjRjvCllflA7nECcEY1uTiNgAec6E8w7DbzhAFPL4/DzLvTsNbAOM91odwpHbaceh0N5Fex8eSndgrCU6VYjcA4pe0vLmqYHtZzu5RPX8ZPmc2nUs7CmOJUf84E1LJ12f+/FgOsw0Z2DdNtkVBXlaIfDy9kZ4FK0cFipewRoCetWPIhFa3m96xmw0t6hPvGJzdf4p4GOYuoPY3seP2+bXA6jXs7ou9lot02CJkCu2HLld6EzYClR+cUYHh8OrNlXcViUss1vvcY/O20FFT8pOCy/bptcO0zlPWD7w6flaTGWYhWYkw1Vym+bJGBd3CM0t4R0qzeDx0cS1gPX2KeBBKzuCTYsP+7zMQBzOVANOw8r0q0qkItTWMWv8xFzpyQspbQOLI5z8fBhvUrDSn7gGj/m4yihnmFTBKw3LvSo1y24P6zLzmF38JTRrXIqaDFSVK78TmEKljAt3ko8EN/JB8Qc2rhZPCXpTSoANLQ5jR/zcYAdU4cDj5D1nAqyB0Wr3FU7t1GxB+1V59NitIR0qxw0rcRgKb4LHcC6qEi3DsQ38fi4hrWD81NdM51lZZ6Y0s14EONcKmXgI2OCeTGfC7C3wbhmZ0/PzqCm6YgSOxHGQHenayCjJjLCjXS7d3ke5fZqK6IU3ykMYUnSAu70QCOjrd9IpD55qqM5Zm73w6+dwOz74qLJZEojdj4wM7Ap+Bo35rN1K/WodJVqdu7sqSzRY6u3q3+HPUiNOzVQQu0qqka6U7i8jwlL2V3oZ2lYSnSLhjU039U8t3df+uJifDq2EcJ2PK8xdtXppZQiaEtSuVEMC3D3EyWtGCwNmV5akzxeYm+NRnansPx8ei0b5S50Gla5YC9dQd36OwzW7EWltBYWqKPi4biFxcXG9PQTwpmUae+Ao6ap2TQWrcc1sBHElGbXzp27HPAsZ6ipuMXeg7irdoJ83KFtTqk7hbm6ldVH+Ze67VFK70L/AQ4rdb8ULaZuLSwA5d7XKJkbmA57rjSbzjGiGE84aDgeHBY0XfhISPHYyPZbimM+a8vUx+fqX0a5Cz3rKvVx1r8YpfgudBLW/v0XZXWLhEW9tKR96ZKZlLO4EpEAyoJTaVoWBxS95AuVu3bt1DSPsMZ0xHm6W5kS3TICd1lYLdwxXVi3sq5SB8v1FVESvUbYtNiw5FYiD5ZoBriJbkjdtDk4FZf5R6+lBp+kW7hlWIhd9fwIZ9RjuKKV65ZhjPq6RAP3Xgwp3fqIDUu06w/LnWKw/mJ2v1JacBkm7WuUrvOZ3UyXOI+Ol6QGz84GP1rcoYf/MaW1EttU37jRPM8rtK/HFuMOpe7UCPri1mdnC3RMF6NFL8MK6d5uTN2CsBTp1gIIhE1capTJlzfFMPrCa+e7ZmamkhlYhkoc5BmEprJ4hnsRimu6v6VFoTs9AsoWhyaXhfrLi6zEcobAS3crY9CiYXFoCerWQjwlOfrdjXIZ4CYps5/ggaXCNxyazZ4p7oVyU5N2mzJ3agBnt/3Lojc98GkxrINcjyRatxiwZFaiKCyRlZg2y3f7kFXGLDM38AlL68kOzpmPdqbbvkNJzMcAm+ZWC9znI7YSGbC2y/V2g3OLgHVZES0M10IbBWt4b6Nsvnzq7MyI8NBnBFeyMyl3OSzdzZy+F8kRLUEKdMsIUsWLjNncOh9xWuVhNCzZ3m6AFglLKa0FL/X+a+biZfPlH05NzxC85yS52LKVny/fonkjgo3LNXWSaKYr7U6N4AAwRejWNjHdssKNtFUkX15AtyhYwrR4urXgHWfDkq7zSTOVcG/NxKZVx+ZZ4Xz5IFbIGqc1NG5rkdOtZeDhk9bWRO7FEKBlBQVABCzZ3m4kLQAL0JJxp/DwL8arqM5ndra0S898/xNNJcEO0Xz5IN7smp6kJpeoOz3yFDjDnlwWrEIXpKUDuXCFOrF8eT4tHFb65ctic4u7EnvBsXKZV1mdT1r67PWyqWS8T8rwxHxXxvXZ1K1S+fIXNM+Ps5rQaJvxySWl8gZqAzXcvyxchS6kWzoQks6EsOR1i4D1U8W0ekHZzkyv0ir0c6km0+brJ+fmTl5/NHg27ZpcnU+QppvhXbExVWI/L6XyZirlwTVmEO2ewaNVAL4oVqew8zCE9dOfKqTlBaGwrl6E+sRzaamz2EhNU1bn06IpZl1CN+Ex2yRU3gAOzzINgvWJgiuxAIbCrEo7D2Ow/pyEJU6LpVvxIMiasrCAVIWOdp+PoyWCmblb0xHdIh7zMQKtHjDK3kMGaB0HOUdDYeWKO3iyYcnPrYvPgVDEvkbUKnT5zsN0nc8uTXcT4znqmi6xi+oW9A5dy2vit02yV+L6Vep9jH4lS3nnYQLWzxTTWvJSxw7avfEKqqJm0zepvRejxc5KCx/12M+L6NbyNkoapjFYMre2AVpWsDWst2Yp7zxMwlJMa8lL7WFccV75Op9N1+PeMZnSZ1OVdR5m1yf22FmTa3i8xSasW6tvgdOWZ9Yk7yFj0LL2Uw+qWp3y3m4AFkFLiW71AjXN8MpXcy52DCdPdcZc3/2qqtsmscnFdBFdp1oE3enqU+ACgrUnZW5tg7SgzRrQIfSkJGB9U4CWiDttB0G/Ga9snc+mdHLNJsxfT1Vz22R0j72EmfIMhIuj8quHKGkYemtZ0W2T+OWcIMMyU4fQefgfCViAlvxK9N6kDqVSvAtydT4wP2l09yaVt022tIwzDm8GizFaPJU/ZKRKAIYnl5XcNomPAopvTb9VURX6USYsxbTiL1Gym7SvTa7Op3GOqutLMam+zyfI3s/QeS0l8yzdOmQgYEXWYPsdBbdN4iPnMeqbjvZZFVWhk7QALKGVKERrj5fyi8NxXrk6HxPYSHaaxPPlZavQ7d0Mh5rQTF4WxaJl7J9pjojw9Be/dUTBbZM4LB1I3a2zovRIgrCU6paPOqRxZfTK1PlsghHZmHS17hSn1RJE54OPuDrxhyJHt4wGg9lgMBiPiFdzsmkVAH3PLUDpkUTDUrgS4Va6yStT53PiAHUcMHw9Xc6dSlahB9kjGMHFJoyWqip0hjt1gkylBh1KbzccVuM3EWhd3ksp9hm1iwAAE21JREFUfP2STBU61Pf6dzaJ5csrq0LvsRczhCvxeS4tlNsmcVrroPdPTZ4VpUcSAes9BFptz1HzRX/TK13nYwIJD8xiDHW6tcPezSgxS+nmq7yy7hkULR0oKBu8qqyD58tMWO+9900x3eK60z29wMNn+KTrfBZBR7HxRf9vm2z9PMNxRbRAv7W6ajSY8WEwHlJ8Sy6sgiW7LCrukcSGpWRu+cAzrsm7JFGE/vUTjVRQOrK0MQC3TbYEwRh316loale9arY9WBwxPtAxM+7ZtmowKurttp4DJatQvmM605wCWMppeW9Sj93Rl9qk6ny2nJiH+q7sDEK6R1KQvZN8KHbZbORB83nzeU/TIPVqarR1M5MGo6zK430DP6J2UQn9Oqm8U55uQViKabUtUaIVOdcrVedzYB8IJOw7wT/fQnan0Tt6yIviu4Ko6GuQMaKeEfXGhrZr0nBItJoT6pYTHIANfpSjvAqdBYtDS1y3fLB8wieWAY7TgvUFUyc2CZwGilWhS6h8j92jH0mJthFZI+fNk6zjVArXwJNGWZWHpXe5BevKq9AxXAxYEirPcqc+UDiQ/FybGC0MVzxIdphZDMDZKUEr2h4x1R1EJCRFm8u0fFbYqJsU79NMLsXsdynjEBnB6PqjROUFYMmtxP0vUabHNecVy5fHYIGHoatsEeHsVKZHUlCQjcikZN4tzBmj/QZp3XL2Ux/20FVmZxYFusWCpZCWDyQxzPQK5J2CldhLJYZElprU3tom0K0smsgAPy/OCj9WF6DFWIlwFdYWrIvmbwnqFgHrWyK0RHTLB+JhSS+1CefLb9lCZ4EPxzUi3+cj15OSbgpLjBp2itfgNindyob3a2Uq6Z7BpEXComkpcadeuA5Le0WqC7ZsWWikXOTQ3nS1t7YJ6RYOq2WSoVeDTc2e/ojOFMZ/SjEeEtct2Llz6KoOrQodwBKbW8Ir0Qf84VT7Ei9dntKthS3UBmV004lAxXyoOp+eIHrvkxzxoNlutpnNtm2M0GymQdydwj5leDsIpCp0CAuJVvsctQ71N9sF8+VxWK9RdizpwAn5CBlSB0+6H+VI04P2aHJXvWoz98M0idG3VsXcqRPOygg3YhU6AavtW4i0vMCXjoz7xKo5G/dRa3U6/YRIJqWamA9+BhEEfnrkjNnGyLExvwWzeccNYlXo8P7EwY+yEavQv4LDiv+WFC0h3VoBMZ7B59pE6nwYsLag3ecjp/J2DzgLbOLchW6G124mH1kV3lWvPQ0Oe4qqUeoTCVr/QMNSovIUrva9QB9ifCJ1PsyZpTayL9x52A6cS9JvbJx8eXg5TWS/QbAK/bAR1NwlhDmRqjmjAKz/w6UltxL3+8CJ8Xxbm3DlChuW6tsm+bp1YQd4FkfYuXU+qzYg/QMGwdPAtWXQ0C3F+XuldT5wJZKwkGn55sAWttQnXOfDgYV8a5uoO22dpFzVID6xOLTM4EquaYPg2Wk18A2uCLfCqiiGblGwZGjxdGv/ZfARpngvClau0LAake7zkXWnDrCQMMXiVUUZYc7kb1cFzk5hpc9I8u+zFdf5QFoYrM/isHi0ZNzpCohbRM71Ctb5QFgpjQcCmpGkAQ+XMg2/mnPVCKLTk0aBak6YnTTSUK28zgcuRQgLcSVePghMTUp8m1DlSuM+aldRv7CgNiNJULdAISzegYtfhW6n9g3aSSM/ikFPrNFtTuV1PmxY31ZBawXW4ROqxaO1cIB6YYMHFpTf56PAnYLLmBNKWwWq0AEsbGbxYz4GOLGoEjJldT5wJZKwvv1tZFo/AxvEkfmDbQKVK40QFrbzUXfbpPBKhG2SBHu7MWYWL+bjXAZudgKbWMrrfCAtAEuQlqRurcCdf4ZPoM7nINxI72YUYwTAnVpgBy8Nv3vGjg9Bnvc2I6/Ox5AJOoEWVivMAGfrFoSFSGv/Re/bQLVGX/LyaS2AIxrtzUa/806Z7tQBDHxKSw+PVtAkaNe6usrJl39q+S2wFia2LR9WQ4sNC2kl0qo142NXFxCVK72UECfAypXAqDwsFNaWtPC6Z9jBGp0y8/PlQUWUq9OgIJNSQOVpWMi0vBfBvnU4rp1f5+OjHvGuGK98vjxCzOfGE+DHdli4PZJs3WBzOG7gxqqN8FKWpGynsnx5rm4xYClReZZuwRPTken9+3nVnLByJaMX8dY2mZiPBswefbGD3fXnvB0ctOknbZwq9CNGeAgWgZAvz6JFwHpfipa4bl1uhyH1DB+vzqcXpDqM9wY2X771JJgiyd0sWjvs8JLXWtsqJ1/eAEL2I9OH1hTny7N16xsErPe/rWol+m6Cl63d286tXPHGUVrbFH/A33x5tm5pYAX/fImmB/ZIstkjwMtxecycjCQDvAA2od8ol5EkplsULJW0VmBpL7ZF5NBqu0S9vJSFBfTbJqV0y0E3jB30OOzEQ7Gnxf5gB4xPp9ieZ+fYHDLCiGyRQVEmpRAtAEtyJYrSem8J1oJnrHDqfNoWQPbpQ40ot7YpcKcaOhBWk+IpabFY7J+f7KTTwPXFZk5GEn2p6ehby3IZSaIq/43P3fdZ7/tytER1awVcKzOiv+lbYunWUhv1Yep3tyHfNimtW627mDWcE9NTU1P1zIr0cTsnX94GD95dEQZlmZRCtGhYqlbi5RWYCDS/5OVUroCUozkllStIMR/NSVb5OadFf1dLNLtyxfgghDtlPCKXkSS+EhmwVNFqfwkuxCZfG4tWL9gPZfRK58ur0C1LsWD1NckjmnP70aoZXk06gcdfZTKSxGkxYamitQLPTF24bDFowULOjl7pfHk1MZ/USW7nDDivdtg4/SDM4LhwJDKCHdlH1C0WLASVh7p1GUZcR/RxPmblihcYi5S2Jfk6H1Td0nQLNufXjwfZOL1GzCCDFANpkLjdW96dErC+o4iWiMq/B3c9I4OX2hm02kBt4uilNsTbJpXsqh2tZbzJ5UqZJJr+MGM+Nrh/Hkn6nVHJbZOitDiw1KxE2pqOTC+10ytxyUt99pFx8Wi3TSpzp5WaU831TG3XT3mCWri3e9s+hJ+lPkw4iqFY5UlY3+HNLRRaKxnwJXe1e2la7cCyZshVrqh0p5WWncUz00lD2Jion2o+2WqP5p6dnrfRq3XcLH+fj6Q7BbCUrURh3WL4h5EZ30VIqxeU2zUJVK4g76oFz04rHRrHqZPYKLmgcVDnWz1BNK3zZvqlddlWEfPluSsRwvJHt9r3wx29q7m3DeiWdy9lBeeXlmTv81Ed89lV2YqNINB5ONr+/GQ0oHXe3gkn/Txmt1DuQhegJQBLxUr0XaLLRTJWwNxqO0h5Qe1NuTqfgMSqicKVIM+8drKFpHXeXga3ixPbbOrqfBi0aFh+0VoBqckjI8MxcCXCfMrS3gW/aCnMSOpxBHmmXXj49Tx5vBUBUwL1YWbFdT6i7pQBS5VuQVoxsMwtIQbMLXj+19GLcNskim5tdVTSseqeNzzkk09/suU8m1VNhFllnQ+TFguWHyp/mQ72YHOLoIUXY1CvNnlpj6Jb21Dd6RPdJ7daMF4krSDYxnMGc1s7GKywB+GqeG83xSpPwPo5Gi1Blf+Zj25bN5zh208UY4AKsuE4r/LbJhHcqWVGn9JZ/IbDQuKCp8oT3UE2+zjNqsOMfNukEC0xWOi69bN2Rtu6Zp93DzP5NINXuRIIla9sxZddwmBTxqkbOCz6wHncYme0HOxqMaqq5uSuRBxW+89/Lj63lNNqZ9Lq8OJe3gfv94tfUnrbJMKuWgPgDHW3kkkj4MC5fkcH7e27bDaJ+kQEd0rA+q4ULeW6xaLVdRCjdfkSiPFdEq1c8SPmA4PTUw5S5R3gIqkaRssyvIpMxW2TAivxCwSs734XlZagbrFozV/y7bm4nzotdcWAYoxAulMNOFgv05DPxF12fvETWXGn4rZJPi0pWH6uxME430UfeEY29S4JZoD7o1sa8PTTlzgov6XxCLBSfUsu150CWBtBa7isfQXEwwapyhWku9Bl3ClchXjrYZJW5Ruc/p0dPTZ1t7YJ6RaE5a9uAVo+ZuPbpoMr4PR7TrxyRaXKX4NNrJstjBwb5qFN5IydmXfqVxU6CxY6LRG/VcZo5FR/E3z61DpUr1s8dwrvm9SXtIJddaUlgwErodne48dtkzzdYsBSuhK5sLh+ayWGUXOk7QJ3Ll3yCqXL+6Fb8CLTFEcliFXvnGGExIY8xPmW+tsmubpFwPq/aLRkVuLllZvMnmpg3x/TK1y5onZXfe1xcKpcNkuFEy3FzO7ySZN2/g01yLrFdKckLJpWINzp/pVL/Ce4a6p3j+I7hZXolgU8+DBHip9B3LBc6NQzfmBKt13o1jZ/3CkFSwkthLNT335+pal2r1fxncIKdOvaLDgvbrLgXa0dllJmmNrVEdQqf2sb4q4awAK0AuNO97+3EsOLgmYwajH8d6epYKtTU2p54omtwSVdzC7OQxmaIFbtK8p9PqIqD2EFVrdw4eLeTkGU+QRItx54AN43Wb+1datl5zjrs5k/aWFWc6q+bfKwGCwBWv7FfC7OsEuXE+JWRGkhx3zoW1/Hg2e3siOICTM7HZy6ar/uQocrkQErwLq1v31ljh0FTSpt87UFSLfSwT5q4vFUD3sOJ5dqKoWq0P13pwSsf/aTlkis+vLKSx3s/ifzpUu++EDoVtoD1LbG1RXDRlXTsdlyYye/Cl3dbZNs3SJh8WgFRLeIycXqho/hynjJJ16Frli34HXCLs5zpL7U0ipYhR4Id/oICWujaF1eWWrmvJ3BzpvtvZK7anlaaed4dxsRY2j8huWGcBV6INwpgIWwEtHyTttX9rIe6tjQTpW+1Ott88OdmngnMfhI6CqxtEp0z1B/FzqlWzgs3z+j0ULLl7/sa5/jGfqkmbnnMF5LalQ+Lc00KzSxUkpTNbK9RvxypzQsDq0AuVMS1+WYeu5bc9XPzL3k9XklttUCtF7blG5K3ewRSM2a9zgsElXoft6FTqo8BuszFKyN0q39+y9i0pXBwzVSM9gUc7PNi80wRbr12my6Kf3hueYpgQzJec+14Guy3TP8dafEzPp/IrQCpVv7L170CuLCbxHriInDFMzrjW9cEFuJJ2bTG02m9N1zGV1Jw/zvEUmgkqxCV69bTHdKwkKnhVrncxGbXXtiUng3zuFjODllJiZu777GXgxafHwjPtKx0ZiO/cK0uLh4Yvf1ubKO6UHeHT7EV0+Vngu+htIjSbU7DSVhCdMKoG4RuHztcU2iWcba+pSmmbKYubm9u3df2oeNS7sxRqUZzTNd00l6sa+a6DiZOntOIiPJX91i0gKwxOZW4HSLbJ7hu1Q27xJ75/ioqRnW64eSsDGk1w/XCE4m+GenyzYHz15D6u2m9i50XLcgrFtDCxMv3564jmQpBEpHUsdcmin1HFrnYb/caSj+NPxAilYgYj5MWnsutvveLu1IkpwzciMyqaP0HdNsmoJMSj9UnrsSSVgffBA4Wop6u/naD851zuvVkdLPz5S+aUpPVd/bTaU7JWB97wPJuaVoJXJhyXVZvOjz7dmb0TQvYAWkRkJyU9n1TSbTJs65PFpvN5W7ahJWIGihdcIjeHl9vrf3xsxMiT/sWJySUjo81/eZFmeFOqYrVXl/3CkFS4ZWAN0pu6v1HszA+3r33SxtbppOntBHCkFy6SeSppvGY+J2Ny6a0vF2ugozkgLuTkPvv+8zK9/zgxa6O2XRIu7FwIj1ensP7o6bi8kY72zq6kqZn56eT+nq6prpLIspjdv7UDzm4BvTT6ivQlflTrm6hcN6/3skLXGVD7A7vShw+9HBg3viMWaEh8d2PtjAjXx8vHdxMR7vk+R3vnwA3CkB6xffk59bG6RbvH4QjEFsrjcmX16dbuGatfKLO4mWPzEfv3RL3p0SmvULRbQ2VLcCEvNR03kYxZ0CWL+Q1a0Ncadc3QpgRtIGuFMI6w5aiapjPhvtTmlYdxCtW1Hno0a3cFjf+YViWhvmTv1SedWdhxHdaQg+s74fCFp+qbwC3QpEFbqfMZ8KAtb3v8+idZvdqXQqpdo6nwC4UzasT4pubdCuGsBSQ+uO0q1b4U4hrNuvW3e+O6VhcWh9bN2p/7tq0YwkHNa/fV+I1t2iWwjulAnrY0IrcJ2HUXWLBetW6ZZSWhtUha7anbJhfVJ0a4N21RxY99yplDsVgXWn69btcac8WAHRrTt8V6025sOH9cl0pwGJ+RCw/rcUrTtFt26DO+XqFglLktbdolvy7pSC9XGidft21QCWalp3kzstB7BU6tZd5U5pWHf6SrwDYj4MWHc6rdsf8yFg/dJPWh9bd4qoWySsX/5yo2h9omI+AJYgrXu7arY75cD6ROuW3xlJEFbAaN1RuhVYd0rD2jiVv+N21WpjPgxYSlT+Y+tOAxLzIWD95JcBmVufSN1iulMS1l1Eyx93SsEKEK1P+K4awPqJct26e90phCVJ6547JWjRsO4i3VIb88FhffCTQNL62O6q5d0pDmvlg3+TGD9fwcd3iL+///6Kjzna+cPLGfG80dbIGumsMUuN1NRU/P/E0DCHA4xWxmhhDRtrGIXGMnc4GUPHGFbm+ML99933GeTxWXyQf0caf6F4/JWq8deo4y8VjvvJcd9/AF2boJa/QjnvAAAAAElFTkSuQmCC;" vertex="1" parent="PnPkqlYFe4MIE_lKeHhR-31">
          <mxGeometry x="15.5" width="62" height="62" as="geometry" />
        </mxCell>
        <mxCell id="PnPkqlYFe4MIE_lKeHhR-29" value="&lt;font style=&quot;font-size: 12px;&quot;&gt;Cloud Front&lt;/font&gt;" style="text;strokeColor=none;fillColor=none;html=1;align=center;verticalAlign=middle;whiteSpace=wrap;rounded=0;fontSize=16;" vertex="1" parent="PnPkqlYFe4MIE_lKeHhR-31">
          <mxGeometry y="61.5" width="93" height="30" as="geometry" />
        </mxCell>
        <mxCell id="PnPkqlYFe4MIE_lKeHhR-32" value="" style="group" vertex="1" connectable="0" parent="1">
          <mxGeometry x="-310.75" y="310.5" width="93" height="92.25" as="geometry" />
        </mxCell>
        <mxCell id="wLGBiTn9vYruEYs-nZDu-24" value="" style="shape=image;imageAspect=0;aspect=fixed;verticalLabelPosition=bottom;verticalAlign=top;image=data:image/png,iVBORw0KGgoAAAANSUhEUgAAAMwAAAD3CAMAAABmQUuuAAAA/1BMVEX///+dUCX2hTaZTiT6iDeVPQD1ehf//fv48/BrOhmxXCnheTL2gi6gUSaVOwCbSxthNRdkNhjv5eH+7uW3hG34qnz+8uv2fSD+7eT4o3Dt4t2zfGP4pnWaSBb2gCmXQgCNSSFdHgD1dgD84NH70LnBl4X82MXLbC7ugDTXczDz6+i6i3bStanCmYf5rYHCZix9Qh23pZxhJgBkLgCoWybWzMfEtq+umo/4nWT6waL3k1P5uJL7yK6rWSjRby/hzcWlXzupaEitclbZwbfKp5fhcyOESB6JOwB7NgBlMgvZ0s6kjICPcGB4TjV1PxuIZVKXe2x9Vj9SFwC0bkHPhFagWXkzAAAFMklEQVR4nO3de1faSBgG8EJCICSgUCotCoS2lktdg4C23W61u+vaohWr3e//WXYmCSEJuQxeyAz7PP96Tub9kbzDTBKOz56tIY3a3st1jLOGNHbLW7ryahM4lJKR5OwGcCxKhmKyonMcioMRmuNSXAzlCDkVeCgejJAcH8WHsTjP065vhQQoAYxQnGqQsoQRhhNCCcEIwQmlhGK451RroZQIDNecSEokhnJe8MiJocRgLM5O2rUHEkuJxXDHSaAkYLjiJFISMdxwGCgMGC44AxYKEyZ1DiOFEZMqJ89KYcZYnHQwhTIjZQVMNvs6nw4m9xQYBRhggAEGGGCAAQYYYIABBhhggAFmpfLebAymsF9W6h8/vWE9GscYQmnSV1xadeX3z+8KImMoZfFWCAFlD98mPdLiFGNT/GPqLaW190fcyxRcYuaU5THJKYppIg4xhf1cM27M6CbiENNuJo8Z3kQcYpjHJE2k+5pIZIwN8jSR6BgHZDdRPicJj5mDsofdLxKJ8BhbJMtZrVtkAfGPsSLLcu+0WEoACYKZg/pm3DUnEMYRZbVIkGiYOSi0iUTE2CDaRNJmYCyQtkGYLDD/e0zDvzURFTM4O3j/NZdTXr0TGlM4O9j/s51rN7fogfV667N7h0wkTKFx8NtfTcJo+n7Loiu9TzsCYfKNv893t8oehv/ALeXj27wAmOrZeU0qt9vN+Pfy9Xr9kGfM4Oyc9ng4I+TAOn8Yt8fjGWEH5gpD13X/BHtcPIxMF9ynZjEjSYwMLjEWo29am1W2GwpcYiij1+/ek8ERhjSH1rU3pvdk8IORzQczOMIEt6KPjSmVMkZfo1ey/GBTuphSSTJmqrq9va1eSBPzoaj0MPSUDNWKOk+lUrFQmaLZ78n3QqWFyX37Ph5P1ZDYqNnFpNhdFZUWZnB5cnT143rU6YzG4SrLtD0zJmZXY0SlhXE3PlWqurkmqAiVhapQ1GlSS6WN8Wznjk8+XN2oI0s1XVLZV19lGDdPcIPxq37eqJ1wlXeeCKL4wwRUt9Nw1QLlzhOJdzRTxCy2fpfHR0Q1dlSRk5/WFwAzT96eAqeeLycHpM5mQ8Mwkp4C8IRxSLlSRjKMi+HMUgyJgnwBk6/gpDF5xDiPzksWIEIhGmb1MYEBBhhggAEGmDVj6KLDt/UQCFNyk5Eksigkq8Lh0F6l062HruscYxa1Z6za7eJn9vp8Op2OaUajTufu7q7z3fj17x4/mJjap07poxGtneympte3P35efTg6Ojk5vmwMCo/wyv1DMf6Lxi0+WPlYvb2xSrcqrw5YfqewVoz5RTLoPsi5j7VIRXU/9ONH+tCfGuPc/+hp/dOuWZxMiqbZ7Wtaj/xBWU/xj4nxq7zzK36mBQwwwAADDDDAAAMMMMAAAwwwwAADDDDAAAMMMMAAAwwwwAADDDDAAAMMMMAAAwwwwAADDDDAAAMMMMAAAwwwwAADDDDAAAMMMMAAAwwwwAADDDDAAAMMMMAAAwwwwAADDDDAAAMMMMAAAwwwwAADDDBeTPkpMK/TweRrZdZ/SsyM0ZXDVCwkg/eMHEYMoeykZaEctrPDhEmZwsxhwHBAoWHgJGI4odAkchIwuvKCFwpNAicWwxmFphrHicFwSKGJ4URiOKXQRHIiMBxTaCI4oRjOKTShnBCMABSaEM4SRhAKzRIngNGVvedp17hCAhwfRjAKTXXXw/FgBKTQNBYcFyMohcY9Ow5GYAqNw7EwglNorIuNYAjlZdq1PEIoZ0MoNNXaei6w/wDKJiTkQaOC+wAAAABJRU5ErkJggg==;" parent="PnPkqlYFe4MIE_lKeHhR-32" vertex="1">
          <mxGeometry x="19.24000000000001" width="54.51" height="66" as="geometry" />
        </mxCell>
        <mxCell id="wLGBiTn9vYruEYs-nZDu-25" value="&lt;font style=&quot;font-size: 12px;&quot;&gt;Route 53&lt;/font&gt;" style="text;strokeColor=none;fillColor=none;html=1;align=center;verticalAlign=middle;whiteSpace=wrap;rounded=0;fontSize=16;" parent="PnPkqlYFe4MIE_lKeHhR-32" vertex="1">
          <mxGeometry y="62.25" width="93" height="30" as="geometry" />
        </mxCell>
        <mxCell id="PnPkqlYFe4MIE_lKeHhR-33" value="" style="group" vertex="1" connectable="0" parent="1">
          <mxGeometry x="-699" y="303.5" width="93" height="111" as="geometry" />
        </mxCell>
        <mxCell id="wLGBiTn9vYruEYs-nZDu-2" value="" style="shape=image;imageAspect=0;aspect=fixed;verticalLabelPosition=bottom;verticalAlign=top;image=data:image/png,iVBORw0KGgoAAAANSUhEUgAAANIAAADwCAMAAABCI8pNAAAAh1BMVEX///8AAACMjIzy8vL5+fnt7e3d3d3Dw8Pg4OD8/Pyvr6/s7OxAQEDOzs5hYWHx8fG4uLjX19fKyspQUFB2dnapqamVlZWwsLCKioqhoaGampp+fn7S0tK/v79JSUkeHh4lJSU2NjZXV1cODg4vLy9sbGwhISFeXl47OzsTExNwcHB7e3sxMTG+aSOYAAAKrklEQVR4nN1d13bqOhCNwYDBEDqhh5aQhPP/33cxkmw1sC3PSPLdb2etE1kblemjtzdUfPSD4Hw5beaDJu6HrOE9yPB7WnTqz2seyOivIteTqoRYYfTAZux6Yubo6ykFwXej7XpuZpg+Y5Tg2Ou6nl9pjF4RemBWq6WKludcRnf0d64nWhSjp4dIwefc9WSLYFWYD8GH6wnnoVdoxwk4eL39xpfShBL0vb0oun9GhBL8+akqDcrvOQ4919PXYFmF0B1T3xYqLH5xP8XENQkB0Wd1RkGwdE2DwxiC0B0n10RSbIEY3WVU6JoLAdQaJfj04pKIABndOXmwTk1QRndOrgm9sF1N8e6aUVUJq8HKLaMBPKMgcKvFgohYGQeXjBYYjIJg7Y5RC4dREAydUZphUdq4YoS2SO6WaYNHqeGGUYjHKAjcUMp3qFbAyAmlEyalvQtGXUxGbi4IOMNPCxcOyzUupT8HlFCPkhtFD5eRi8OEqDoQdKxTgnSiaGFfHUcVtAlm1impSQ3A+LFOqWy0rzz+h5SspxEgS9o7YtuUkNwOHKynG+FTsu77wqe0/f9Rsq4+NNApWTcvVGf44bScT9otdvfG7e288X4wp2TdVhdXqd8YPNGcm+2PjVl0wzol7ixNe3mGQHew2NeH0mFdNBY5WJRbLetniWkPpe6l5qRRfLWs33iMUumMunDSOBaiZD21g1EycvXeaf3kUrIuapkm/mU6QHM8/3t5uKwrRIzStNIo3XZndXvfZ8HE/t9i5ooSs2ov4CMzStY18R77XcFzL1jqpXV7KXWnQKfIpLkh1h15aXoAdAlFB23585D68aAlYqo8Ao+bjzb7MnSi99QZpTTBCzqsysY9A4+bj9QnDuwVTVf/ADtuAaTBZ+DszdSLe4QdtwjYp4ET6NL0EAfRWvZp4GP8jbT6+ehlahmo/MjCVsb6sBmGxyADqHrZycY92bQuYqG8AvTLgntwATnya4g1PaCyViyKtBYJTFWWw/tytr9AFr/J+SGWbCYmkTYIBk1bomQpHbmH+QOGrdYwDMN4t8eQEM9whT9BOpBTZaf6+wIvjXQgm8GK54scJXwNbGSbUh/9O8RROED/ToKHKvSN/pmvByU7PhXiJ0UvNLJ54xH1H9sJT3wbV+SvUJCrCDvFh6golqpkIitb4vfxEVse138WZC0xMqylRhEP/wH1Gyeb+y7VWzFjqVR9tedDJsUWmI42Iigs2uq0wxCegUaVfZsdi2hNDJZopzvbqkOFfhNL0aO+PLuV0NQnitN4ggZFbHe/+UH8IY+PoeEjpjmI8Lb73P7dQEDdRPD2DA1s2k8TZ0oYfJX8l4u7gYAGa6EjZlvMiycP9OcEVpaJs8ZBcClBE0M40aQXV5X3H/B7ZEiGdFb9/LYHP8m0h6i7biPgwoleOS4bzNFoEJj/8ICqOpaZA5TltEa5Q0tiCymcaJzWdR+sGeAPS/wNZ9ftTwEtJxp5dt+ncQRm3BCl0Um9vYQTkHCiRRzWcyU1oIe6alSVyjiLeQEvQK/ein7/PZKtYoYLwNabAwvtiqDCqUrgBGj3wuGv8vVL7xh3LZUUBBW3Xg/eTKmKCZmSaQodtZKq1TpAg249w+AJrSZpwc6pKmjGoZGBvfRv2yWgAaFfA3u04+O2S7A2nRh7O8Kj246B3sO3kn/WPYAoHygIP42uCOqSceEvzgcrWSgVw6UuIftdRYphV54TS3T3ok+wDix9uPB1zJoGevyMDHWTFw1Ms//u49XAUKpcJmSF0F4/dZE1J/rJNbgn7L/6/SIJX4D++jIPZ/VgJD4i9fncRO1yXYz8fjeL7LusIONHbxTGQvuLg9UplgXZdze+KdtGjk/HPbk9QlkVyiao+jB4awqz3m96g3E7isbb3UJ8g4Wupy8+FA2IpH2EMYr0ZdtHNJz069oL/hxnbh8N81o+nxO1if4nP3XWt1TQMOUmfn/OJ7hQ8Uq1d1/VB0KB85e2Ft96QrP0zmA3iZ9qqzbvMFrJa9VvTPijQ/0O/lnpCejkVHu7te0tGgkW84EqV0k6syfufRG05K20C5gZjtabv+SDLlL5zC+mG/l2nCY0emES4GSnzfGTHSIGqbZgdBuz7myfvhhO3fm/9DozS9Di3gZqeBDX3ApagqEPgaviDvY7l88VhZOl+MCKcUaH2GzvOnJzVcQjVeEx3jVKj+jp2vKl3uxsfhU+FTjpe+K/zy0lGsajV30WjQ7Ti6bX19UY1/KIerO8dpgGFUB5r1JhbcJwsn5lLGQoa3ZHxyKj7pc70BhhvFuW6BL5wjGkIizR/vUyG4FIreboVvolrFPRL3dLt+j9vo2qhdaihdmbusFXkbsqNmzQe2mYnq3BpkJn3GCf08u1pfi+SuFW3qsUrqs/vDZdPXOkbkt2cNXhXE4dbIL1bJ4uR+MwlSzdsN1ZzY5Qg1+L+57B2+4f+tM7+vAv7s2KKYPtI/iXEVFEtOO3PodFrrOjOc0fxDMcXl8TchugeuCVrtzJ/3Mv8dwthf6yDRqerVNd1yiB/jwhP7eGi0+doRjn/53P0KU/V9FRfYCa5IP2Tqs1yJr/JP9PfIesRuh9WPWCaBjiPwBjAUKaIvSL9Y7AW7o315OBARfwFR9i7N8a9cHyxLeQzZw4/ElqeJiu/Rof2eSz0vazjmd9kGZfZiXLu3ozekvLULILIvN1+5h8UASpfsoc8tki+RanL4x0Vcg/MzPJn0q8skg5kJOTvVlv/4VYKKRiiOT+ZlaF37nAr5A2uH48gs2ZfvVdpZTEI3WO8zi4eOcbBukDNg+riXuk1W2DjyrIfFuJhXHNKOE3AcZCptIl90GWAFRjuZS5GZZSM3wPcpLMkEXgrpKvy9dE4FxkFH4kh6RvxbpFEXIcuqLX2HW7HFNwCX1BKFYS1FXJG3AcYjHoV1fBxK/LWMpJcj03Q/DrMuH0cLIRawk+Yasj+cI9rm99Bf5V1dGbmJFWU8HEu7/nvIoXeJZ9XhhDkcJJoFRPwcSLpWAhbTxLbzAAYydSEq8HX/pPlYOgLjRkD7/r2RlhI1IS5VI9zQvh8CxlSrUUTEeewUamhPnQAxoCkZKUd15HwdSUKElRWp/rxZ9BTKtZ8j6vBEjFoPHgYzTGctbsJEpSMTlKj/8V9ULtcfqXriVKcsIavHnBm5wXjOZq4g3XUDLWwAWTtA0QnlsTc1cXCiXoTyppi/B9RYRnWYO1sC0SAAsmTbIseImVOPxK+SZwuFaT0AwdEI7E4edKZiFsQEYpW0wAfANJ2Z4fgqMyAaxg0qZbAXsDPsTRd8qbt7DmhbYABvh5BElZ6MiHC5jSWR49AbBPV2yak1CSc1pBL1kdI+gH0qWdMFH3BmhTIG0yJvAqSWsyUK9Z0ICMhbMkp0duJSs3APZ7WbjxZCk0VrOpQd+90lYIwMolWaNrq+XU/0A/qNl5wHe4JJaS600p/AP9IL6OJy9JrGkoBpsJupaHh1b1v6TxY3XhoLV/VbjDQt7aQ9lyR/gof34v8NaSPP2mptoC3O/VXVBp2EdoyiOr3QklRf/HCMhEo/kcprOBDOX+aSoWFLgKhgyl2m+ooeTo/TpDKDKopSuYq1VYXWm8Euso1apE4SrPPtJRqlVARmn9ONZRqlVARpn99j9DmIMurOFUlQAAAABJRU5ErkJggg==;" parent="PnPkqlYFe4MIE_lKeHhR-33" vertex="1">
          <mxGeometry x="11.059999999999945" width="70.88" height="81" as="geometry" />
        </mxCell>
        <mxCell id="wLGBiTn9vYruEYs-nZDu-23" value="&lt;font style=&quot;font-size: 12px;&quot;&gt;User&lt;/font&gt;" style="text;strokeColor=none;fillColor=none;html=1;align=center;verticalAlign=middle;whiteSpace=wrap;rounded=0;fontSize=16;" parent="PnPkqlYFe4MIE_lKeHhR-33" vertex="1">
          <mxGeometry y="81" width="93" height="30" as="geometry" />
        </mxCell>
        <mxCell id="PnPkqlYFe4MIE_lKeHhR-35" style="edgeStyle=orthogonalEdgeStyle;rounded=0;orthogonalLoop=1;jettySize=auto;html=1;entryX=0;entryY=0.5;entryDx=0;entryDy=0;strokeColor=#FF0000;strokeWidth=2;" edge="1" parent="1" source="PnPkqlYFe4MIE_lKeHhR-28" target="wLGBiTn9vYruEYs-nZDu-12">
          <mxGeometry relative="1" as="geometry" />
        </mxCell>
        <mxCell id="PnPkqlYFe4MIE_lKeHhR-38" value="Subnet:&amp;nbsp;&lt;span class=&quot;notion-enable-hover&quot; data-token-index=&quot;0&quot; style=&quot;font-weight:600&quot;&gt;12.0.1.0/24&lt;/span&gt;" style="shape=partialRectangle;whiteSpace=wrap;html=1;top=0;left=0;fillColor=none;strokeColor=#0000FF;dashed=1;strokeWidth=2;" vertex="1" parent="1">
          <mxGeometry x="451" y="335" width="144" height="34" as="geometry" />
        </mxCell>
        <mxCell id="PnPkqlYFe4MIE_lKeHhR-41" style="edgeStyle=orthogonalEdgeStyle;rounded=0;orthogonalLoop=1;jettySize=auto;html=1;entryX=0.5;entryY=0;entryDx=0;entryDy=0;strokeColor=#FF0000;strokeWidth=2;" edge="1" parent="1" source="PnPkqlYFe4MIE_lKeHhR-39" target="PnPkqlYFe4MIE_lKeHhR-28">
          <mxGeometry relative="1" as="geometry" />
        </mxCell>
        <mxCell id="PnPkqlYFe4MIE_lKeHhR-39" value="" style="shape=image;imageAspect=0;aspect=fixed;verticalLabelPosition=bottom;verticalAlign=top;image=data:image/png,iVBORw0KGgoAAAANSUhEUgAAAQMAAADCCAMAAAB6zFdcAAABC1BMVEX///+MMiPhU0MAAAC5RDSIMSFeHxnysKnlVETCRzisPi+GHgDgSDTl1ND43NefOSrOTDyJKxvgTj6lZVjnfm+BgYFoaGixsbEvLy+oqKjFxcWQkJA3Nzfw8PDf39+JiYny8vJycnLR0dFISEigoKB3d3cdHR3MzMzj4+O/v7+GIg1UGxZaWlo+Pj4oKCjZ2dnxuK91KR7Fn5by6OWIJxVmIxvvoZjxq6PqiHzjnpXiWUnfQSxPT09gYGAfHx8PDw/AXU/Ho5vYrqf30MrbxcCnLhvka1y5iX6aTkC/OCX75+PjY1Pzw7zTtrCvdmmUQjLEe3GsXVGrXFDJV0eCDADrlYjneGigXE/Pin9vaWJNAAAK9ElEQVR4nO2de1viSBbGIcEVNbYShUAQEm4SbBRbbHVUZHra0e51+zKzts73/yRbpy5JJRWuxgWTev8ilaRS51enTl2Sp0ilpKSklkH2ye+riy7DYmWfnB5kNOV40eVYnOxP6YP0SiaraA8JpQA+kE5jBoqeSF/of8oBAcoASbtMGAXqAzwDRCFJvtA/yTECPIME+YLNE/AzSAiFvp9AkAGmYC+6kK8qO0hAZBBzX+Ai4TgGsY6OOxsCgXAGinK1u+jCvpJ2clMz0CUDyUAykAwkA8lAMpAMJAPJQDKQDOLHoP/H5/7osxEx6N/+YUde8qhkn5z+qel3Z5/t8PMRMLBv77+cbnxVlvTdVB9WSNaziq5r2t3Zf/4tXvFCBn1k/8bGaS69spbVlFX71S2aVfY9rBGtrBODgMPDRZDDCxj0v33/cQD241vWFFhrOv//WTeN7JMDvErGGFAOV5cXxxyHORlsfvuefmT2uwyAwjK1iE22TsgzILZo+sPu8Tty2RwMNj/tQP0HblmjV2lKSItbkDbZQqHAgHDQtN3Vd/aMDOzNk52NjYOQe1wGivZu0aa7Gs+Acrjc/RGCYASD7MNOOtT+N8wAc9ianoGyPcL+N84gOxODFckgUQzSa9mwexLEYOXDx3992FpTskEQCWEA9mO9f/+RcEgUgxXXfqb37/3+EHMGgv0ChzgzWBHrfxSHuDJY/4BMfD+egcthNIK3zACcfHt9C3nCWBAfP3wY4wNvnQHGACDWttJhLgHWTzA/Dgx4EhnOJSZXftwYuCTAJaas/HgyoCAyswGIIQMlm5nRCyQDyUAykAwkg7gywEMlJYNm0iszDRFiwYAYv72WWd/aSmeU7e1t9Gt6FG+aAVkhwbanmclkTZWjQs7ElcE2rveAif51ZYICsYjp3BnWUEIMCltbz8Z2DUW+X5AMJAPJQDKQDCQDyUAykAwkA8lAMpAMJAPJQDKQDCQDyUAySEkGIMlAMgBJBpIBSDKQDECSwUzf7k/FIBvb9874uwLhexOeQZZ8yEy/U4glA/dzE/5jDGBAv08hyZM/yXnbDDgWCvv0JjPtJzgxY8D7RWbWz9JixkBJ/PeJkoFkIBlIBpKBT7quZU5zY/a8iDcDXdeVh6eLs/Pffv71Iz0LiDgwQJWPzN/9dXa+yoRA/EQgpiPxxhlA5V9C5a+G6fyfn39P4RJvmsHl3e4o8zkQqG18SY8LlG+YQfb3n7+tHk8gADpePb/4bzzXD7JbudP0X4jDeJ1dPF3qekzXUPBaWi6X+/H3SA5nF3eXEDJivJZGr8ohfxA5oPpXiP1KAhgQDjmOg1f/TElgQP0hhzhc3Cl++5PEgHDICPYnjUHi3i8knYGuaTMx4DdQjQMDXbvSns4+P8+wl+jT7f3z4wgOy8ngcTQDVP/K0zku66x7ytq3J8+5kB1FPQZXy8PAvqdb3wYYoPpXdlfdbbfn2VsYcdg5ffRzYAw07cwOL9BC1L8/OPUzgF1kL4599TT3HtOwwzDnD4SBrv8as7f7QtT//nhKGcDu0krAftBL9hq3EYccDRDAQLv6tTx7K3sCX1jPwq7Sv8J2W49gz/n+t+9fDg5OV9a05fMBpv79n6PsB0Xy3wP9b/c/vi6lDzDZ405G9h8UY5+y3ErG/3CMl2QgGYAkA8kAJBlIBiDJQDIASQaSAUgykAxA3x/D/mwpjIF+9WvRhX0tbT5viAukIgNd212etdLodfsl6AsCA/3qKc4EQEFfCDCIuQ8w3T7zvuBjoF8lggCI9wWOQUJ8gMnzBZdBgnyAifkCZZAwH2AiFDCDBPoAE1BADBLqA0y3zxtf3w4BxzTN9ivke/vPywiYVuH6umAZleAJp2N0qi/KWlBXRRIetGA5NdXVocmfadLUcoRFruAcm9FlGIVKqk8D94Rz5KWaYzKYTYRrMbL8opBB6r9QaxUa+GeXnnDgYL9Wrh1GCgHllkf5vUZEmFfYNWsOPSjDkUUOgEge/8KY7Gie10NZOXse6WUQ1EnZO2y75proR4umdvwXvUQtVR2myssVFVGb3+OPLWZugS8ncuDDaJ6HnasaHdMI5LgOzyVAWLRV3l9Rz7FvR/E8g4QC1BiOvMS2aSLalWahO8j3SJLZ6nYLJf6RVaM2QGkWC0wVMyAWYSpGodsdWF7Acci5njVAyXWxTGByzZdyQ6u8algdNxExGEbivNeqepMifZGX+z6EXIv2QA149g09MNgl5qHXR5F+taMGRBy1UmDHQ3Yz4r6fghiEtdcLlslGzz+yfSlhRW8EWsy8cmjIBS+7dlOLyDcGri0NEpSIaG2WfdZixzVDGbT5FFq5iMGhwyULELoqPyQYobbXW7xMYAsedkJtOSwVMUC1VGx2Oi0oI1yU73Sa+yojjzsmy6w69RKuTnDoat6iKjebQ+ozPVzTRr1qQqynhqG7i+iCrmGS/IWxSR2jsQQ2QQTR9I2uy3Z4qkW3culoZQ+3O3uPEVM5YjU1EMFoGs5t6GXr3LBmg/MckkDQC3UE6mY3NSOUQ7VuNELvm0fgvyXyE1Xy0KbJRc4X8diUhp4OvbyjcpEhpZKYwQlCSQF+QJhh/TkZ48EPg7kOOxAH6mxSAAURJk1VcqJrC7fNI66/tTi7ilwZy1w1Q9SALrS5R4whOvL1KdSAQ5aRC5akA0Iw2+3iHB6Tp16XCxgD/yCWNBW14eum5lWFq++q6oVZKDpfcLfHUN1hBPf4AelaXIFzEcsDHX2FuofheR/K6Ib6TFBOqSFEUyLjMG9d4/bkhN04m8A+F3GDNXbMwB2BlbxknoGrqnEEXZ0n3MLJHR2eX8odhRj8Y8GNQhkg2e0ycwehF7RrfFCaXxCl6lS9vOeURc5XS/yTfAzqRrN2uI9LyDHA8522dy8ft2oklBu+5OJoBiDbrImegJVXp+hBJ6mnCrKFYpVUbojuMeAdlWdgFzlHLwdqyvIYeOtAExik2DBLrPKh+vJZTktkUBKKFcrAKbp3FDpdngGgcftYKxoGJHaL85lyoKnNIRs47nkCu46EYoUxIEtPjVqzDRbyDAo+/2yObgtjGFS7h8HeshLaGPxd9FwygnDBsHqwWGEMwNJrt4L3PAZlf/TyBz/sJDepiQzEKZM7lqu0eZvNlzNoBBsZWFAIFiuEQUX1jQhUtyeFa7nxAA44POUhibWT2gLURUpIGgRndsHDOeSowTUIPJCrpCYy8JvmuAzwrMk3fh36HmHSWDGJgdj6TZJS9XtINzRSziJL9CQYeDRTExn4Z2w1Vm24m/Evc+Z9z2DTjUkM6l50JqrcUGv3eKvrQiXOrCOxZzFoNzeBgcO3BTKyh4IORagO7xktFi8n9gu4Lxy4xpo3rP7hYWxu4gwF5LPKVEP6JFqTk2IiRJIuLmKPLjOkCNNavWOUXPXoewJ4G2LXD1UWOyf3jQ2c6U251OmU8KSbRVrIpAhxu4JzDs5XZ1QhLKDQodckBmRhpDHogm/ukR6Q9Jc+lWiO6JoGnn4Oq1MysBuBrIq0CDYelx5dk/MTxxXjVWGt2CfcpB2oUreTDx0jcetmZZxVeRSDlDF0j1mR/QyOQke8xj6fEzdcKISmzqV2K58vicnlfL5lpizunNnKt2x2gG4ivuNYuGKvmxVyk5Wy0Tm/WmRoYDfxvKdouWajZ7e8SGSFFgTNlyw6GC34FxDqZHjbaC7DywD7la713Rd+Y2Xe/KSkpKSkpKSkpKSkpKSkOP0P9sZ/6TWYKN8AAAAASUVORK5CYII=;" vertex="1" parent="1">
          <mxGeometry x="-152.06" y="132" width="96.12" height="72" as="geometry" />
        </mxCell>
        <mxCell id="PnPkqlYFe4MIE_lKeHhR-42" value="Frontend Build Files" style="text;html=1;align=center;verticalAlign=middle;whiteSpace=wrap;rounded=0;" vertex="1" parent="1">
          <mxGeometry x="-134" y="96" width="60" height="30" as="geometry" />
        </mxCell>
        <mxCell id="PnPkqlYFe4MIE_lKeHhR-44" value="Private Subnet" style="shape=partialRectangle;whiteSpace=wrap;html=1;top=0;left=0;fillColor=none;strokeColor=#0000FF;dashed=1;strokeWidth=2;" vertex="1" parent="1">
          <mxGeometry x="849.5" y="116" width="59.5" height="34" as="geometry" />
        </mxCell>
      </root>
    </mxGraphModel>
  </diagram>
</mxfile>
